<?xml version="1.0" encoding="UTF-8" standalone="no"?>
<!-- Created with Inkscape (http://www.inkscape.org/) -->

<svg
   version="1.1"
   id="svg1"
   width="6100"
   height="1200"
   viewBox="0 0 6100 1200"
   xml:space="preserve"
   xmlns="http://www.w3.org/2000/svg"
   xmlns:svg="http://www.w3.org/2000/svg"><path
     id="path1"
     style="display:inline;opacity:1;fill:#ffffff;fill-opacity:1;stroke:none;stroke-width:144.464;stroke-linecap:round;stroke-linejoin:round;stroke-miterlimit:0;stroke-opacity:1"
     d="M 3112.8444 -149.22181 C 3019.5677 -149.22181 2938.9097 -125.07806 2870.8726 -76.793629 C 2802.8354 -28.509201 2750.7116 40.076825 2714.4983 128.96407 C 2678.285 217.85131 2660.1787 323.74609 2660.1787 446.65191 C 2660.1787 569.55773 2678.285 675.45548 2714.4983 764.34272 C 2750.7116 853.22997 2802.8354 921.81599 2870.8726 970.10042 C 2938.9097 1018.3849 3019.5677 1042.5256 3112.8444 1042.5256 C 3207.2185 1042.5256 3287.8735 1018.3849 3354.8132 970.10042 C 3422.8503 921.81599 3474.9772 853.22997 3511.1905 764.34272 C 3547.4038 675.45548 3565.5101 569.55773 3565.5101 446.65191 C 3565.5101 323.74609 3547.4038 217.85131 3511.1905 128.96407 C 3474.9772 40.076825 3422.8503 -28.509201 3354.8132 -76.793629 C 3287.8735 -125.07806 3207.2185 -149.22181 3112.8444 -149.22181 z M 6281.7511 -129.46786 L 6281.7511 1022.7747 L 6706.4358 1022.7747 C 6787.6414 1022.7747 6856.2274 1008.5076 6912.1935 979.97591 C 6968.1595 951.4442 7010.4067 913.03639 7038.9384 864.75196 C 7068.5675 815.37016 7083.3826 761.05116 7083.3826 701.793 C 7083.3826 629.36635 7063.6291 571.20509 7024.1237 527.31016 C 6984.6182 482.31785 6937.4328 449.94449 6882.5641 430.19177 L 6882.5641 418.67086 C 6928.6538 400.01551 6969.2568 369.83731 7004.3727 328.13712 C 7039.4887 286.43693 7057.0469 232.11793 7057.0469 165.17816 C 7057.0469 78.485663 7026.3207 7.7044806 6964.8678 -47.164188 C 6903.4149 -102.03286 6812.8802 -129.46786 6693.2665 -129.46786 L 6281.7511 -129.46786 z M 807.52478 -11.659944 C 800.95089 -11.659822 794.57288 -11.176596 788.28465 -10.480825 C 585.93599 -4.3626253 391.51559 96.825672 289.19965 282.21386 C 252.78521 348.19387 232.1033 418.6839 227.15781 485.48264 C 82.194882 559.04621 4.6014576 646.18492 4.6013795 735.41719 C 4.6010826 852.53185 138.13552 964.8512 375.82774 1047.6639 C 613.51996 1130.4765 935.89931 1176.9986 1272.0471 1176.9986 C 1608.1947 1176.9986 1930.5742 1130.4765 2168.2664 1047.6639 C 2405.9586 964.85119 2539.493 852.53184 2539.4927 735.41719 C 2539.4925 633.24529 2437.7991 534.23488 2251.7432 455.25918 C 2243.4885 397.83575 2223.9238 338.65652 2193.0516 282.71877 C 2090.7362 97.330757 1896.318 -3.8575299 1693.9696 -9.975913 C 1687.6811 -10.671608 1681.3007 -11.155016 1674.7265 -11.155032 C 1668.1523 -11.15491 1661.7717 -10.671729 1655.4834 -9.975913 C 1500.1406 -5.278268 1349.6127 55.60631 1241.7345 167.48294 L 1241.3722 167.48294 C 1133.4111 55.19632 982.43726 -5.7739656 826.77085 -10.480825 C 820.48244 -11.17652 814.10188 -11.659944 807.52775 -11.659944 L 807.52478 -11.659944 z M 3112.8444 15.385534 C 3195.1474 15.385534 3261.5382 52.697257 3312.0174 127.31865 C 3362.4965 200.84266 3387.7365 307.28549 3387.7365 446.65191 C 3387.7365 586.01833 3362.4965 693.01217 3312.0174 767.63356 C 3261.5382 841.15757 3195.1474 877.92126 3112.8444 877.92126 C 3029.444 877.92126 2962.505 841.15757 2912.0259 767.63356 C 2862.6441 693.01217 2837.9523 586.01833 2837.9523 446.65191 C 2837.9523 307.28549 2862.6441 200.84266 2912.0259 127.31865 C 2962.505 52.697257 3029.444 15.385534 3112.8444 15.385534 z M 6456.234 25.261025 L 6668.5763 25.261025 C 6807.9427 25.261025 6877.6249 79.582987 6877.6249 188.22295 C 6877.6249 243.09162 6860.0665 284.24265 6824.9506 311.67698 C 6789.8347 338.01395 6738.807 351.18191 6671.8672 351.18191 L 6456.234 351.18191 L 6456.234 25.261025 z M 752.20124 117.38673 L 752.20124 243.31779 C 752.20094 255.00111 755.8991 266.38468 762.76579 275.83711 C 766.17891 280.53518 770.31036 284.66664 775.00843 288.07975 C 784.46087 294.94644 795.84445 298.6446 807.52775 298.6443 C 838.08352 298.64375 862.85371 273.87356 862.85426 243.31779 L 862.85426 117.38673 C 863.62842 117.8021 864.4007 118.22491 865.16794 118.65198 C 887.05144 130.83272 907.5983 148.70987 910.6843 152.39794 C 930.2865 175.82461 956.42044 219.69356 956.42044 243.31779 C 956.42099 273.87472 981.19304 298.64539 1011.7499 298.6443 C 1042.3057 298.64375 1067.0759 273.87355 1067.0764 243.31779 C 1067.0764 210.70515 1058.7079 182.00308 1047.168 157.48864 C 1094.0983 182.53038 1136.5812 215.38529 1172.3774 255.61983 C 1172.3934 255.59463 1172.4109 255.57088 1172.4249 255.54558 L 1172.4249 256.10098 C 1166.8251 264.72797 1161.4478 273.56959 1156.3984 282.71877 C 1141.708 309.33664 1129.5783 336.69092 1120.0091 364.23834 C 1085.8915 370.52365 1052.6792 380.28173 1020.274 392.07386 C 1027.3851 389.48597 1034.2704 386.34087 1041.4803 384.01606 C 1039.9073 381.19868 1038.0078 378.4849 1035.8283 375.92855 C 1016.9031 353.73053 991.31595 339.36645 963.83375 338.9066 C 936.35164 338.44678 909.36848 353.31445 893.56778 376.56414 C 880.62047 395.61526 876.42287 411.27421 902.90271 427.61672 C 910.84442 432.51809 919.38729 434.3321 927.44145 434.30532 C 929.95826 432.86167 932.67032 431.79051 935.20819 430.38482 C 848.30814 478.51962 773.42084 548.60699 721.32437 639.94421 L 721.3214 639.94421 L 716.65839 639.94421 L 404.14441 639.94421 C 404.10491 639.94417 404.06511 639.94417 404.02561 639.94421 C 385.40769 639.98531 376.4057 635.11127 365.61664 622.79799 C 354.82758 610.48472 344.48671 588.20108 339.77404 558.23456 C 330.3487 498.30151 344.33311 411.32388 386.08043 335.6811 C 429.22464 257.50729 492.8758 197.51504 567.88747 157.48864 C 556.3479 182.00276 547.97907 210.70578 547.97907 243.31779 C 547.97962 273.8747 572.75164 298.64539 603.30855 298.6443 C 633.86432 298.64375 658.63451 273.87356 658.63506 243.31779 C 658.63506 219.69356 684.76899 175.82462 704.3712 152.39794 C 707.4572 148.70986 728.00406 130.83272 749.88756 118.65198 C 750.6548 118.22491 751.42707 117.8021 752.20124 117.38673 z M 1619.4 117.89164 L 1619.4 243.81973 C 1619.3991 255.50407 1623.0973 266.88877 1629.9645 276.34203 C 1633.3769 281.0388 1637.5074 285.16923 1642.2042 288.58169 C 1651.657 295.45003 1663.0418 299.14929 1674.7265 299.14921 C 1705.2834 299.14865 1730.0541 274.37664 1730.053 243.81973 L 1730.053 117.89164 C 1730.8272 118.30701 1731.5995 118.72685 1732.3667 119.15392 C 1754.2501 131.33465 1774.7971 149.21477 1777.883 152.90285 C 1797.4853 176.32949 1823.6192 220.1955 1823.6192 243.81973 C 1823.6192 274.37783 1848.3905 299.15034 1878.9487 299.14921 C 1909.5056 299.14865 1934.2762 274.37664 1934.2752 243.81973 C 1934.2752 211.2071 1925.9067 182.50799 1914.3668 157.99356 C 1989.3796 198.01995 2053.0292 258.01129 2096.1738 336.18601 C 2137.9211 411.82879 2151.9055 498.80642 2142.4802 558.73947 C 2137.7675 588.70599 2127.4267 610.98961 2116.6376 623.3029 C 2105.8486 635.61619 2096.8466 640.48982 2078.2286 640.44913 C 2078.1876 640.44908 2078.1476 640.44908 2078.1069 640.44913 L 1750.7336 640.44913 C 1696.0675 544.3383 1616.3955 471.35977 1523.8082 423.07548 C 1527.9593 423.10278 1530.7688 424.97876 1535.145 427.10883 C 1546.9118 432.83578 1566.9912 436.75046 1584.2403 426.10495 C 1610.7201 409.76243 1606.5226 394.10051 1593.5752 375.04941 C 1577.7746 351.79972 1550.7914 336.93499 1523.3092 337.39483 C 1495.8271 337.85467 1470.24 352.21878 1451.3147 374.41678 C 1447.6835 378.67614 1444.8265 383.37782 1442.9658 388.25732 C 1382.9564 367.45339 1319.4438 355.90358 1255.1295 353.95892 C 1251.6266 353.5714 1248.095 353.25011 1244.5175 353.04117 C 1247.2886 347.37191 1250.2095 341.74798 1253.2792 336.18601 C 1296.4234 258.01216 1360.0746 198.01995 1435.0862 157.99356 C 1423.5467 182.50769 1415.1778 211.20769 1415.1778 243.81973 C 1415.1778 274.37783 1439.9491 299.15034 1470.5073 299.14921 C 1501.0642 299.14865 1525.8349 274.37664 1525.8338 243.81973 C 1525.8338 220.1955 1551.9678 176.32949 1571.5699 152.90285 C 1574.656 149.21477 1595.2028 131.33465 1617.0863 119.15392 C 1617.8536 118.72685 1618.6258 118.30701 1619.4 117.89164 z M 4058.1531 186.57456 C 3996.7002 186.57456 3943.4802 200.84159 3898.4879 229.3733 C 3854.5929 256.80763 3821.6716 290.82514 3799.7241 331.42796 L 3789.8456 331.42796 L 3789.8456 206.32851 L 3625.2413 206.32851 L 3625.2413 1384.9067 L 3799.7241 1384.9067 L 3799.7241 924.01084 C 3819.4768 954.73729 3849.6549 982.17228 3890.2578 1006.3145 C 3930.8606 1030.4567 3981.3374 1042.5256 4041.6929 1042.5256 C 4109.73 1042.5256 4171.1826 1026.6145 4226.0513 994.79063 C 4280.92 961.86943 4324.2661 913.5849 4356.0899 849.93724 C 4389.0111 786.28959 4405.4733 707.82683 4405.4733 614.5501 C 4405.4733 520.17599 4389.5621 441.71621 4357.7383 379.16593 C 4327.0118 315.51827 4285.3098 267.78178 4232.6359 235.95795 C 4179.962 203.03675 4121.8008 186.57456 4058.1531 186.57456 z M 4909.6401 186.57456 C 4829.5318 186.57456 4758.7507 204.68089 4697.2978 240.89421 C 4636.9423 277.10753 4589.7538 327.58723 4555.7352 392.33226 C 4522.814 457.07729 4506.3548 532.24878 4506.3548 617.84391 C 4506.3548 702.34166 4523.365 776.4141 4557.3836 840.06175 C 4591.4021 903.70941 4638.5877 953.64105 4698.9432 989.85437 C 4759.2987 1024.9703 4828.9838 1042.5256 4907.9947 1042.5256 C 5005.6609 1042.5256 5085.7678 1016.1897 5148.3181 963.51577 C 5210.8684 909.74447 5252.0194 843.90165 5271.7721 765.98814 L 5095.6439 765.98814 C 5081.378 803.29883 5058.8813 832.929 5028.1549 854.87647 C 4998.5258 875.72657 4957.9228 886.15133 4906.3463 886.15133 C 4847.0882 886.15133 4795.5123 866.94593 4751.6174 828.53786 C 4707.7225 789.03242 4683.0307 731.42218 4677.5438 655.70342 L 5291.5261 655.70342 C 5292.6234 640.34019 5293.1715 626.62121 5293.1715 614.5501 L 5293.1715 578.33898 C 5293.1715 507.00971 5277.2603 441.71493 5245.4365 382.45677 C 5214.71 323.1986 5170.8158 276.01016 5113.7524 240.89421 C 5056.689 204.68089 4988.651 186.57456 4909.6401 186.57456 z M 5861.5334 186.57456 C 5801.1779 186.57456 5747.955 200.29355 5701.8653 227.72788 C 5655.7756 255.16221 5621.7582 288.63167 5599.8107 328.13712 L 5591.5806 328.13712 L 5591.5806 206.32851 L 5425.3278 206.32851 L 5425.3278 1022.7747 L 5599.8107 1022.7747 L 5599.8107 588.21447 C 5599.8107 511.39834 5619.564 452.68902 5659.0695 412.08621 C 5699.6723 371.4834 5750.1521 351.18191 5810.5076 351.18191 C 5871.9605 351.18191 5916.9508 369.83629 5945.4825 407.14698 C 5974.0142 444.45767 5988.2813 497.13252 5988.2813 565.16967 L 5988.2813 1022.7747 L 6162.7641 1022.7747 L 6162.7641 543.7703 C 6162.7641 426.35135 6137.5243 337.46384 6087.0451 277.1083 C 6036.566 216.75277 5961.3944 186.57456 5861.5334 186.57456 z M 7584.2585 186.57456 C 7484.3975 186.57456 7401.5445 211.81441 7335.7021 262.29358 C 7270.9571 311.67539 7234.1964 379.16532 7225.4174 464.76044 L 7399.8972 464.76044 C 7410.8709 419.76813 7432.2715 387.39477 7464.0953 367.64205 C 7497.0165 346.79196 7537.0714 336.36719 7584.2585 336.36719 C 7698.3853 336.36719 7755.4475 397.8197 7755.4475 520.72551 L 7755.4475 538.83107 L 7544.7506 538.83107 C 7437.208 538.83107 7353.8099 561.32772 7294.5517 606.32003 C 7236.3909 651.31234 7207.3088 713.86391 7207.3088 793.97216 C 7207.3088 838.96447 7218.2846 880.66354 7240.2321 919.07161 C 7262.1796 956.3823 7295.098 986.5605 7338.9929 1009.6054 C 7382.8878 1031.5529 7437.2099 1042.5256 7501.9549 1042.5256 C 7574.3816 1042.5256 7628.7005 1028.8096 7664.9138 1001.3753 C 7701.1271 973.94094 7731.3053 941.01954 7755.4475 902.61147 L 7766.9714 902.61147 L 7766.9714 1022.7747 L 7929.9304 1022.7747 L 7929.9304 520.72551 C 7929.9304 416.47504 7902.4954 334.72105 7847.6267 275.46288 C 7792.758 216.20472 7704.9696 186.57456 7584.2585 186.57456 z M 8470.3113 186.57456 C 8391.3004 186.57456 8321.0673 204.13284 8259.6144 239.24879 C 8198.1615 274.36474 8149.8769 324.29639 8114.761 389.04142 C 8079.6451 452.68907 8062.0867 527.8576 8062.0867 614.5501 C 8062.0867 701.24259 8079.6451 776.96214 8114.761 841.70717 C 8149.8769 905.35483 8198.1615 954.73842 8259.6144 989.85437 C 8321.0673 1024.9703 8390.7494 1042.5256 8468.6629 1042.5256 C 8547.6738 1042.5256 8617.3589 1024.9703 8677.7144 989.85437 C 8739.1673 954.73842 8787.4519 905.35483 8822.5678 841.70717 C 8857.6838 776.96214 8875.242 701.24259 8875.242 614.5501 C 8875.242 527.8576 8857.6838 452.68907 8822.5678 389.04142 C 8788.5493 324.29639 8740.8127 274.36474 8679.3598 239.24879 C 8619.0043 204.13284 8549.3222 186.57456 8470.3113 186.57456 z M 575.44333 335.88009 C 547.96119 336.33993 522.37105 350.70699 503.44581 372.90502 C 490.2957 388.3292 487.32605 409.53286 504.88927 424.10906 C 520.48639 437.05357 536.32497 437.69209 563.40266 425.16047 C 576.80211 418.95918 579.67231 421.89617 587.2761 425.59707 C 599.0429 431.32401 619.12239 435.23871 636.3714 424.59318 C 662.85119 408.25068 658.65364 392.58874 645.70633 373.53764 C 629.90563 350.28795 602.92543 335.42026 575.44333 335.88009 z M 1924.8095 337.39483 C 1897.3274 336.93499 1870.3473 351.79972 1854.5465 375.04941 C 1841.5992 394.10051 1837.3988 409.76243 1863.8785 426.10495 C 1881.1275 436.75046 1901.2099 432.83578 1912.9768 427.10883 C 1920.5806 423.40801 1923.4506 420.47094 1936.8502 426.67223 C 1963.9278 439.20386 1979.7635 438.56535 1995.3606 425.62083 C 2012.9239 411.04462 2009.9543 389.84096 1996.8041 374.41678 C 1977.879 352.21879 1952.2918 337.85467 1924.8095 337.39483 z M 4907.9947 338.01261 C 4967.2528 338.01261 5016.0854 355.02285 5054.4935 389.04142 C 5092.9016 423.05999 5114.2992 467.50226 5118.6887 522.37093 L 4684.1285 522.37093 C 4696.1996 464.21014 4723.0866 419.21983 4764.7867 387.396 C 4806.4869 354.4748 4854.2234 338.01261 4907.9947 338.01261 z M 4012.0635 352.82733 C 4073.5164 352.82733 4124.5441 374.22788 4165.1469 417.02544 C 4206.8471 459.823 4227.6996 525.11481 4227.6996 612.90468 C 4227.6996 700.69455 4206.8471 766.53737 4165.1469 810.4323 C 4124.5441 854.32723 4073.5164 876.27584 4012.0635 876.27584 C 3949.5132 876.27584 3897.3894 854.32723 3855.6892 810.4323 C 3815.0864 766.53737 3794.7849 701.24259 3794.7849 614.5501 C 3794.7849 526.76023 3815.0864 461.46842 3855.6892 418.67086 C 3897.3894 374.77593 3949.5132 352.82733 4012.0635 352.82733 z M 8470.3113 352.82733 C 8512.0115 352.82733 8549.8683 362.156 8583.8868 380.81135 C 8619.0027 399.4667 8646.9858 427.99779 8667.8359 466.40586 C 8689.7834 504.81393 8700.7592 554.19456 8700.7592 614.5501 C 8700.7592 673.80826 8689.7834 723.19186 8667.8359 762.6973 C 8646.9858 801.10537 8619.0027 829.63647 8583.8868 848.29182 C 8548.7709 866.94717 8510.3631 876.27584 8468.6629 876.27584 C 8406.1126 876.27584 8351.7936 855.42333 8305.7039 813.72314 C 8260.7116 770.92558 8238.215 704.53471 8238.215 614.5501 C 8238.215 554.19456 8248.6397 504.81393 8269.4898 466.40586 C 8291.4373 427.99779 8319.9685 399.4667 8355.0844 380.81135 C 8390.2003 362.156 8428.6111 352.82733 8470.3113 352.82733 z M 1180.5599 481.82648 L 1180.5599 607.75457 C 1180.559 619.43891 1184.2572 630.8236 1191.1245 640.27686 C 1194.5369 644.97364 1198.6673 649.10406 1203.3641 652.51653 C 1212.817 659.38487 1224.2017 663.08412 1235.8864 663.08405 C 1266.4433 663.08347 1291.214 638.31147 1291.2129 607.75457 L 1291.2129 481.82648 C 1291.9871 482.24185 1292.7593 482.66169 1293.5266 483.08876 C 1315.4101 495.26949 1335.9569 513.14959 1339.043 516.83769 C 1358.6451 540.26431 1384.7791 584.13037 1384.7791 607.75457 C 1384.7791 638.31265 1409.5505 663.08512 1440.1086 663.08405 C 1470.6643 663.08205 1495.4332 638.3103 1495.4321 607.75457 C 1495.4321 575.14195 1487.0637 546.44282 1475.5237 521.92839 C 1550.5366 561.95479 1614.1891 621.94614 1657.3337 700.12085 C 1699.081 775.76361 1713.0625 862.74128 1703.6372 922.67431 C 1698.9244 952.64081 1688.5867 974.92445 1677.7975 987.23774 C 1667.0086 999.55102 1658.0064 1004.4247 1639.3886 1004.384 L 1639.2668 1004.384 L 1235.8864 1004.384 L 832.50309 1004.384 L 832.38132 1004.384 C 813.76341 1004.425 804.76436 999.55102 793.97531 987.23774 C 783.18628 974.92447 772.84531 952.64081 768.13271 922.67431 C 758.70736 862.74128 772.6918 775.76361 814.43911 700.12085 C 857.58332 621.94706 921.23448 561.95479 996.24614 521.92839 C 984.70658 546.44251 976.33775 575.14257 976.33775 607.75457 C 976.33675 638.31263 1001.1091 663.0851 1031.6672 663.08405 C 1062.2241 663.08347 1086.9948 638.31147 1086.9937 607.75457 C 1086.9937 584.13037 1113.1277 540.26433 1132.7299 516.83769 C 1135.8159 513.14959 1156.3627 495.26949 1178.2462 483.08876 C 1179.0135 482.66169 1179.7857 482.24185 1180.5599 481.82648 z M 6456.234 499.32614 L 6680.0972 499.32614 C 6749.2317 499.32614 6804.1018 515.24028 6844.7046 547.06411 C 6885.3074 577.79056 6905.6089 622.23284 6905.6089 680.39363 C 6905.6089 739.65179 6886.4035 784.64508 6847.9954 815.37153 C 6809.5873 846.09798 6754.7203 861.46112 6683.391 861.46112 L 6456.234 861.46112 L 6456.234 499.32614 z M 7562.8592 665.57891 L 7753.8021 665.57891 C 7750.51 732.51868 7730.7565 787.93674 7694.5432 831.83167 C 7659.4273 874.62924 7606.2044 896.02682 7534.8751 896.02682 C 7490.9802 896.02682 7455.8636 886.15011 7429.5267 866.39738 C 7404.2871 845.54729 7391.6672 817.01618 7391.6672 780.80286 C 7391.6672 744.58954 7404.2871 716.60649 7429.5267 696.85377 C 7455.8636 676.00368 7500.3089 665.57891 7562.8592 665.57891 z M 1423.4495 699.31299 C 1395.9673 698.85315 1368.9872 713.71787 1353.1865 736.96757 C 1340.2393 756.01867 1336.0415 771.68059 1362.5214 788.02311 C 1379.7704 798.66862 1399.8498 794.75394 1411.6167 789.02699 C 1419.2204 785.32617 1422.0907 782.3891 1435.4901 788.59039 C 1462.5679 801.12202 1478.4064 800.48351 1494.0035 787.53899 C 1511.5667 772.96278 1508.5972 751.75912 1495.447 736.33494 C 1476.5219 714.13692 1450.9316 699.77283 1423.4495 699.31299 z M 1003.802 700.31984 C 976.31988 700.7797 950.72972 715.14674 931.80449 737.34477 C 918.65437 752.76895 915.68473 773.96964 933.24794 788.54584 C 948.84507 801.49035 964.68364 802.13186 991.76134 789.60022 C 1005.1608 783.39893 1008.031 786.33601 1015.6348 790.03682 C 1027.4016 795.76376 1047.4811 799.67549 1064.7301 789.02996 C 1091.2099 772.68746 1087.0123 757.02851 1074.065 737.97739 C 1058.2643 714.7277 1031.2841 699.86002 1003.802 700.31984 z "
     transform="matrix(0.65760184,0,0,0.65760184,131.10889,207.54846)" /><defs
     id="defs1"><rect
       x="1899.4994"
       y="-1249.2203"
       width="2139.0759"
       height="1249.2203"
       id="rect3" /><clipPath
       clipPathUnits="userSpaceOnUse"
       id="clipPath15"><g
         id="use15" /></clipPath><clipPath
       clipPathUnits="userSpaceOnUse"
       id="clipPath20"><g
         id="use20"
         style="display:inline" /></clipPath><clipPath
       clipPathUnits="userSpaceOnUse"
       id="clipPath23"><g
         id="use23"
         style="stroke-width:1.52068"><path
           style="display:inline;opacity:1;fill:#87d6be;fill-opacity:1;stroke:none;stroke-width:144.464;stroke-linecap:round;stroke-linejoin:round;stroke-miterlimit:0;stroke-opacity:1"
           id="path37"
           d="M 2479.5983,735.4187 A 1207.5515,346.58099 0 0 1 1272.0468,1081.9997 1207.5515,346.58099 0 0 1 64.495239,735.4187 1207.5515,346.58099 0 0 1 1272.0468,388.83771 1207.5515,346.58099 0 0 1 2479.5983,735.4187 Z" /></g></clipPath><filter
       style="color-interpolation-filters:sRGB"
       id="filter31"
       x="0"
       y="-0.041911889"
       width="1"
       height="1.0419118"><feColorMatrix
         values="0 0 0 0 0 0 0 0 0 0 0 0 0 0 0 -1 -1 -1 1 0 "
         id="feColorMatrix31" /></filter></defs></svg>
