<?xml version="1.0" encoding="UTF-8" standalone="no"?>
<!-- Created with Inkscape (http://www.inkscape.org/) -->

<svg
   version="1.1"
   id="svg1"
   width="433.52164"
   height="324.79834"
   viewBox="0 0 433.52165 324.79835"
   xml:space="preserve"
   xmlns="http://www.w3.org/2000/svg"
   xmlns:svg="http://www.w3.org/2000/svg"><defs
     id="defs1"><rect
       x="1024.6833"
       y="455.57123"
       width="1489.3013"
       height="312.16077"
       id="rect1" /><clipPath
       clipPathUnits="userSpaceOnUse"
       id="clipPath9013"><rect
         style="opacity:0.2;fill:#7ac2ad;fill-rule:evenodd;stroke-width:1.00345"
         id="rect9013"
         width="2570.3655"
         height="1200.0398"
         x="83.109909"
         y="117.27092" /></clipPath></defs><path
     id="path1"
     style="font-weight:500;font-size:192px;font-family:'DM Mono';-inkscape-font-specification:'DM Mono Medium';letter-spacing:0px;fill-rule:evenodd;stroke-width:0.525282;fill:#000000;fill-opacity:1"
     d="M 160.4375 32.726562 C 159.46326 32.735103 158.49947 32.797354 157.55664 32.933594 C 152.18984 33.709084 146.92575 34.236035 141.68555 35.796875 C 126.04165 40.456435 111.6192 50.886054 103.4082 65.115234 C 100.5678 70.037424 98.132341 75.183368 96.431641 80.611328 C 95.902541 82.300368 95.395878 84.034794 95.080078 85.777344 C 94.919078 86.665524 94.899153 87.998646 94.314453 88.728516 C 93.295953 89.999896 90.350319 90.704202 88.886719 91.451172 C 85.355019 93.253712 81.861578 95.468367 78.830078 98.029297 C 70.628678 104.95734 64.174509 114.83889 67.787109 125.85156 C 68.624609 128.40468 70.084959 130.86847 71.630859 133.05078 C 73.713659 135.9912 76.336731 138.41725 79.144531 140.6543 C 87.653731 147.43361 97.986144 151.67543 108.21484 155.12305 C 118.64144 158.63734 129.27433 161.53449 140.11523 163.48438 C 188.06183 172.10828 237.36966 173.57091 285.4668 164.91992 C 308.3853 160.79768 331.70689 155.29927 351.30859 142.18359 C 358.37149 137.45772 365.80755 130.04556 366.68555 121.1543 C 367.04675 117.49746 366.06111 113.68146 364.59961 110.35352 C 360.72221 101.525 351.32212 95.136299 342.97852 90.980469 C 340.32262 89.657589 337.59819 88.465619 334.80859 87.449219 C 333.88019 87.110989 331.8994 86.721546 331.3125 85.910156 C 330.3926 84.638576 330.24874 82.123648 329.77734 80.611328 C 328.65514 77.011808 327.3494 73.500267 325.6543 70.123047 C 319.4942 57.850107 309.35045 47.562424 297.25195 41.052734 C 277.70975 30.537944 253.62267 30.372275 233.61133 39.578125 C 227.83473 42.235565 222.17478 46.010987 217.58398 50.404297 C 216.24028 51.690197 214.92183 52.962683 213.64453 54.314453 C 213.33593 54.640973 212.66884 55.561585 212.14844 55.484375 C 211.72044 55.420875 211.27017 54.755733 210.98438 54.470703 L 208.3125 51.808594 C 205.3938 48.901174 202.19496 46.325304 198.72656 44.089844 C 189.88996 38.394564 179.64685 34.680809 169.18555 33.474609 C 166.37575 33.150639 163.36021 32.700942 160.4375 32.726562 z M 167.77148 44.765625 C 168.91315 45.731565 170.25501 46.451747 171.38477 47.447266 C 174.04457 49.791106 175.98086 52.921496 177.28906 56.191406 C 177.87526 57.656736 178.51917 59.321362 178.73047 60.888672 C 179.03567 63.153762 178.61555 64.899446 180.50195 66.660156 C 184.44885 70.344096 190.92385 67.280325 190.37695 61.828125 C 190.06165 58.685455 188.59815 55.539687 186.93555 52.904297 C 186.30925 51.911647 184.32543 50.096708 184.42773 48.992188 C 190.82373 51.806168 196.84964 54.794649 201.86914 59.792969 C 203.10534 61.023969 205.42642 62.645311 206.01172 64.332031 C 206.40952 65.478411 204.1958 68.288337 203.625 69.341797 C 202.7583 70.941567 201.96404 72.568299 201.14844 74.193359 C 200.82764 74.832339 200.56239 75.714917 199.96289 76.154297 C 199.24829 76.678027 197.56719 76.716854 196.68359 76.896484 C 194.40969 77.358824 192.19383 78.079972 189.92773 78.576172 C 186.71973 73.229322 180.4899 70.752081 174.8418 74.082031 C 172.0091 75.752051 168.16003 80.224787 172.32812 82.716797 C 174.54442 84.041817 176.20643 82.436494 178.29883 82.802734 C 177.56813 83.869124 176.3743 84.457814 175.3125 85.152344 C 173.3824 86.414904 171.49215 87.644362 169.65625 89.044922 C 165.05355 92.556262 161.14515 96.863951 157.43945 101.27539 C 155.85515 103.16141 154.35591 105.28222 153.06641 107.37891 C 152.64291 108.06756 152.22543 109.50799 151.42383 109.80859 C 149.59463 110.49451 146.62217 109.82752 144.67188 109.88672 C 139.13837 110.05471 133.55902 109.88477 128.01562 109.88477 C 120.69033 109.88477 111.19164 111.85274 106.71094 104.5625 C 103.86124 99.92596 104.47181 94.470423 105.34961 89.376953 C 107.55951 76.554603 114.68675 64.695529 124.87305 56.599609 C 128.46035 53.748469 133.94917 49.794947 138.70117 49.460938 C 138.32417 50.751157 137.20967 51.886397 136.54297 53.060547 C 134.90837 55.939637 133.30114 59.371168 133.52344 62.767578 C 133.90404 68.582128 141.09716 69.733733 144.44336 65.720703 C 145.93076 63.936703 145.39556 60.607462 146.03906 58.382812 C 147.68836 52.682052 150.69022 48.012245 155.82812 44.921875 C 156.49642 46.216615 156.14258 48.183857 156.14258 49.617188 L 156.14258 60.261719 C 156.14258 61.878339 155.81124 63.830044 156.68164 65.271484 C 159.04084 69.179034 166.41187 69.146021 167.38867 64.019531 C 167.67197 62.532791 167.45703 60.833386 167.45703 59.322266 L 167.45703 49.929688 C 167.45703 48.647758 166.92675 45.748046 167.77148 44.765625 z M 258.43945 44.921875 C 258.43945 49.627195 258.2832 54.310596 258.2832 59.009766 C 258.2832 60.728716 257.99833 63.634534 258.92383 65.115234 C 261.37563 69.037854 267.62854 69.068321 269.64844 64.644531 C 270.40884 62.979281 270.06836 60.792356 270.06836 59.009766 C 270.06836 56.233976 269.91016 53.486891 269.91016 50.712891 C 269.91016 49.005851 270.17451 47.050885 269.75391 45.390625 L 269.91016 45.234375 C 275.51406 47.105325 278.74471 53.899136 280.06641 59.166016 C 280.78481 62.028406 280.09728 65.063506 282.79688 67.035156 C 286.01887 69.388796 291.06135 68.078631 292.62695 64.332031 C 293.54065 62.145551 292.89595 59.854482 292.00195 57.757812 C 291.23705 55.964132 290.31582 54.153827 289.13672 52.591797 C 288.43862 51.666967 287.14166 50.574118 286.88086 49.460938 C 291.58136 50.404488 296.14953 53.234798 299.92383 56.054688 C 310.18293 63.719577 317.74137 74.7328 319.60547 87.5 C 320.50767 93.67894 321.12006 102.05486 316.25586 106.90039 C 312.98246 110.16122 308.41072 109.72656 304.16602 109.72656 L 282.95312 109.72656 C 279.73332 109.72656 276.05868 110.22236 272.89648 109.72656 C 272.85748 108.98997 272.12314 108.45796 271.71484 107.84961 C 270.60694 106.19901 269.47169 104.56198 268.24609 102.99609 C 264.22229 97.855204 259.71052 93.087719 254.51172 89.099609 C 252.50632 87.561219 250.43861 86.128896 248.38281 84.660156 C 247.71501 84.182986 246.42532 83.629829 246.01172 82.912109 C 245.52842 82.073169 246.9196 82.292096 247.2832 82.410156 C 248.1439 82.689666 248.89698 83.210771 249.79688 83.363281 C 252.28907 83.785671 256.85065 82.349475 256.18945 79.046875 C 255.89285 77.565545 254.66466 76.247792 253.56836 75.289062 C 250.02806 72.193112 244.54279 71.555697 240.52539 74.117188 C 239.22275 74.947767 237.95452 75.967799 236.97852 77.167969 C 236.59022 77.645229 236.20504 78.77353 235.49414 78.78125 C 234.66454 78.79025 233.60987 78.210222 232.82617 77.951172 C 231.18587 77.409052 229.48837 76.929179 227.79688 76.574219 C 222.91297 75.549359 218.07479 75.488002 213.18359 74.820312 C 213.80259 73.065703 214.98231 71.253437 215.94531 69.654297 C 220.10001 62.755477 225.64642 57.087874 232.51172 52.839844 C 234.69702 51.487674 237.11174 50.422544 239.58398 49.708984 C 240.36158 49.484544 241.13155 48.992277 241.93945 49.148438 C 239.12121 53.315778 235.61025 57.387468 235.81445 62.767578 C 236.02445 68.299988 242.77344 69.452794 246.33984 66.458984 C 248.63174 64.535104 247.96902 60.796073 248.76172 58.070312 C 250.32862 52.683552 253.30785 47.585495 258.43945 44.921875 z M 294.32617 72.291016 C 293.83949 72.279261 293.34765 72.306554 292.85352 72.378906 C 289.63462 72.850246 286.62556 74.354539 284.66406 77.011719 C 283.18646 79.013499 282.90264 81.274364 285.15234 82.871094 C 286.87484 84.093634 288.91925 84.046906 290.81055 83.316406 C 291.77025 82.945766 292.72822 82.276136 293.79492 82.285156 C 294.74662 82.293156 295.6196 82.982664 296.4668 83.333984 C 297.7584 83.869594 299.15343 84.06643 300.55273 83.875 C 304.20123 83.37581 304.54313 79.670109 302.79883 77.167969 C 300.88643 74.424721 297.73297 72.373297 294.32617 72.291016 z M 134.53516 72.451172 C 134.08782 72.443948 133.64183 72.472586 133.20117 72.537109 C 129.93817 73.014889 127.12374 74.589069 125.21484 77.324219 C 123.75154 79.421039 123.60886 81.627196 125.97266 83.103516 C 127.59476 84.116576 129.65865 83.840293 131.31445 83.070312 C 132.09245 82.708512 133.08403 81.876693 133.98633 81.939453 C 134.81683 81.997253 135.61065 82.730513 136.34375 83.070312 C 137.44725 83.581752 138.75523 83.719052 139.95703 83.544922 C 143.64643 83.010342 144.70517 79.453609 142.67188 76.699219 C 140.85826 74.242306 137.66651 72.501736 134.53516 72.451172 z M 206.26953 86.716797 C 206.80312 88.349506 206.39266 90.507587 206.32227 92.205078 C 206.20247 95.069108 206.37327 97.929827 206.32227 100.80469 C 206.29427 102.41254 205.99551 104.79126 206.69531 106.2832 C 208.72031 110.60084 215.38151 110.47779 217.41211 106.2832 C 218.20271 104.65 217.74219 102.11794 217.74219 100.33594 C 217.74219 95.897698 217.38334 91.280977 217.89844 86.873047 C 219.46254 87.113017 221.05998 88.615036 222.14258 89.691406 C 225.31388 92.844516 227.4102 96.811388 228.5625 101.11719 C 229.2691 103.75764 228.81313 106.27093 231.26562 108.17969 C 235.06412 111.13595 241.96234 108.49116 241.08984 103.15234 C 240.64854 100.45195 239.47118 97.903382 237.95898 95.638672 C 237.33438 94.703102 235.7087 93.364582 235.9707 92.195312 C 239.2592 93.782152 242.68844 95.013057 245.86914 96.841797 C 250.65614 99.594077 255.14696 103.86321 258.34766 108.31836 C 261.41996 112.59496 263.93812 116.86466 265.85742 121.78125 C 268.07702 127.46717 269.19451 133.70688 268.82031 139.7832 C 268.56561 143.91834 267.13115 147.96546 263.46875 150.32031 C 261.25215 151.74557 258.61718 151.67969 256.08398 151.67969 L 245.55469 151.67969 L 202.18555 151.67969 L 173.58594 151.67969 C 169.71274 151.67969 164.44712 152.55012 161.01562 150.44531 C 154.37072 146.3694 154.69963 136.39098 156.11133 129.76367 C 158.91283 116.61192 166.44678 104.52633 177.67188 96.894531 C 180.71248 94.827281 184.12706 93.743642 187.41406 92.195312 C 187.52046 93.210072 186.17941 94.441552 185.66211 95.326172 C 184.35271 97.565172 183.18772 99.787914 182.76562 102.37109 C 181.79573 108.30594 188.32936 111.31202 192.75586 107.77539 C 195.10916 105.89517 194.4548 103.02582 195.3125 100.49219 C 197.09457 95.227307 200.59987 88.65266 206.26953 86.716797 z M 265.19727 98.925781 L 265.35547 99.083984 L 265.19727 98.925781 z M 265.82617 99.708984 L 265.98438 99.865234 L 265.82617 99.708984 z M 185.35352 115.04492 C 184.93251 115.03304 184.51813 115.05624 184.11523 115.11523 C 180.95673 115.5777 178.04908 117.18696 176.26758 119.90234 C 174.94168 121.92336 174.90052 124.35546 177.04492 125.82031 C 178.48042 126.80092 180.46787 126.87052 182.07227 126.25391 C 182.98027 125.90495 184.05259 125.12886 185.05859 125.16211 C 186.95029 125.22461 188.30569 126.62513 190.40039 126.27734 C 194.44879 125.60517 195.48813 122.23122 193.20703 119.11914 C 191.55547 116.86605 188.30056 115.12809 185.35352 115.04492 z M 234.4375 115.16211 C 233.99941 115.16724 233.56655 115.20256 233.14258 115.27148 C 230.30098 115.73343 227.38087 117.59497 225.88477 120.05859 C 224.96527 121.57276 224.72117 123.44817 226.23047 124.68164 C 227.88387 126.03285 229.94267 126.63028 232.04297 126.00391 C 232.93467 125.73798 233.99135 124.84878 234.93555 124.91797 C 236.88175 125.06058 238.22145 126.63424 240.37109 126.27734 C 244.47219 125.59643 244.8602 121.76478 242.6543 118.96289 C 240.79886 116.60625 237.50415 115.12617 234.4375 115.16211 z M 51.369141 198.30469 C 45.654071 198.30469 40.711609 199.7838 36.542969 202.74219 C 32.374329 205.70058 29.181683 209.90348 26.962891 215.34961 C 24.744099 220.79573 23.634766 227.28401 23.634766 234.81445 C 23.634766 242.3449 24.744099 248.83318 26.962891 254.2793 C 29.181683 259.72543 32.374329 263.92833 36.542969 266.88672 C 40.711609 269.84511 45.654071 271.32422 51.369141 271.32422 C 57.151448 271.32422 62.093908 269.84511 66.195312 266.88672 C 70.363952 263.92833 73.556599 259.72543 75.775391 254.2793 C 77.994183 248.83318 79.103516 242.3449 79.103516 234.81445 C 79.103516 227.28401 77.994183 220.79573 75.775391 215.34961 C 73.556599 209.90348 70.363952 205.70058 66.195312 202.74219 C 62.093909 199.7838 57.151448 198.30469 51.369141 198.30469 z M 251.16211 198.34961 L 251.16211 271.36914 L 277.18164 271.36914 C 282.15711 271.36914 286.36002 270.46435 289.78906 268.65625 C 293.2181 266.84816 295.80654 264.41533 297.55469 261.35547 C 299.37004 258.22607 300.27734 254.78262 300.27734 251.02734 C 300.27734 246.43756 299.06697 242.7524 296.64648 239.9707 C 294.226 237.11947 291.33448 235.06817 287.97266 233.81641 L 287.97266 233.08594 C 290.79656 231.90372 293.28398 229.99026 295.43555 227.34766 C 297.58711 224.70506 298.66406 221.26356 298.66406 217.02148 C 298.66406 211.52764 296.78084 207.04157 293.01562 203.56445 C 289.25038 200.08734 283.70375 198.34961 276.375 198.34961 L 251.16211 198.34961 z M 261.85156 208.1543 L 274.86133 208.1543 C 283.4003 208.1543 287.66992 211.59774 287.66992 218.48242 C 287.66992 221.95954 286.59492 224.56613 284.44336 226.30469 C 282.29183 227.9737 279.16587 228.80859 275.06445 228.80859 L 261.85156 228.80859 L 261.85156 208.1543 z M 51.369141 208.39062 C 56.411851 208.39063 60.479404 210.676 63.572266 215.24805 C 66.665128 219.75287 68.212891 226.27547 68.212891 234.81445 C 68.212891 243.35344 66.665128 249.90841 63.572266 254.48047 C 60.479404 258.98529 56.411851 261.23828 51.369141 261.23828 C 46.259196 261.23828 42.157314 258.98529 39.064453 254.48047 C 36.038827 249.90841 34.527344 243.35344 34.527344 234.81445 C 34.527344 226.27547 36.038827 219.75287 39.064453 215.24805 C 42.157314 210.676 46.259196 208.39062 51.369141 208.39062 z M 197.14844 218.74805 L 197.12305 271.36914 L 207.8125 271.36914 L 207.8125 244.74414 C 207.8125 240.03761 209.02286 236.43891 211.44336 233.95117 C 213.9311 231.46343 217.02467 230.2207 220.72266 230.2207 C 224.48788 230.2207 227.24405 231.36241 228.99219 233.64844 C 230.74033 235.93447 231.61523 239.16339 231.61523 243.33203 L 231.61523 271.36914 L 242.30469 271.36914 L 242.30469 242.01953 C 242.30469 234.82526 240.75888 229.37962 237.66602 225.68164 C 234.57316 221.98365 229.96809 220.13477 223.84961 220.13477 C 220.15162 220.13477 216.89033 220.97535 214.06641 222.65625 C 211.24249 224.33715 209.15722 226.38809 207.8125 228.80859 L 207.75391 218.82031 L 197.14844 218.74805 z M 85.826172 218.75977 L 85.90625 292.30078 L 96.595703 292.30078 L 96.595703 264.0625 C 97.805953 265.94511 99.654842 267.62627 102.14258 269.10547 C 104.63032 270.58466 107.72388 271.32422 111.42188 271.32422 C 115.59052 271.32422 119.35499 270.34829 122.7168 268.39844 C 126.0786 266.38136 128.7357 263.42314 130.68555 259.52344 C 132.70263 255.62375 133.71094 250.81663 133.71094 245.10156 C 133.71094 239.31925 132.73501 234.51215 130.78516 230.67969 C 128.90255 226.78 126.34843 223.85415 123.12109 221.9043 C 119.89376 219.88721 116.32938 218.87891 112.42969 218.87891 C 108.66447 218.87891 105.40512 219.75381 102.64844 221.50195 C 99.958995 223.18285 97.940425 225.26617 96.595703 227.75391 L 96.634766 218.84375 L 85.826172 218.75977 z M 165.06445 218.87891 C 160.15621 218.87891 155.81795 219.98824 152.05273 222.20703 C 148.35474 224.42582 145.46323 227.51939 143.37891 231.48633 C 141.36183 235.45326 140.35352 240.05831 140.35352 245.30273 C 140.35352 250.47991 141.39615 255.01827 143.48047 258.91797 C 145.56479 262.81766 148.45632 265.8769 152.1543 268.0957 C 155.85229 270.24725 160.12189 271.32422 164.96289 271.32422 C 170.9469 271.32422 175.85504 269.70975 179.6875 266.48242 C 183.51996 263.18785 186.0417 259.15462 187.25195 254.38086 L 176.46094 254.38086 C 175.58687 256.66689 174.20683 258.48145 172.32422 259.82617 C 170.50885 261.10366 168.02143 261.74219 164.86133 261.74219 C 161.23058 261.74219 158.0703 260.56615 155.38086 258.21289 C 152.69141 255.79239 151.17993 252.26234 150.84375 247.62305 L 188.46094 247.62305 C 188.5282 246.68174 188.5625 245.84116 188.5625 245.10156 L 188.5625 242.88281 C 188.5625 238.51246 187.58851 234.51161 185.63867 230.88086 C 183.75605 227.25011 181.06659 224.35859 177.57031 222.20703 C 174.07403 219.98824 169.90545 218.87891 165.06445 218.87891 z M 330.32617 218.87891 C 324.20768 218.87891 319.13183 220.42666 315.09766 223.51953 C 311.13073 226.54515 308.87773 230.67941 308.33984 235.92383 L 319.0293 235.92383 C 319.70166 233.16715 321.01305 231.18291 322.96289 229.97266 C 324.97998 228.69518 327.43502 228.05664 330.32617 228.05664 C 337.31873 228.05664 340.81445 231.82308 340.81445 239.35352 L 340.81445 240.46289 L 327.90625 240.46289 C 321.31711 240.46289 316.20692 241.84098 312.57617 244.59766 C 309.01266 247.35434 307.23047 251.18551 307.23047 256.09375 C 307.23047 258.85043 307.90333 261.4065 309.24805 263.75977 C 310.59278 266.04579 312.60938 267.89468 315.29883 269.30664 C 317.98827 270.65136 321.31627 271.32422 325.2832 271.32422 C 329.72078 271.32422 333.04879 270.48364 335.26758 268.80273 C 337.48637 267.12183 339.33526 265.10522 340.81445 262.75195 L 340.79297 271.22852 L 351.54492 271.25586 L 351.50586 239.35352 C 351.50586 232.96609 349.8247 227.95692 346.46289 224.32617 C 343.10108 220.69542 337.72214 218.87891 330.32617 218.87891 z M 385.07617 218.87891 C 380.23517 218.87891 375.9332 219.95586 372.16797 222.10742 C 368.40275 224.25897 365.44452 227.31823 363.29297 231.28516 C 361.14141 235.18485 360.06445 239.78991 360.06445 245.10156 C 360.06445 250.41322 361.14141 255.0526 363.29297 259.01953 C 365.44452 262.91922 368.40275 265.94414 372.16797 268.0957 C 375.9332 270.24725 380.20279 271.32422 384.97656 271.32422 C 389.81756 271.32422 394.08717 270.24725 397.78516 268.0957 C 401.55038 265.94414 404.5086 262.91922 406.66016 259.01953 C 408.81171 255.0526 409.88672 250.41322 409.88672 245.10156 C 409.88672 239.78991 408.81171 235.18485 406.66016 231.28516 C 404.57584 227.31823 401.64999 224.25897 397.88477 222.10742 C 394.18679 219.95586 389.91717 218.87891 385.07617 218.87891 z M 164.96289 228.1582 C 168.59364 228.1582 171.58619 229.20084 173.93945 231.28516 C 176.29271 233.36948 177.60215 236.09132 177.87109 239.45312 L 151.24609 239.45312 C 151.98568 235.8896 153.63253 233.13344 156.1875 231.18359 C 158.74248 229.16651 161.66832 228.1582 164.96289 228.1582 z M 109.60547 229.06641 C 113.37069 229.06641 116.49859 230.37779 118.98633 233 C 121.5413 235.62221 122.81836 239.62111 122.81836 245 C 122.81836 250.37889 121.5413 254.41407 118.98633 257.10352 C 116.49859 259.79296 113.37069 261.13672 109.60547 261.13672 C 105.77301 261.13672 102.58037 259.79296 100.02539 257.10352 C 97.537658 254.41407 96.292969 250.41322 96.292969 245.10156 C 96.292969 239.72267 97.537658 235.72182 100.02539 233.09961 C 102.58037 230.41017 105.77301 229.06641 109.60547 229.06641 z M 385.07617 229.06641 C 387.63114 229.06641 389.95084 229.63823 392.03516 230.78125 C 394.18672 231.92426 395.90221 233.67213 397.17969 236.02539 C 398.52442 238.37866 399.19727 241.40357 399.19727 245.10156 C 399.19727 248.73231 398.52442 251.75723 397.17969 254.17773 C 395.90221 256.53099 394.18672 258.28081 392.03516 259.42383 C 389.8836 260.56684 387.53153 261.13672 384.97656 261.13672 C 381.1441 261.13672 377.81611 259.85966 374.99219 257.30469 C 372.23551 254.68248 370.85742 250.61492 370.85742 245.10156 C 370.85742 241.40357 371.49595 238.37866 372.77344 236.02539 C 374.11816 233.67213 375.86602 231.92426 378.01758 230.78125 C 380.16913 229.63823 382.5212 229.06641 385.07617 229.06641 z M 261.85156 238.19727 L 275.56836 238.19727 C 279.80424 238.19727 283.16656 239.20593 285.6543 241.22266 C 288.14203 243.16984 289.38477 245.98614 289.38477 249.67188 C 289.38477 253.42715 288.20871 256.27742 285.85547 258.22461 C 283.5022 260.17179 280.13988 261.14648 275.76953 261.14648 L 261.85156 261.14648 L 261.85156 238.19727 z M 329.01562 248.22852 L 340.71289 248.22852 C 340.51118 252.32992 339.30277 255.72462 337.08398 258.41406 C 334.93242 261.03627 331.67113 262.34766 327.30078 262.34766 C 324.61134 262.34766 322.45936 261.74345 320.8457 260.5332 C 319.29927 259.25572 318.52539 257.50591 318.52539 255.28711 C 318.52539 253.06832 319.29927 251.35478 320.8457 250.14453 C 322.45936 248.86704 325.18316 248.22852 329.01562 248.22852 z " /></svg>
