<?xml version="1.0" encoding="UTF-8" standalone="no"?>
<!-- Created with Inkscape (http://www.inkscape.org/) -->

<svg
   version="1.1"
   id="svg1"
   width="433.52164"
   height="324.79834"
   viewBox="0 0 433.52165 324.79835"
   sodipodi:docname="openbao-vertical-text-black.svg"
   inkscape:export-filename="openbao-logo-font.png"
   inkscape:export-xdpi="96"
   inkscape:export-ydpi="96"
   inkscape:version="1.4 (e7c3feb100, 2024-10-09)"
   xml:space="preserve"
   xmlns:inkscape="http://www.inkscape.org/namespaces/inkscape"
   xmlns:sodipodi="http://sodipodi.sourceforge.net/DTD/sodipodi-0.dtd"
   xmlns="http://www.w3.org/2000/svg"
   xmlns:svg="http://www.w3.org/2000/svg"><sodipodi:namedview
     id="namedview1"
     pagecolor="#ffffff"
     bordercolor="#000000"
     borderopacity="0.25"
     inkscape:showpageshadow="2"
     inkscape:pageopacity="0.0"
     inkscape:pagecheckerboard="0"
     inkscape:deskcolor="#d1d1d1"
     showguides="false"
     inkscape:zoom="1.4239427"
     inkscape:cx="261.59761"
     inkscape:cy="103.58563"
     inkscape:window-width="3840"
     inkscape:window-height="2085"
     inkscape:window-x="0"
     inkscape:window-y="0"
     inkscape:window-maximized="1"
     inkscape:current-layer="g1"><sodipodi:guide
       position="322.37179,1259.6835"
       orientation="0,-1"
       id="guide5"
       inkscape:locked="false" /><sodipodi:guide
       position="432.55569,1080.7535"
       orientation="0,-1"
       id="guide6"
       inkscape:locked="false" /><sodipodi:guide
       position="802.12339,1120.5965"
       orientation="0,-1"
       id="guide7"
       inkscape:locked="false" /><sodipodi:guide
       position="588.24019,1220.7676"
       orientation="0,-1"
       id="guide8"
       inkscape:locked="false" /><sodipodi:guide
       position="746.88939,1226.3885"
       orientation="1,0"
       id="guide9"
       inkscape:locked="false" /><sodipodi:guide
       position="763.80409,1293.6696"
       orientation="1,0"
       id="guide10"
       inkscape:locked="false" /><sodipodi:guide
       position="855.09979,1197.0125"
       orientation="1,0"
       id="guide11"
       inkscape:locked="false" /><sodipodi:guide
       position="872.66409,1209.7614"
       orientation="1,0"
       id="guide12"
       inkscape:locked="false" /><sodipodi:guide
       position="954.82541,1201.66"
       orientation="1,0"
       id="guide13"
       inkscape:locked="false" /><sodipodi:guide
       position="971.25091,1199.855"
       orientation="1,0"
       id="guide14"
       inkscape:locked="false" /><sodipodi:guide
       position="660.79089,1198.5915"
       orientation="1,0"
       id="guide15"
       inkscape:locked="false" /><sodipodi:guide
       position="644.72639,1206.353"
       orientation="1,0"
       id="guide16"
       inkscape:locked="false" /><sodipodi:guide
       position="540.39739,1195.884"
       orientation="1,0"
       id="guide17"
       inkscape:locked="false" /><sodipodi:guide
       position="552.85189,1204.0065"
       orientation="1,0"
       id="guide18"
       inkscape:locked="false" /><sodipodi:guide
       position="436.19149,1205.6796"
       orientation="1,0"
       id="guide19"
       inkscape:locked="false" /><sodipodi:guide
       position="449.12309,1192.8506"
       orientation="1,0"
       id="guide20"
       inkscape:locked="false" /><sodipodi:guide
       position="317.38609,1222.0665"
       orientation="1,0"
       id="guide21"
       inkscape:locked="false" /><sodipodi:guide
       position="330.51209,1184.0807"
       orientation="1,0"
       id="guide22"
       inkscape:locked="false" /><sodipodi:guide
       position="-68.877434,1167.7939"
       orientation="1,0"
       id="guide23"
       inkscape:locked="false" /><sodipodi:guide
       position="-81.667624,1166.542"
       orientation="1,0"
       id="guide24"
       inkscape:locked="false" /><sodipodi:guide
       position="1065.9032,1221.782"
       orientation="1,0"
       id="guide25"
       inkscape:locked="false" /><sodipodi:guide
       position="1078.0806,1218.5669"
       orientation="1,0"
       id="guide26"
       inkscape:locked="false" /><sodipodi:guide
       position="211.86967,139.77659"
       orientation="0,-1"
       id="guide2"
       inkscape:locked="false" /><sodipodi:guide
       position="517.18797,239.63604"
       orientation="0,-1"
       id="guide3"
       inkscape:locked="false" /><sodipodi:guide
       position="469.63257,143.68917"
       orientation="1,0"
       id="guide4"
       inkscape:locked="false" /><sodipodi:guide
       position="681.13945,267.28602"
       orientation="1,0"
       id="guide27"
       inkscape:locked="false" /><sodipodi:guide
       position="934.42061,198.12235"
       orientation="1,0"
       id="guide28"
       inkscape:locked="false" /><sodipodi:guide
       position="636.74634,278.86133"
       orientation="0,-1"
       id="guide29"
       inkscape:locked="false" /><sodipodi:guide
       position="238.38687,99.875342"
       orientation="0,-1"
       id="guide33"
       inkscape:locked="false" /><sodipodi:guide
       position="291.13297,259.90336"
       orientation="0,-1"
       id="guide34"
       inkscape:locked="false" /><sodipodi:guide
       position="8.1351235,121.55879"
       orientation="0,-1"
       id="guide35"
       inkscape:locked="false" /></sodipodi:namedview><defs
     id="defs1"><rect
       x="1024.6833"
       y="455.57123"
       width="1489.3013"
       height="312.16077"
       id="rect1" /><clipPath
       clipPathUnits="userSpaceOnUse"
       id="clipPath9013"><rect
         style="opacity:0.2;fill:#7ac2ad;fill-rule:evenodd;stroke-width:1.00345"
         id="rect9013"
         width="2570.3655"
         height="1200.0398"
         x="83.109909"
         y="117.27092" /></clipPath></defs><g
     id="g29"
     inkscape:export-filename="openbao-logo-font.svg"
     inkscape:export-xdpi="96"
     inkscape:export-ydpi="96"
     inkscape:groupmode="layer"
     transform="translate(-761.9101,-447.54907)"
     inkscape:label="g29"><rect
       style="opacity:0;fill:#ffffff;fill-opacity:1;fill-rule:evenodd;stroke-width:0.792261"
       id="rect29"
       width="433.52164"
       height="324.79834"
       x="761.9101"
       y="447.54907" /><g
       id="g1"
       transform="translate(1.4177237,-0.69749889)"><g
         id="g2"
         transform="matrix(0.52528223,0,0,0.52528223,210.24485,403.97256)"><path
           d="m 1145.3211,600.81549 c -10.88,0 -20.288,-2.816 -28.224,-8.448 -7.936,-5.632 -14.016,-13.632 -18.24,-24 -4.224,-10.368 -6.336,-22.72 -6.336,-37.056 0,-14.336 2.112,-26.688 6.336,-37.056 4.224,-10.368 10.304,-18.368 18.24,-24 7.936,-5.632 17.344,-8.448 28.224,-8.448 11.008,0 20.416,2.816 28.224,8.448 7.936,5.632 14.016,13.632 18.24,24 4.224,10.368 6.336,22.72 6.336,37.056 0,14.336 -2.112,26.688 -6.336,37.056 -4.224,10.368 -10.304,18.368 -18.24,24 -7.808,5.632 -17.216,8.448 -28.224,8.448 z m 0,-19.2 c 9.6,0 17.344,-4.288 23.232,-12.864 5.888,-8.704 8.832,-21.184 8.832,-37.44 0,-16.256 -2.944,-28.672 -8.832,-37.248 -5.888,-8.704 -13.632,-13.056 -23.232,-13.056 -9.728,0 -17.536,4.352 -23.424,13.056 -5.76,8.576 -8.64,20.992 -8.64,37.248 0,16.256 2.88,28.736 8.64,37.44 5.888,8.576 13.696,12.864 23.424,12.864 z m 65.748,59.136 -0.152,-140.00567 20.5794,0.16167 -0.075,16.964 c 2.56,-4.736 6.4,-8.704 11.52,-11.904 5.248,-3.328 11.456,-4.992 18.624,-4.992 7.424,0 14.208,1.92 20.352,5.76 6.144,3.712 11.008,9.28 14.592,16.704 3.712,7.296 5.568,16.448 5.568,27.456 0,10.88 -1.92,20.032 -5.76,27.456 -3.712,7.424 -8.768,13.056 -15.168,16.896 -6.4,3.712 -13.568,5.568 -21.504,5.568 -7.04,0 -12.928,-1.408 -17.664,-4.224 -4.736,-2.816 -8.256,-6.016 -10.56,-9.6 v 53.76 z m 45.12,-59.328 c 7.168,0 13.12,-2.56 17.856,-7.68 4.864,-5.12 7.296,-12.8 7.296,-23.04 0,-10.24 -2.432,-17.856 -7.296,-22.848 -4.736,-4.992 -10.688,-7.488 -17.856,-7.488 -7.296,0 -13.376,2.56 -18.24,7.68 -4.736,4.992 -7.104,12.608 -7.104,22.848 0,10.112 2.368,17.728 7.104,22.848 4.864,5.12 10.944,7.68 18.24,7.68 z m 105.3841,19.392 c -9.216,0 -17.344,-2.048 -24.384,-6.144 -7.04,-4.224 -12.544,-10.048 -16.512,-17.472 -3.968,-7.424 -5.952,-16.064 -5.952,-25.92 0,-9.984 1.92,-18.752 5.76,-26.304 3.968,-7.552 9.472,-13.44 16.512,-17.664 7.168,-4.224 15.424,-6.336 24.768,-6.336 9.216,0 17.152,2.112 23.808,6.336 6.656,4.096 11.776,9.6 15.36,16.512 3.712,6.912 5.568,14.528 5.568,22.848 v 4.224 c 0,1.408 -0.064,3.008 -0.192,4.8 h -71.616 c 0.64,8.832 3.52,15.552 8.64,20.16 5.12,4.48 11.136,6.72 18.048,6.72 6.016,0 10.752,-1.216 14.208,-3.648 3.584,-2.56 6.208,-6.016 7.872,-10.368 h 20.544 c -2.304,9.088 -7.104,16.768 -14.4,23.04 -7.296,6.144 -16.64,9.216 -28.032,9.216 z m 0,-82.176 c -6.272,0 -11.84,1.92 -16.704,5.76 -4.864,3.712 -8,8.96 -9.408,15.744 h 50.688 c -0.512,-6.4 -3.008,-11.584 -7.488,-15.552 -4.48,-3.968 -10.176,-5.952 -17.088,-5.952 z m 61.2241,82.262 0.048,-100.17736 20.1895,0.14009 0.1148,19.01327 c 2.56,-4.608 6.528,-8.512 11.904,-11.712 5.376,-3.2 11.584,-4.8 18.624,-4.8 11.648,0 20.416,3.52 26.304,10.56 5.888,7.04 8.832,17.408 8.832,31.104 v 55.872 h -20.352 v -53.376 c 0,-7.936 -1.664,-14.08 -4.992,-18.432 -3.328,-4.352 -8.576,-6.528 -15.744,-6.528 -7.04,0 -12.928,2.368 -17.664,7.104 -4.608,4.736 -6.912,11.584 -6.912,20.544 v 50.688 z m 243.9841,-0.086 c -7.552,0 -13.888,-1.28 -19.008,-3.84 -5.12,-2.688 -8.96,-6.208 -11.52,-10.56 -2.56,-4.48 -3.84,-9.344 -3.84,-14.592 0,-9.344 3.392,-16.64 10.176,-21.888 6.912,-5.248 16.64,-7.872 29.184,-7.872 h 24.576 v -2.112 c 0,-14.336 -6.656,-21.504 -19.968,-21.504 -5.504,0 -10.176,1.216 -14.016,3.648 -3.712,2.304 -6.208,6.08 -7.488,11.328 h -20.352 c 1.024,-9.984 5.312,-17.856 12.864,-23.616 7.68,-5.888 17.344,-8.832 28.992,-8.832 14.08,0 24.32,3.456 30.72,10.368 6.4,6.912 9.6,16.448 9.6,28.608 l 0.076,60.73576 -20.4698,-0.0546 0.042,-16.13711 c -2.816,4.48 -6.336,8.32 -10.56,11.52 -4.224,3.2 -10.56,4.8 -19.008,4.8 z m 3.84,-17.088 c 8.32,0 14.528,-2.496 18.624,-7.488 4.224,-5.12 6.528,-11.584 6.912,-19.392 h -22.272 c -7.296,0 -12.48,1.216 -15.552,3.648 -2.944,2.304 -4.416,5.568 -4.416,9.792 0,4.224 1.472,7.552 4.416,9.984 3.072,2.304 7.168,3.456 12.288,3.456 z m 109.8001,17.088 c -9.088,0 -17.216,-2.048 -24.384,-6.144 -7.168,-4.096 -12.8,-9.856 -16.896,-17.28 -4.096,-7.552 -6.144,-16.384 -6.144,-26.496 0,-10.112 2.048,-18.88 6.144,-26.304 4.096,-7.552 9.728,-13.376 16.896,-17.472 7.168,-4.096 15.36,-6.144 24.576,-6.144 9.216,0 17.344,2.048 24.384,6.144 7.168,4.096 12.736,9.92 16.704,17.472 4.096,7.424 6.144,16.192 6.144,26.304 0,10.112 -2.048,18.944 -6.144,26.496 -4.096,7.424 -9.728,13.184 -16.896,17.28 -7.04,4.096 -15.168,6.144 -24.384,6.144 z m 0,-19.392 c 4.864,0 9.344,-1.088 13.44,-3.264 4.096,-2.176 7.36,-5.504 9.792,-9.984 2.56,-4.608 3.84,-10.368 3.84,-17.28 0,-7.04 -1.28,-12.8 -3.84,-17.28 -2.432,-4.48 -5.696,-7.808 -9.792,-9.984 -3.968,-2.176 -8.384,-3.264 -13.248,-3.264 -4.864,0 -9.344,1.088 -13.44,3.264 -4.096,2.176 -7.424,5.504 -9.984,9.984 -2.432,4.48 -3.648,10.24 -3.648,17.28 0,10.496 2.624,18.24 7.872,23.232 5.376,4.864 11.712,7.296 19.008,7.296 z"
           id="text2"
           style="font-weight:500;font-size:192px;font-family:'DM Mono';-inkscape-font-specification:'DM Mono Medium';letter-spacing:0px;fill-rule:evenodd"
           inkscape:label="text2"
           aria-label="Open ao"
           sodipodi:nodetypes="ssssssscssscsscscscscscccccsccsccsscccscscscscsscssccsccsscccsccccsscccssccccssssccssscsccsccscscssccccssscccsssscscscssscscssccsccssscsccsscscss" /><path
           d="m 1551.616,590.85443 v -136.6855 h 48.8162 q 21.2839,0 32.2188,9.76325 10.9348,9.76325 10.9348,25.18919 0,11.91116 -6.2485,19.33123 -6.2485,7.42007 -14.4496,10.73958 v 1.36685 q 9.7633,3.51477 16.7928,11.52064 7.0295,7.8106 7.0295,20.69809 0,10.54431 -5.2721,19.33123 -5.0769,8.59166 -15.0354,13.66855 -9.9585,5.07689 -24.4081,5.07689 z m 20.6981,-79.66812 h 25.5797 q 11.9112,0 18.1596,-4.68636 6.2485,-4.88162 6.2485,-14.64487 0,-19.33124 -24.7986,-19.33124 h -25.1892 z m 0,60.53215 h 26.9466 q 12.6922,0 19.5265,-5.46742 6.8342,-5.46742 6.8342,-16.01173 0,-10.34904 -7.2248,-15.81646 -7.2248,-5.66269 -19.5265,-5.66269 h -26.556 z"
           id="text8"
           style="font-weight:500;font-size:195.265px;font-family:'DM Mono';-inkscape-font-specification:'DM Mono Medium';letter-spacing:0px;fill-rule:evenodd;stroke-width:1.017"
           transform="scale(0.98328001,1.0170043)"
           aria-label="B" /></g><path
         style="fill:#010101;stroke:none;stroke-width:0.117628"
         d="m 918.04916,481.17947 c -5.3668,0.77549 -10.6307,1.3032 -15.8709,2.86404 -15.6439,4.65956 -30.0659,15.08874 -38.2769,29.31792 -2.8404,4.92219 -5.276,10.06912 -6.9767,15.49708 -0.5291,1.68904 -1.0358,3.42315 -1.3516,5.1657 -0.161,0.88818 -0.1806,2.2204 -0.7653,2.95027 -1.0185,1.27138 -3.9643,1.97647 -5.4279,2.72344 -3.5317,1.80254 -7.0252,4.0165 -10.0567,6.57743 -8.2014,6.92804 -14.6559,16.80945 -11.0433,27.82212 0.8375,2.55312 2.2981,5.01836 3.844,7.20067 2.0828,2.94042 4.7057,5.36656 7.5135,7.60361 8.5092,6.77931 18.8418,11.02038 29.0705,14.468 10.4266,3.51429 21.0581,6.41103 31.899,8.36092 47.9466,8.62391 97.2553,10.08735 145.35244,1.43636 22.9185,-4.12224 46.239,-9.62193 65.8407,-22.73761 7.0629,-4.72587 14.5004,-12.13677 15.3784,-21.02803 0.3612,-3.65684 -0.6256,-7.47306 -2.0871,-10.801 -3.8774,-8.82852 -13.276,-15.21698 -21.6196,-19.37281 -2.6559,-1.32288 -5.3815,-2.51581 -8.1711,-3.53221 -0.9284,-0.33823 -2.9087,-0.72788 -3.4956,-1.53927 -0.9199,-1.27158 -1.0636,-3.78527 -1.535,-5.29759 -1.1222,-3.59952 -2.4276,-7.1107 -4.1227,-10.48792 -6.1601,-12.27294 -16.3041,-22.56111 -28.4026,-29.0708 -19.5422,-10.51479 -43.6296,-10.68136 -63.64094,-1.47551 -5.7766,2.65744 -11.4372,6.43233 -16.028,10.82564 -1.3437,1.2859 -2.6606,2.55874 -3.9379,3.91051 -0.3086,0.32652 -0.9768,1.24833 -1.4972,1.17112 -0.428,-0.0635 -0.8789,-0.72955 -1.1647,-1.01458 l -2.6713,-2.66112 c -2.9187,-2.90742 -6.117,-5.48482 -9.5854,-7.72028 -8.8366,-5.69528 -19.0806,-9.40855 -29.5419,-10.61475 -3.7464,-0.43196 -7.8569,-1.08631 -11.6282,-0.54135 m 10.2139,11.83225 c 1.1417,0.966 2.4844,1.6873 3.6142,2.68286 2.6598,2.34384 4.5961,5.47437 5.9043,8.74428 0.5862,1.46533 1.2292,3.12878 1.4405,4.69609 0.3052,2.26509 -0.1143,4.01011 1.7721,5.77082 3.9469,3.68394 10.4226,0.6206 9.8757,-4.8316 -0.3153,-3.14267 -1.7799,-6.28718 -3.4425,-8.92257 -0.6263,-0.99265 -2.61,-2.80888 -2.5077,-3.9134 6.396,2.81398 12.4228,5.80268 17.4423,10.801 1.2362,1.231 3.5578,2.85283 4.1431,4.53955 0.3978,1.14638 -1.8176,3.9557 -2.3884,5.00916 -0.8667,1.59977 -1.6607,3.22755 -2.4763,4.85261 -0.3208,0.63898 -0.5864,1.52095 -1.1859,1.96033 -0.7146,0.52373 -2.3945,0.56175 -3.2781,0.74138 -2.2739,0.46234 -4.4908,1.18511 -6.7569,1.68131 -3.208,-5.34685 -9.437,-7.82457 -15.0851,-4.49462 -2.8327,1.67002 -6.6824,6.14285 -2.5143,8.63486 2.2163,1.32502 3.8788,-0.28004 5.9712,0.0862 -0.7307,1.06639 -1.9238,1.65351 -2.9856,2.34804 -1.9301,1.26256 -3.821,2.49328 -5.6569,3.89384 -4.6027,3.51134 -8.5103,7.81795 -12.216,12.22939 -1.5843,1.88602 -3.0835,4.00822 -4.373,6.10491 -0.4235,0.68865 -0.841,2.12935 -1.6426,2.42995 -1.8292,0.68592 -4.803,0.0183 -6.7533,0.0775 -5.5335,0.16799 -11.1132,-0.003 -16.6566,-0.003 -7.3253,0 -16.8224,1.96801 -21.3031,-5.32223 -2.8497,-4.63654 -2.2404,-10.09055 -1.3626,-15.18402 2.2099,-12.82235 9.3366,-24.68247 19.5229,-32.77839 3.5873,-2.85114 9.0762,-6.80433 13.8282,-7.13834 -0.377,1.29022 -1.4904,2.42618 -2.1571,3.60033 -1.6346,2.87909 -3.2413,6.30883 -3.019,9.70524 0.3806,5.81455 7.5727,6.9662 10.9189,2.95317 1.4874,-1.784 0.9525,-5.11153 1.596,-7.33618 1.6493,-5.70076 4.6513,-10.37174 9.7892,-13.46211 0.6683,1.29474 0.3143,3.26275 0.3143,4.69608 v 10.64446 c 0,1.61662 -0.3306,3.56772 0.5398,5.00916 2.3592,3.90755 9.7296,3.8742 10.7064,-1.25229 0.2833,-1.48674 0.068,-3.18496 0.068,-4.69608 v -9.39218 c 0,-1.28206 -0.5308,-4.18356 0.3143,-5.16569 m 90.66844,0.15654 c 0,4.70532 -0.1571,9.38908 -0.1571,14.08825 0,1.71895 -0.2838,4.62422 0.6417,6.10492 2.4518,3.92262 8.7047,3.95418 10.7246,-0.46961 0.7604,-1.66525 0.4191,-3.85272 0.4191,-5.63531 0,-2.77579 -0.1572,-5.52242 -0.1572,-8.29642 0,-1.70704 0.2635,-3.66197 -0.1571,-5.32223 l 0.1571,-0.15654 c 5.6039,1.87095 8.834,8.66485 10.1557,13.93173 0.7184,2.86239 0.03,5.89792 2.7296,7.86957 3.222,2.35364 8.2664,1.04273 9.832,-2.70387 0.9137,-2.18648 0.2684,-4.47786 -0.6256,-6.57453 -0.7649,-1.79368 -1.6865,-3.60366 -2.8656,-5.16569 -0.6981,-0.92483 -1.9944,-2.01754 -2.2552,-3.13072 4.7005,0.94355 9.2681,3.77347 13.0424,6.59336 10.2591,7.66489 17.8181,18.67773 19.6822,31.44493 0.9022,6.17894 1.5149,14.55554 -3.3493,19.40107 -3.2734,3.26083 -7.8455,2.82707 -12.0902,2.82707 h -21.2136 c -3.2198,0 -6.8946,0.4958 -10.0568,0 -0.039,-0.73659 -0.7731,-1.27008 -1.1814,-1.87843 -1.1079,-1.6506 -2.2423,-3.28673 -3.4679,-4.85262 -4.0238,-5.14089 -8.537,-9.90956 -13.7358,-13.89767 -2.0054,-1.53839 -4.0726,-2.97007 -6.1284,-4.43881 -0.6678,-0.47717 -1.9573,-1.02954 -2.3709,-1.74726 -0.4833,-0.83894 0.9074,-0.62028 1.271,-0.50222 0.8607,0.27951 1.6143,0.80119 2.5142,0.9537 2.4922,0.42239 7.0536,-1.01518 6.3924,-4.31778 -0.2966,-1.48133 -1.5255,-2.79814 -2.6218,-3.75687 -3.5403,-3.09595 -9.0244,-3.73479 -13.0418,-1.1733 -1.30264,0.83058 -2.57044,1.85157 -3.54644,3.05174 -0.3883,0.47726 -0.774,1.60619 -1.4849,1.61391 -0.8296,0.009 -1.8847,-0.57219 -2.6684,-0.83124 -1.6403,-0.54212 -3.3369,-1.02197 -5.0284,-1.37693 -4.8839,-1.02486 -9.7226,-1.0861 -14.6138,-1.75379 0.619,-1.75461 1.7985,-3.56655 2.7615,-5.16569 4.1547,-6.89882 9.7011,-12.56585 16.5664,-16.81388 2.1853,-1.35217 4.599,-2.41716 7.07124,-3.13072 0.7776,-0.22444 1.5492,-0.71781 2.3571,-0.56165 -2.81824,4.16734 -6.32974,8.23854 -6.12554,13.61865 0.21,5.53241 6.95894,6.68545 10.52534,3.69164 2.2919,-1.92388 1.6291,-5.66197 2.4218,-8.38773 1.5669,-5.38676 4.5462,-10.48541 9.6778,-13.14903 m 34.4132,27.45833 c -3.2189,0.47134 -6.2264,1.97441 -8.1879,4.63159 -1.4776,2.00178 -1.7615,4.26323 0.4882,5.85996 1.7225,1.22254 3.7656,1.17546 5.6569,0.44496 0.9597,-0.37064 1.9189,-1.03954 2.9856,-1.03052 0.9517,0.008 1.8242,0.69733 2.6714,1.04865 1.2916,0.53561 2.6863,0.73206 4.0856,0.54063 3.6485,-0.49919 3.99,-4.205 2.2457,-6.70714 -2.1856,-3.13514 -5.9924,-5.36695 -9.9455,-4.78813 m -159.65194,0.15654 c -3.263,0.47778 -6.0761,2.05297 -7.985,4.78812 -1.4633,2.09682 -1.6072,4.3032 0.7566,5.77952 1.6221,1.01306 3.6869,0.73668 5.3427,-0.0333 0.778,-0.3618 1.7691,-1.19475 2.6714,-1.13199 0.8305,0.0578 1.6239,0.79219 2.357,1.13199 1.1035,0.51144 2.4124,0.64809 3.6142,0.47396 3.6894,-0.53458 4.7475,-4.09189 2.7142,-6.84628 -2.0727,-2.8079 -5.9458,-4.67817 -9.4711,-4.16198 m 73.069,14.18029 c 0.5338,1.63276 0.1234,3.79055 0.053,5.48819 -0.1198,2.86403 0.051,5.72522 0,8.60008 -0.028,1.60785 -0.328,3.98682 0.3718,5.47876 2.025,4.31764 8.6875,4.19459 10.7181,0 0.7906,-1.6332 0.3295,-4.16638 0.3295,-5.94838 0,-4.43824 -0.3579,-9.05418 0.1572,-13.46211 1.5641,0.23997 3.1601,1.74128 4.2427,2.81765 3.1713,3.15311 5.2678,7.12134 6.4201,11.42714 0.7066,2.64045 0.2508,5.15204 2.7033,7.0608 3.7985,2.95626 10.69734,0.313 9.82484,-5.02582 -0.4413,-2.70039 -1.61904,-5.24903 -3.13124,-7.51374 -0.6246,-0.93557 -2.2509,-2.27453 -1.9889,-3.4438 3.2885,1.58684 6.71904,2.81661 9.89974,4.64535 4.787,2.75228 9.278,7.02273 12.4787,11.47788 3.0723,4.2766 5.589,8.54553 7.5083,13.46212 2.2196,5.68592 3.338,11.92533 2.9638,18.00165 -0.2547,4.13514 -1.689,8.18309 -5.3514,10.53794 -2.2166,1.42526 -4.8523,1.35882 -7.3855,1.35882 h -10.5282 -43.37004 -28.5991 c -3.8732,0 -9.1395,0.86991 -12.571,-1.2349 -6.6449,-4.07591 -6.315,-14.05286 -4.9033,-20.68017 2.8015,-13.15175 10.3348,-25.23862 21.5599,-32.87042 3.0406,-2.06725 6.4556,-3.14994 9.7426,-4.69827 0.1064,1.01476 -1.2353,2.24611 -1.7526,3.13073 -1.3094,2.239 -2.474,4.46095 -2.8961,7.04413 -0.9699,5.93485 5.5641,8.94147 9.9906,5.40484 2.3533,-1.88022 1.698,-4.74965 2.5557,-7.28328 1.7822,-5.26527 5.2885,-11.83987 10.9589,-13.77519 m 58.92664,12.20983 0.1571,0.15653 -0.1571,-0.15653 m 0.6286,0.78268 0.1571,0.15654 -0.1571,-0.15654 m 6.9141,9.39217 -0.1572,0.15654 0.1572,-0.15654 m -88.62534,6.01288 c -3.1585,0.46247 -6.0652,2.07274 -7.8467,4.78812 -1.3259,2.02102 -1.3689,4.45381 0.7755,5.91866 1.4355,0.98061 3.424,1.04854 5.0284,0.43193 0.908,-0.34896 1.9796,-1.12466 2.9856,-1.09141 1.8917,0.0625 3.248,1.46312 5.3427,1.11533 4.0484,-0.67217 5.0871,-4.04511 2.806,-7.15719 -1.8875,-2.57496 -5.8683,-4.47739 -9.0915,-4.00544 m 49.027,0.15725 c -2.8416,0.46195 -5.7621,2.32379 -7.2582,4.78741 -0.9195,1.51417 -1.1623,3.38869 0.347,4.62216 1.6534,1.35121 3.7109,1.94968 5.8112,1.32331 0.8917,-0.26593 1.949,-1.1548 2.8932,-1.08561 1.9462,0.14261 3.2855,1.71501 5.43514,1.35811 4.1011,-0.68091 4.4888,-4.51184 2.2829,-7.31373 -2.1205,-2.6933 -6.11944,-4.24304 -9.51124,-3.69165 z"
         id="path1" /></g></g></svg>
