<?xml version="1.0" encoding="UTF-8" standalone="no"?>
<!-- Created with Inkscape (http://www.inkscape.org/) -->

<svg
   version="1.1"
   id="svg1"
   width="1100"
   height="1100"
   viewBox="0 0 1100 1100"
   xml:space="preserve"
   xmlns="http://www.w3.org/2000/svg"
   xmlns:svg="http://www.w3.org/2000/svg"><defs
     id="defs1"><clipPath
       clipPathUnits="userSpaceOnUse"
       id="clipPath23"><g
         id="use23"
         style="stroke-width:1.52068"><path
           style="display:inline;opacity:1;fill:#87d6be;fill-opacity:1;stroke:none;stroke-width:144.464;stroke-linecap:round;stroke-linejoin:round;stroke-miterlimit:0;stroke-opacity:1"
           id="path6"
           d="M 2479.5983,735.4187 A 1207.5515,346.58099 0 0 1 1272.0468,1081.9997 1207.5515,346.58099 0 0 1 64.495239,735.4187 1207.5515,346.58099 0 0 1 1272.0468,388.83771 1207.5515,346.58099 0 0 1 2479.5983,735.4187 Z" /></g></clipPath></defs><path
     id="path1"
     style="display:inline;opacity:1;fill:#000000;fill-opacity:1;stroke:none;stroke-width:94.9998;stroke-linecap:round;stroke-linejoin:round;stroke-miterlimit:0;stroke-opacity:1"
     d="m 549.87893,256.39649 c -4.2802,0.006 -8.43677,0.32216 -12.53323,0.77539 -133.06468,4.02345 -260.91613,70.56507 -328.19922,192.47656 -22.65137,41.04245 -36.04477,84.73829 -40.17969,126.52343 -68.72068,30.38547 -106.141305,68.08599 -106.140622,106.93556 -5.52e-4,45.51466 51.326562,89.16581 142.689452,121.34963 91.36289,32.18376 215.27752,50.26373 344.48438,50.26367 129.20686,6e-5 253.12153,-18.07991 344.48439,-50.26367 91.36293,-32.18382 142.68991,-75.83497 142.68941,-121.34963 7e-4,-38.84958 -37.41985,-76.55009 -106.14062,-106.93556 v 0 C 926.89831,534.38673 913.50487,490.69089 890.85351,449.64844 823.57045,327.73693 695.71891,261.19533 562.65429,257.17188 c -4.09699,-0.45326 -8.25244,-0.76957 -12.53323,-0.77539 -0.0401,-7e-5 -0.0807,-7e-5 -0.12106,0 -0.0401,-7e-5 -0.0807,-7e-5 -0.12107,0 z m 36.50387,84.85937 c 0.50932,0.27328 1.01672,0.55106 1.5215,0.83203 14.39063,8.01008 27.90231,19.76807 29.93167,22.19336 12.89044,15.40541 30.07614,44.25372 30.07614,59.78906 3.3e-4,20.09429 16.29051,36.38354 36.38478,36.38281 20.09355,-3.6e-4 36.38248,-16.28929 36.38281,-36.38281 0,-21.44613 -5.50314,-40.32067 -13.0918,-56.4414 49.32855,26.32143 91.18458,65.77184 119.55662,117.17968 27.4531,49.74283 36.64926,106.93949 30.45117,146.35157 -3.09908,19.70604 -9.89921,34.35979 -16.99414,42.45703 -7.09487,8.09724 -13.01467,11.30213 -25.25783,11.27536 h -0.08 H 550 284.73437 h -0.0781 c -12.24318,0.027 -18.16291,-3.17812 -25.25781,-11.27536 -7.09491,-8.09724 -13.89508,-22.75099 -16.99414,-42.45703 -6.19812,-39.41209 2.99804,-96.60874 30.45116,-146.35157 28.37172,-51.40725 70.22882,-90.85826 119.55665,-117.17968 -7.58845,16.12054 -13.0918,34.99568 -13.0918,56.4414 3.6e-4,20.09429 16.29049,36.38353 36.38476,36.38281 20.09355,-3.6e-4 36.38248,-16.28929 36.38281,-36.38281 0,-15.53534 17.18577,-44.38365 30.07621,-59.78906 2.02936,-2.42529 15.54097,-14.18328 29.9316,-22.19336 0.50452,-0.28083 1.01238,-0.55692 1.5215,-0.83008 v 82.8125 c -2e-4,7.68297 2.43168,15.16882 6.94723,21.38477 2.24407,3.08861 4.96023,5.80478 8.04885,8.04882 6.21625,4.51664 13.70285,6.94928 21.38673,6.94922 20.09355,-3.6e-4 36.38248,-16.28929 36.3828,-36.38281 z m 86.95897,143.02148 c -18.07228,-0.30238 -35.81451,9.47268 -46.20508,24.76172 -8.51417,12.52805 -11.27445,22.82736 6.13872,33.57422 11.34297,7.00051 24.54729,4.42621 32.28515,0.66016 5.00028,-2.43367 6.88766,-4.36509 15.6992,-0.28711 17.80634,8.24082 28.22183,7.82093 38.47852,-0.69141 11.54959,-9.58534 9.59684,-23.52891 0.94924,-33.67188 -12.44524,-14.59745 -29.2734,-24.04331 -47.34575,-24.3457 z m -275.9609,0.66211 c -18.07238,0.3024 -34.90044,9.7502 -47.34572,24.34766 -8.64753,10.14297 -10.60038,24.08653 0.94922,33.67187 10.25671,8.51233 20.67218,8.93223 38.47852,0.69141 8.81146,-4.07798 10.69898,-2.14656 15.69925,0.28711 7.73787,3.76605 20.94212,6.34036 32.28509,-0.66015 17.41317,-10.74687 14.65288,-21.04618 6.13872,-33.57423 -10.39057,-15.28904 -28.1328,-25.06605 -46.20508,-24.76367 z" /></svg>
