<?xml version="1.0" encoding="UTF-8" standalone="no"?>
<!-- Created with Inkscape (http://www.inkscape.org/) -->

<svg
   version="1.1"
   id="svg1"
   width="2000"
   height="1200"
   viewBox="0 0 2000 1200"
   xml:space="preserve"
   xmlns="http://www.w3.org/2000/svg"
   xmlns:svg="http://www.w3.org/2000/svg"><defs
     id="defs1"><clipPath
       clipPathUnits="userSpaceOnUse"
       id="clipPath23"><g
         id="use23"
         style="stroke-width:1.52068"><path
           style="display:inline;opacity:1;fill:#87d6be;fill-opacity:1;stroke:none;stroke-width:144.464;stroke-linecap:round;stroke-linejoin:round;stroke-miterlimit:0;stroke-opacity:1"
           id="path73"
           d="M 2479.5983,735.4187 A 1207.5515,346.58099 0 0 1 1272.0468,1081.9997 1207.5515,346.58099 0 0 1 64.495239,735.4187 1207.5515,346.58099 0 0 1 1272.0468,388.83771 1207.5515,346.58099 0 0 1 2479.5983,735.4187 Z" /></g></clipPath></defs><path
     id="path1"
     style="display:inline;opacity:1;fill:#000000;fill-opacity:1;stroke:none;stroke-width:94.9998;stroke-linecap:round;stroke-linejoin:round;stroke-miterlimit:0;stroke-opacity:1"
     d="m 694.5293,209.16797 c -4.32301,7e-5 -8.51715,0.31785 -12.65235,0.77539 -133.06468,4.02349 -260.91614,70.56506 -328.19922,192.47656 -23.94621,43.38858 -37.54666,89.74295 -40.79882,133.66992 -95.32789,48.37554 -146.35347,105.67813 -146.35352,164.35743 -1.9e-4,77.01482 87.8123,150.87623 244.11914,205.33398 156.30684,54.45772 368.30411,85.05078 589.35547,85.05078 221.0513,0 433.0486,-30.59306 589.3555,-85.05078 156.3068,-54.45776 244.1193,-128.31917 244.1191,-205.33398 -2e-4,-67.18843 -66.8739,-132.29786 -189.2246,-184.23243 -5.4283,-37.76175 -18.2942,-76.67813 -38.5957,-113.46289 -67.2871,-121.91871 -195.1476,-188.47005 -328.2207,-192.48633 -4.0405,-0.44612 -8.1397,-0.75559 -12.3594,-0.76562 -0.091,-2.2e-4 -0.1808,0 -0.2715,0 -0.09,0 -0.1796,-2.2e-4 -0.2695,0 -3.8,0.009 -7.5116,0.23837 -11.166,0.60352 -115.687,3.16481 -227.481,53.66961 -299.18556,146.76171 8.08791,-10.50074 16.58933,-20.56234 25.64648,-29.98046 -71.4483,-74.48383 -171.57081,-114.59372 -274.65234,-117.21094 -3.48404,-0.32383 -7.02864,-0.50586 -10.64453,-0.50586 z m -36.38086,84.86133 v 82.8125 c -2e-4,7.68298 2.43171,15.16882 6.94726,21.38476 2.24448,3.08946 4.96133,5.80631 8.05078,8.05078 6.21595,4.51555 13.7018,6.94747 21.38477,6.94727 20.09352,-3.6e-4 36.38245,-16.28928 36.38281,-36.38281 v -82.8125 c 0.50905,0.27314 1.01698,0.55118 1.52149,0.83203 14.39063,8.01007 27.90228,19.76611 29.93164,22.1914 12.89044,15.40541 30.07617,44.25373 30.07617,59.78907 3.6e-4,20.09428 16.29049,36.38352 36.38476,36.38281 20.09356,-3.6e-4 36.38249,-16.28928 36.38282,-36.38281 0,-21.44623 -5.50308,-40.32063 -13.0918,-56.44141 30.86066,16.46666 58.79642,38.07179 82.33594,64.5293 4.70323,-7.48303 9.92809,-14.45178 15.09375,-21.47657 -9.17112,12.47195 -17.92211,25.38784 -25.59961,39.29883 -9.55548,17.3137 -17.46404,35.10001 -23.72461,53.01563 -17.66522,3.26447 -35.06936,7.67109 -52.07422,13.19726 -0.98805,-1.70873 -2.15927,-3.35914 -3.48828,-4.91796 -12.44525,-14.59747 -29.2714,-24.04332 -47.34375,-24.34571 -18.07228,-0.30238 -35.81646,9.47463 -46.20703,24.76367 -8.51417,12.52804 -11.2745,22.8254 6.13867,33.57227 5.05018,3.11681 10.4698,4.33563 15.61133,4.39648 -56.17176,32.48516 -104.22857,79.36806 -137.49414,139.64258 0.81601,-1.47849 1.6409,-2.94974 2.47461,-4.41211 h -208.57618 -0.0781 c -12.24317,0.027 -18.1629,-3.17815 -25.25781,-11.27539 -7.09491,-8.09723 -13.89508,-22.75099 -16.99414,-42.45703 -6.19812,-39.41208 2.99805,-96.60873 30.45117,-146.35156 28.37185,-51.40751 70.22849,-90.85867 119.55664,-117.17969 -7.58852,16.1206 -13.0918,34.99556 -13.0918,56.44141 3.6e-4,20.09429 16.29048,36.38352 36.38477,36.38281 20.09352,-3.6e-4 36.38245,-16.28928 36.38281,-36.38281 0,-15.53534 17.18573,-44.38366 30.07617,-59.78907 2.02936,-2.42529 15.54101,-14.18133 29.93164,-22.1914 0.50452,-0.28085 1.01245,-0.5589 1.52149,-0.83203 z m 570.27146,0.33203 v 82.81055 c 0,7.68364 2.4314,15.17023 6.9473,21.38671 2.2441,3.08862 4.9602,5.80479 8.0488,8.04883 6.2162,4.51663 13.7028,6.94927 21.3867,6.94922 20.0943,-3.6e-4 36.3835,-16.29047 36.3828,-36.38476 v -82.81055 c 0.5091,0.27315 1.017,0.54925 1.5215,0.83008 14.3906,8.01008 27.9024,19.76807 29.9317,22.19336 12.8905,15.40541 30.0761,44.25176 30.0761,59.78711 0,20.09505 16.2897,36.38549 36.3848,36.38476 20.0943,-3.6e-4 36.3835,-16.29048 36.3828,-36.38476 0,-21.44633 -5.5049,-40.32057 -13.0937,-56.44141 49.3287,26.32152 91.1865,65.7738 119.5586,117.18164 27.4531,49.74283 36.6492,106.93948 30.4511,146.35156 -3.0991,19.70604 -9.8992,34.35979 -16.9941,42.45703 -7.0949,8.09726 -13.0146,11.30216 -25.2578,11.27539 h -0.08 -215.2793 c -35.9412,-63.1981 -88.322,-111.18925 -149.1933,-142.94531 2.7103,0.0282 4.5542,1.25761 7.4199,2.65234 7.7378,3.76606 20.9421,6.34036 32.2851,-0.66015 17.4132,-10.74687 14.6528,-21.04618 6.1387,-33.57422 -10.3906,-15.28904 -28.1347,-25.06411 -46.207,-24.76172 -18.0723,0.30239 -34.8986,9.74824 -47.3438,24.3457 -2.3835,2.79565 -4.2586,5.87982 -5.4824,9.08204 -39.5113,-13.70009 -81.3324,-21.29738 -123.67969,-22.5625 -3.98763,-0.43584 -8.03322,-0.7368 -12.19531,-0.74805 2.01949,10e-4 4.03703,0.0163 6.05468,0.0469 25.08502,-49.98918 67.06662,-97.00542 124.68752,-128.26171 -7.6182,16.14735 -13.1485,35.06252 -13.1485,56.5625 0,20.09505 16.2897,36.38549 36.3848,36.38476 20.0943,-3.6e-4 36.3835,-16.29047 36.3828,-36.38476 0,-15.53535 17.1858,-44.38171 30.0762,-59.78711 2.0294,-2.42529 15.541,-14.18329 29.9316,-22.19336 0.5046,-0.28084 1.0125,-0.55693 1.5215,-0.83008 z M 541.91211,437.71094 c -18.0723,0.30239 -34.90043,9.75019 -47.3457,24.34765 -8.64754,10.14297 -10.60039,24.08654 0.94921,33.67188 10.25671,8.51234 20.67218,8.93224 38.47852,0.69141 8.8115,-4.07799 10.69895,-2.14657 15.69922,0.2871 7.73787,3.76605 20.94218,6.34037 32.28516,-0.66015 17.41316,-10.74686 14.65283,-21.04618 6.13867,-33.57422 -10.39057,-15.28904 -28.1328,-25.06605 -46.20508,-24.76367 z m 887.34569,0.99609 c -18.0723,-0.30239 -35.8146,9.47268 -46.2051,24.76172 -8.5142,12.52804 -11.2763,22.82735 6.1368,33.57422 11.343,7.00051 24.5493,4.4262 32.2871,0.66015 5.0003,-2.43367 6.8877,-4.36508 15.6992,-0.2871 17.8064,8.24082 28.2198,7.82092 38.4765,-0.69141 11.5496,-9.58535 9.5969,-23.52891 0.9493,-33.67188 -12.4452,-14.59746 -29.2715,-24.04331 -47.3438,-24.3457 z m -489.41991,94.97852 v 82.81054 c -5.9e-4,7.68364 2.43132,15.17024 6.94727,21.38672 2.244,3.08861 4.9602,5.80478 8.04882,8.04883 6.21625,4.51663 13.70284,6.94927 21.38672,6.94922 20.09427,-3.6e-4 36.3835,-16.29048 36.3828,-36.38477 v -82.81054 c 0.509,0.27314 1.017,0.54926 1.5215,0.83007 14.3906,8.01009 27.9023,19.76807 29.9316,22.19336 12.8905,15.40541 30.0762,44.25177 30.0762,59.78711 0,20.09506 16.2897,36.3855 36.3848,36.38477 20.0934,-10e-4 36.3815,-16.29125 36.3808,-36.38477 0,-21.44644 -5.503,-40.3205 -13.0918,-56.4414 49.3287,26.32165 91.1865,65.77384 119.5586,117.18164 27.4531,49.74284 36.6474,106.93944 30.4493,146.35156 -3.099,19.70603 -9.8973,34.35978 -16.9922,42.45703 -7.0949,8.09725 -13.0146,11.30216 -25.2578,11.27539 h -0.08 -265.2637 -265.26562 -0.0801 c -12.24316,0.027 -18.16093,-3.17814 -25.25586,-11.27539 -7.09493,-8.09725 -13.89506,-22.751 -16.99414,-42.45703 -6.1981,-39.41212 2.99807,-96.60872 30.45117,-146.35156 28.37171,-51.40709 70.22861,-90.85802 119.55664,-117.17969 -7.58859,16.12066 -13.09179,34.99347 -13.09179,56.43945 -6.6e-4,20.09504 16.2897,36.38548 36.38476,36.38477 20.09428,-3.6e-4 36.38354,-16.29048 36.38281,-36.38477 0,-15.53534 17.18574,-44.3817 30.07618,-59.78711 2.02936,-2.42529 15.54101,-14.18327 29.93164,-22.19336 0.50482,-0.28098 1.01213,-0.55678 1.52148,-0.83007 z m 159.72461,143.01953 c -18.0723,-0.30244 -35.8145,9.47274 -46.2051,24.76172 -8.5142,12.5281 -11.2745,22.82737 6.1387,33.57422 11.3429,7.0005 24.5474,4.42617 32.2851,0.66015 5.0003,-2.43372 6.8878,-4.3651 15.6993,-0.28711 17.8064,8.2408 28.2219,7.82092 38.4785,-0.6914 11.5496,-9.58534 9.5968,-23.5289 0.9492,-33.67188 -12.4453,-14.59745 -29.2734,-24.04334 -47.3457,-24.3457 z m -275.96094,0.66211 c -18.07233,0.30243 -34.90045,9.75021 -47.3457,24.34765 -8.64753,10.14299 -10.60037,24.0846 0.94922,33.66993 10.25675,8.51233 20.67216,8.93417 38.47851,0.69335 8.81151,-4.07798 10.69895,-2.14654 15.69922,0.28711 7.73787,3.76602 20.94218,6.33846 32.28516,-0.66211 17.41316,-10.74685 14.65283,-21.04423 6.13867,-33.57226 -10.39057,-15.28905 -28.1328,-25.06603 -46.20508,-24.76367 z" /></svg>
