<?xml version="1.0" encoding="UTF-8" standalone="no"?>
<!-- Created with Inkscape (http://www.inkscape.org/) -->

<svg
   version="1.1"
   id="svg1"
   width="6100"
   height="1900"
   viewBox="0 0 6100 1900"
   xml:space="preserve"
   xmlns="http://www.w3.org/2000/svg"
   xmlns:svg="http://www.w3.org/2000/svg"><defs
     id="defs1"><rect
       x="1899.4994"
       y="-1249.2203"
       width="2139.0759"
       height="1249.2203"
       id="rect3" /><clipPath
       clipPathUnits="userSpaceOnUse"
       id="clipPath15"><g
         id="use15" /></clipPath><clipPath
       clipPathUnits="userSpaceOnUse"
       id="clipPath20"><g
         id="use20"
         style="display:inline" /></clipPath><clipPath
       clipPathUnits="userSpaceOnUse"
       id="clipPath23"><g
         id="use23"
         style="stroke-width:1.52068"><path
           style="display:inline;opacity:1;fill:#87d6be;fill-opacity:1;stroke:none;stroke-width:144.464;stroke-linecap:round;stroke-linejoin:round;stroke-miterlimit:0;stroke-opacity:1"
           id="path37"
           d="M 2479.5983,735.4187 A 1207.5515,346.58099 0 0 1 1272.0468,1081.9997 1207.5515,346.58099 0 0 1 64.495239,735.4187 1207.5515,346.58099 0 0 1 1272.0468,388.83771 1207.5515,346.58099 0 0 1 2479.5983,735.4187 Z" /></g></clipPath><filter
       style="color-interpolation-filters:sRGB"
       id="filter31"
       x="0"
       y="-0.041911889"
       width="1"
       height="1.0419118"><feColorMatrix
         values="0 0 0 0 0 0 0 0 0 0 0 0 0 0 0 -1 -1 -1 1 0 "
         id="feColorMatrix31" /></filter></defs><path
     style="display:inline;opacity:1;fill:#87d6be;fill-opacity:1;stroke:none;stroke-width:94.9998;stroke-linecap:round;stroke-linejoin:round;stroke-miterlimit:0;stroke-opacity:1"
     id="path1"
     d="M 1761.6973,691.16115 A 794.08809,227.9123 0 0 1 967.60921,919.07345 794.08809,227.9123 0 0 1 173.52108,691.16115 794.08809,227.9123 0 0 1 967.60921,463.24885 794.08809,227.9123 0 0 1 1761.6973,691.16115 Z" /><path
     id="path2"
     style="baseline-shift:baseline;display:inline;overflow:visible;opacity:1;vector-effect:none;fill:#79c0ab;fill-opacity:1;stroke:none;stroke-width:1;stroke-linecap:round;stroke-linejoin:round;stroke-miterlimit:0;stroke-opacity:1;enable-background:accumulate;stop-color:#000000;stop-opacity:1"
     d="m 1566.2246,676.61133 c -18.4524,15.3754 -42.7532,24.91993 -68.6289,24.86328 h -153.0254 -31.1152 -0.4864 c 12.6966,42.74987 16.3897,85.66122 10.3399,124.13086 -2.6534,16.8724 -7.151,33.085 -14.0527,47.94333 l 254.4726,-194.84177 c 0.8629,-0.66093 1.6958,-1.3602 2.4961,-2.0957 z m -1236.57616,0.74805 c 0.7484,0.69583 1.52578,1.35983 2.33007,1.99023 l 124.85743,97.72266 120.63086,94.416 c -6.37437,-14.29221 -10.58389,-29.7866 -13.11524,-45.8828 -6.06503,-38.56581 -2.74672,-81.60522 9.95117,-124.46289 H 396.95508 c -25.26314,0.0553 -49.02356,-9.04328 -67.30664,-23.7832 z" /><path
     style="baseline-shift:baseline;display:inline;overflow:visible;opacity:1;vector-effect:none;fill:#fdd0a4;fill-opacity:1;stroke:none;stroke-width:1;stroke-linejoin:round;stroke-opacity:1;enable-background:accumulate;stop-color:#000000;stop-opacity:1"
     d="m 662.14092,236.26466 c -125.79647,0 -246.4673,61.14684 -308.99868,174.44865 -62.53139,113.3018 -44.14841,254.23946 43.73404,254.04718 H 662.14092 927.40554 C 1015.288,664.95277 1033.671,524.01511 971.13961,410.71331 908.60825,297.4115 787.93739,236.26466 662.14092,236.26466 Z"
     id="path3" /><path
     style="baseline-shift:baseline;display:inline;overflow:visible;opacity:1;vector-effect:none;fill:#dab991;fill-opacity:1;stroke:none;stroke-width:1;stroke-linejoin:round;stroke-opacity:1;enable-background:accumulate;stop-color:#000000;stop-opacity:1"
     d="m 1232.4121,236.59622 c -125.7965,0 -246.46732,61.14684 -308.9987,174.44864 -62.53139,113.30181 -44.14841,254.23947 43.73404,254.04718 h 265.26466 265.2646 c 87.8825,0.19229 106.2655,-140.74537 43.7341,-254.04718 -62.5314,-113.3018 -183.2022,-174.44864 -308.9987,-174.44864 z"
     id="path4" /><path
     style="baseline-shift:baseline;display:inline;overflow:visible;opacity:1;vector-effect:none;fill:#fdfccf;fill-opacity:1;stroke:none;stroke-width:1;stroke-linejoin:round;stroke-opacity:1;enable-background:accumulate;stop-color:#000000;stop-opacity:1"
     d="m 943.82994,475.92034 c -125.79647,0 -246.4673,61.14684 -308.99868,174.44864 -62.53139,113.30181 -44.14841,254.23947 43.73404,254.04719 h 265.26464 265.26466 c 87.8825,0.19228 106.2655,-140.74538 43.734,-254.04719 -62.5313,-113.3018 -183.2022,-174.44864 -308.99866,-174.44864 z"
     id="path5" /><path
     id="path6"
     style="display:inline;opacity:1;fill:#091a28;fill-opacity:1;stroke:none;stroke-width:94.9998;stroke-linecap:round;stroke-linejoin:round;stroke-miterlimit:0;stroke-opacity:1"
     d="m 662.13867,199.88086 c -4.323,8e-5 -8.51719,0.31785 -12.65234,0.77539 -133.06485,4.02334 -260.91607,70.56495 -328.19922,192.47656 -23.9462,43.38858 -37.54666,89.74295 -40.79883,133.66993 v 0 c -95.32788,48.37554 -146.35346,105.67811 -146.35351,164.35742 -2e-4,77.01481 87.81229,150.87628 244.11913,205.33401 156.30684,54.45772 368.30415,85.05074 589.3555,85.05074 221.0513,0 433.0486,-30.59302 589.3555,-85.05074 156.3068,-54.45774 244.1193,-128.3192 244.1191,-205.33401 -2e-4,-67.18843 -66.8739,-132.29786 -189.2246,-184.23243 -5.4283,-37.76175 -18.2941,-76.67812 -38.5957,-113.46289 -67.2828,-121.9115 -195.1326,-188.4531 -328.1973,-192.47656 -4.1353,-0.45749 -8.3311,-0.77538 -12.6543,-0.77539 v 0 c -4.3232,8e-5 -8.5191,0.31782 -12.6543,0.77539 -102.1537,3.08918 -201.1411,43.127 -272.08202,116.69727 h -0.23825 C 876.44211,243.84567 777.16144,203.75149 674.79492,200.65625 c -4.13527,-0.45749 -8.33114,-0.77539 -12.6543,-0.77539 z m -36.38086,84.86133 v 82.8125 c -2e-4,7.68297 2.43172,15.16883 6.94727,21.38476 2.24447,3.08946 4.96132,5.80632 8.05078,8.05078 6.21594,4.51555 13.7018,6.94747 21.38476,6.94727 20.09353,-3.6e-4 36.38246,-16.28928 36.38282,-36.38281 v -82.8125 c 0.50909,0.27315 1.01694,0.55119 1.52148,0.83203 14.39063,8.01008 27.90228,19.76612 29.93164,22.19141 12.89044,15.40542 30.07617,44.25372 30.07617,59.78906 3.6e-4,20.09429 16.29048,36.38353 36.38476,36.38281 20.09355,-3.6e-4 36.38248,-16.28929 36.3828,-36.38281 0,-21.44614 -5.50314,-40.32067 -13.0918,-56.44141 30.86146,16.46749 58.79829,38.07294 82.33794,64.53125 0.0105,-0.0166 0.021,-0.0322 0.0309,-0.0489 v 0.36523 c -3.68244,5.67313 -7.21856,11.48739 -10.53905,17.50391 -9.66044,17.50396 -17.63695,35.49219 -23.92967,53.60742 -22.4358,4.13323 -44.27627,10.55016 -65.58599,18.30469 4.67627,-1.7018 9.20406,-3.77003 13.9453,-5.29883 -1.0344,-1.85271 -2.28352,-3.6373 -3.71676,-5.31836 -12.44525,-14.59746 -29.27141,-24.0433 -47.34375,-24.3457 -18.07229,-0.30238 -35.81646,9.47463 -46.20703,24.76367 -8.51418,12.52805 -11.27453,22.8254 6.13866,33.57227 5.22249,3.22315 10.84029,4.41605 16.13673,4.39843 1.65505,-0.94934 3.43851,-1.65374 5.10742,-2.57812 -57.14564,31.65353 -106.39166,77.74311 -140.6504,137.80664 h -0.002 -3.0664 -205.50977 c -0.026,-3e-5 -0.0521,-3e-5 -0.0781,0 -12.24318,0.027 -18.16291,-3.17815 -25.25781,-11.27539 -7.09491,-8.09723 -13.89508,-22.75099 -16.99414,-42.45703 -6.19813,-39.41208 2.99805,-96.60873 30.45116,-146.35156 28.37171,-51.40725 70.22883,-90.85826 119.55665,-117.17969 -7.58845,16.12053 -13.0918,34.99569 -13.0918,56.4414 3.6e-4,20.09428 16.29048,36.38354 36.38476,36.38282 20.09353,-3.6e-4 36.38246,-16.28929 36.38282,-36.38282 0,-15.53533 17.18572,-44.38363 30.07617,-59.78906 2.02936,-2.42529 15.54101,-14.18133 29.93164,-22.1914 0.50454,-0.28084 1.01239,-0.55889 1.52148,-0.83203 z m 570.27149,0.33203 v 82.81054 c -6e-4,7.68365 2.4314,15.17025 6.9472,21.38673 2.244,3.0886 4.9603,5.80478 8.0489,8.04882 6.2162,4.51663 13.7028,6.94927 21.3867,6.94922 20.0943,-3.7e-4 36.3835,-16.29049 36.3828,-36.38477 v -82.81054 c 0.5091,0.27315 1.017,0.54924 1.5215,0.83008 14.3906,8.01007 27.9023,19.76807 29.9316,22.19336 12.8905,15.4054 30.0762,44.25177 30.0762,59.7871 0,20.09507 16.2897,36.38551 36.3848,36.38477 20.0943,-3.7e-4 36.3835,-16.29049 36.3828,-36.38477 0,-21.44612 -5.5031,-40.31871 -13.0918,-56.43944 49.3286,26.32142 91.1847,65.77184 119.5566,117.17968 27.4531,49.74283 36.6493,106.93948 30.4512,146.35156 -3.0991,19.70604 -9.8992,34.35979 -16.9941,42.45703 -7.0949,8.09725 -13.0146,11.30215 -25.2579,11.2754 -0.027,-4e-5 -0.053,-4e-5 -0.08,0 h -215.2813 c -35.9485,-63.20266 -88.341,-111.19348 -149.2265,-142.94532 2.7297,0.018 4.5773,1.2516 7.4551,2.65234 7.7378,3.76606 20.9421,6.34036 32.2851,-0.66015 17.4132,-10.74687 14.6529,-21.04618 6.1387,-33.57422 -10.3905,-15.28904 -28.1347,-25.06411 -46.2071,-24.76172 -18.0723,0.30239 -34.8984,9.74826 -47.3437,24.3457 -2.3879,2.80097 -4.2666,5.8928 -5.4902,9.10157 -39.4623,-13.6807 -81.22834,-21.27588 -123.52154,-22.55469 -2.30351,-0.25484 -4.6259,-0.46612 -6.97847,-0.60352 1.82228,-3.72811 3.74307,-7.42642 5.76171,-11.08398 28.3717,-51.40727 70.2288,-90.85826 119.5566,-117.17968 -7.5884,16.12053 -13.0918,34.99371 -13.0918,56.43944 0,20.09507 16.2897,36.38551 36.3848,36.38477 20.0943,-3.7e-4 36.3835,-16.29049 36.3828,-36.38477 0,-15.53533 17.1858,-44.3817 30.0761,-59.7871 2.0295,-2.42529 15.5411,-14.18329 29.9317,-22.19336 0.5046,-0.28084 1.0124,-0.55693 1.5215,-0.83008 z M 509.52148,428.42383 c -18.0723,0.30239 -34.90043,9.75019 -47.3457,24.34766 -8.64754,10.14297 -10.60038,24.08653 0.94922,33.67187 10.2567,8.51233 20.67218,8.93222 38.47852,0.69141 8.8115,-4.07798 10.69895,-2.14661 15.69921,0.28711 7.73787,3.76604 20.94218,6.34036 32.28516,-0.66016 17.41316,-10.74686 14.65285,-21.04618 6.13867,-33.57422 -10.39057,-15.28904 -28.1328,-25.06606 -46.20508,-24.76367 z m 887.34572,0.99609 c -18.0723,-0.30239 -35.8145,9.47268 -46.2051,24.76172 -8.5142,12.52804 -11.2764,22.82735 6.1367,33.57422 11.343,7.00051 24.5492,4.42621 32.2872,0.66015 5.0002,-2.43366 6.8875,-4.36509 15.6991,-0.28711 17.8063,8.24083 28.2199,7.82094 38.4766,-0.6914 11.5497,-9.58534 9.5968,-23.52891 0.9492,-33.67188 -12.4451,-14.59744 -29.2713,-24.04331 -47.3437,-24.3457 z m -489.41995,94.97852 v 82.81054 c -5.9e-4,7.68365 2.43135,15.17024 6.9473,21.38672 2.244,3.08861 4.96016,5.80478 8.04879,8.04883 6.21624,4.51663 13.70284,6.94927 21.38672,6.94922 20.09427,-3.8e-4 36.38353,-16.29049 36.38281,-36.38477 v -82.81054 c 0.50911,0.27315 1.01691,0.54924 1.52149,0.83008 14.39063,8.01007 27.90224,19.76805 29.93164,22.19336 12.8904,15.40538 30.0762,44.25179 30.0762,59.7871 0,20.09505 16.2897,36.38547 36.3848,36.38477 20.0934,-10e-4 36.3815,-16.29126 36.3808,-36.38477 0,-21.44612 -5.5031,-40.31872 -13.0918,-56.43945 49.3286,26.32143 91.1866,65.77186 119.5586,117.17969 27.4531,49.74282 36.6473,106.93949 30.4492,146.35156 -3.0991,19.70603 -9.8972,34.35979 -16.9922,42.45703 -7.0948,8.09724 -13.0147,11.30218 -25.2578,11.27542 -0.027,0 -0.053,0 -0.08,0 H 943.83006 678.56445 c -0.0267,0 -0.0534,0 -0.0801,0 -12.24317,0.027 -18.16097,-3.17818 -25.25587,-11.27542 -7.09488,-8.09722 -13.89512,-22.751 -16.99414,-42.45703 -6.19812,-39.41207 2.99807,-96.60874 30.45118,-146.35156 28.37171,-51.40723 70.22883,-90.85826 119.55663,-117.17969 -7.58843,16.12053 -13.09179,34.99374 -13.09179,56.43945 -6.6e-4,20.09504 16.28969,36.38546 36.38475,36.38477 20.09427,-3.8e-4 36.38353,-16.29049 36.38281,-36.38477 0,-15.53531 17.18576,-44.3817 30.07621,-59.7871 2.02936,-2.42531 15.54097,-14.18329 29.9316,-22.19336 0.50458,-0.28084 1.01238,-0.55693 1.52149,-0.83008 z m 707.13865,34.61328 c 95.692,38.59219 147.1124,84.78304 147.1114,132.15039 -5e-4,89.63579 -183.0629,170.94844 -467.7852,207.78123 16.109,-20.82415 25.1331,-46.2286 29.3965,-73.33787 6.0498,-38.46964 2.3567,-81.38099 -10.3399,-124.13086 h 0.4864 31.1152 153.0254 c 31.6981,0.0694 61.0336,-14.27079 80.1485,-36.08594 19.1147,-21.81516 29.4808,-49.44035 34.1464,-79.10742 1.3952,-8.8719 2.2933,-17.9808 2.6953,-27.26953 z m -1331.92379,26.9375 c 4.66556,29.66707 15.03174,57.29227 34.14648,79.10742 19.11473,21.81515 48.44844,36.15532 80.14649,36.08594 h 177.34765 c -12.69789,42.85767 -16.0162,85.89708 -9.95117,124.46289 3.8588,24.53708 11.70742,47.62084 25.08985,67.23243 -0.33863,-0.49622 -0.76427,-0.93682 -1.09571,-1.43752 C 332.68482,851.51089 173.52042,774.68121 173.52148,691.16211 c -0.001,-40.29129 37.21274,-79.86254 107.84961,-114.68164 -0.49535,-4.28073 0.13814,2.13791 1.29102,9.46875 z m 784.50979,81.46875 c -18.0723,-0.30239 -35.8145,9.47267 -46.2051,24.76172 -8.5141,12.52804 -11.2746,22.82735 6.1387,33.57422 11.3429,7.0005 24.5472,4.4262 32.2851,0.66015 5.0002,-2.43367 6.8878,-4.36509 15.6992,-0.28711 17.8064,8.24082 28.2219,7.82094 38.4785,-0.6914 11.5496,-9.58534 9.5969,-23.52891 0.9493,-33.67188 -12.4452,-14.59746 -29.2734,-24.04331 -47.3457,-24.3457 z m -275.96097,0.66211 c -18.0723,0.3024 -34.90043,9.75019 -47.34569,24.34766 -8.64755,10.14297 -10.60039,24.08458 0.94921,33.66992 10.2567,8.51233 20.67218,8.93419 38.47852,0.69336 8.81151,-4.07798 10.69896,-2.14655 15.69923,0.28711 7.73787,3.76604 20.94219,6.3384 32.28516,-0.66212 17.41317,-10.74685 14.65282,-21.04421 6.13865,-33.57226 -10.39057,-15.28904 -28.1328,-25.06605 -46.20508,-24.76367 z" /><path
     style="font-weight:500;font-size:1646.06px;line-height:1693.08px;font-family:'DM Mono';-inkscape-font-specification:'DM Mono, Medium';letter-spacing:-95px;word-spacing:0px;display:inline;opacity:1;fill:#000000;fill-opacity:1;stroke:none;stroke-width:94.9998;stroke-linecap:round;stroke-linejoin:round;stroke-miterlimit:0;stroke-opacity:1"
     d="m 2178.1208,893.11607 c -61.339,0 -114.3792,-15.87596 -159.1205,-47.6279 -44.7414,-31.75193 -79.019,-76.8541 -102.8329,-135.30652 -23.814,-58.45241 -35.721,-128.09016 -35.721,-208.91326 0,-80.82309 11.907,-150.46084 35.721,-208.91326 23.8139,-58.45241 58.0915,-103.55458 102.8329,-135.30651 44.7413,-31.75193 97.7815,-47.62789 159.1205,-47.62789 62.0605,0 115.1007,15.87596 159.1204,47.62789 44.7413,31.75193 79.019,76.8541 102.833,135.30651 23.8139,58.45242 35.7209,128.09017 35.7209,208.91326 0,80.8231 -11.907,150.46085 -35.7209,208.91326 -23.814,58.45242 -58.0917,103.55459 -102.833,135.30652 -44.0197,31.75194 -97.0599,47.6279 -159.1204,47.6279 z m 0,-108.24522 c 54.1226,0 97.7815,-24.17477 130.9767,-72.52429 33.1951,-49.07117 49.7928,-119.43055 49.7928,-211.07817 0,-91.64761 -16.5977,-161.64618 -49.7928,-209.99571 -33.1952,-49.07116 -76.8541,-73.60674 -130.9767,-73.60674 -54.8443,0 -98.864,24.53558 -132.0592,73.60674 -32.4735,48.34953 -48.7103,118.3481 -48.7103,209.99571 0,91.64762 16.2368,162.007 48.7103,211.07817 33.1952,48.34952 77.2149,72.52429 132.0592,72.52429 z m 336.953,333.39525 V 343.23038 h 108.2453 v 82.26637 h 6.4946 c 14.4327,-26.70049 36.0818,-49.07117 64.9472,-67.11204 29.587,-18.7625 64.5863,-28.14375 104.9979,-28.14375 41.8548,0 80.1014,10.82452 114.7398,32.47356 34.6385,20.92741 62.0606,52.31852 82.2664,94.17334 20.9274,41.13318 31.3911,92.73006 31.3911,154.79065 0,61.33895 -10.8245,112.93584 -32.4736,154.79065 -20.9273,41.85482 -49.4319,73.60675 -85.5136,95.25579 -36.0818,20.92742 -76.4933,31.39112 -121.2347,31.39112 -39.6899,0 -72.8851,-7.93798 -99.5855,-23.81394 -26.7006,-15.87597 -46.5456,-33.91685 -59.535,-54.12262 v 303.08659 z m 254.3763,-334.47771 c 40.4115,0 73.9676,-14.43269 100.668,-43.29808 27.4222,-28.86539 41.1332,-72.16347 41.1332,-129.89425 0,-57.73078 -13.711,-100.66805 -41.1332,-128.8118 -26.7004,-28.14376 -60.2565,-42.21564 -100.668,-42.21564 -41.1332,0 -75.4108,14.4327 -102.833,43.29809 -26.7004,28.14375 -40.0507,71.08102 -40.0507,128.8118 0,57.00914 13.3503,99.94641 40.0507,128.8118 27.4222,28.86539 61.6998,43.29808 102.833,43.29808 z m 589.1644,109.32768 c -51.9577,0 -97.7816,-11.54618 -137.4715,-34.63848 -39.6898,-23.81394 -70.7202,-56.64832 -93.0908,-98.50314 -22.3707,-41.85481 -33.556,-90.56516 -33.556,-146.13103 0,-56.28752 10.8245,-105.71949 32.4735,-148.29595 22.3707,-42.57645 53.401,-75.77165 93.0909,-99.58559 40.4116,-23.81395 86.957,-35.72092 139.6363,-35.72092 51.9577,0 96.6991,11.90697 134.2241,35.72092 37.525,23.09231 66.3904,54.1226 86.5962,93.09088 20.9274,38.96828 31.3911,81.90554 31.3911,128.8118 v 23.81395 c 0,7.93799 -0.3609,16.95842 -1.0824,27.0613 h -403.7547 c 3.6082,49.7928 19.845,87.67862 48.7104,113.65747 28.8653,25.25722 62.7822,37.88583 101.7504,37.88583 33.9168,0 60.6174,-6.85553 80.1015,-20.56659 20.2058,-14.4327 34.9992,-33.91684 44.3805,-58.45242 h 115.8224 c -12.9894,51.23607 -40.0507,94.53416 -81.1839,129.89426 -41.1332,34.63845 -93.8125,51.95771 -158.038,51.95771 z m 0,-463.28951 c -35.3601,0 -66.7512,10.82452 -94.1734,32.47356 -27.422,20.92741 -45.1021,50.51443 -53.0401,88.76107 h 285.7674 c -2.8866,-36.08174 -16.9584,-65.30795 -42.2157,-87.67862 -25.2572,-22.37067 -57.37,-33.55601 -96.3382,-33.55601 z m 340.2004,450.3001 V 343.23038 h 109.3276 v 80.10146 h 5.4123 c 14.4327,-25.97885 36.8034,-47.98871 67.1121,-66.02958 30.3086,-18.04087 65.3079,-27.0613 104.9978,-27.0613 65.6688,0 115.1008,19.84495 148.2959,59.53486 33.1952,39.68992 49.7928,98.14233 49.7928,175.35725 V 880.12666 H 4069.0135 V 579.20494 c 0,-44.74135 -9.3812,-79.37982 -28.1437,-103.9154 -18.7625,-24.53558 -48.3496,-36.80337 -88.7611,-36.80337 -39.6899,0 -72.8851,13.35025 -99.5856,40.05073 -25.9789,26.70048 -38.9683,65.30794 -38.9683,115.82237 v 285.76739 z m 563.1856,0 V 122.41015 h 270.613 c 78.6582,0 138.1931,18.04087 178.6046,54.12261 40.4116,36.08173 60.6174,82.62717 60.6174,139.63632 0,44.01972 -11.5462,79.74064 -34.6386,107.16276 -23.0922,27.42212 -49.7927,47.26708 -80.1014,59.53487 v 7.57716 c 36.0818,12.98943 67.112,34.27765 93.0909,63.86468 25.9788,28.86538 38.9682,67.11202 38.9682,114.73992 0,38.96828 -9.742,74.6892 -29.2261,107.16276 -18.7625,31.75193 -46.5455,57.00915 -83.3488,75.77165 -36.8035,18.76249 -81.9056,28.14378 -135.3066,28.14378 z m 114.7399,-441.64049 h 141.8012 c 44.0198,0 77.5758,-8.65961 100.6681,-25.97885 23.0923,-18.04087 34.6384,-45.10217 34.6384,-81.18391 0,-71.44184 -45.8238,-107.16276 -137.4714,-107.16276 h -139.6363 z m 0,335.56016 h 149.3784 c 46.9063,0 82.988,-10.10289 108.2452,-30.30866 25.2572,-20.20577 37.8858,-49.7928 37.8858,-88.76107 0,-38.24665 -13.3502,-67.47286 -40.0507,-87.67863 -26.7005,-20.92741 -62.7822,-31.39111 -108.2452,-31.39111 h -147.2135 z m 687.6674,119.06974 c -42.5764,0 -78.2973,-7.21633 -107.1627,-21.64904 -28.8654,-15.15434 -50.5145,-34.9993 -64.9472,-59.53488 -14.4327,-25.25721 -21.649,-52.67933 -21.649,-82.26636 0,-52.67933 19.1233,-93.81251 57.37,-123.39954 38.9683,-29.58702 93.8125,-44.38054 164.5327,-44.38054 h 138.5538 v -11.90697 c 0,-80.82309 -37.525,-121.23464 -112.575,-121.23464 -31.0303,0 -57.3699,6.85554 -79.019,20.56659 -20.9274,12.98943 -34.9992,34.27765 -42.2156,63.86468 h -114.7399 c 5.7731,-56.28751 29.9478,-100.66805 72.5243,-133.14162 43.298,-33.19519 97.7815,-49.79279 163.4502,-49.79279 79.3799,0 137.1106,19.48413 173.1924,58.45241 36.0817,38.96828 54.1226,92.73007 54.1226,161.28537 v 330.14792 h -107.1627 v -79.01903 h -7.5773 c -15.8759,25.25722 -35.7209,46.90626 -59.5348,64.94714 -23.814,18.04084 -59.5348,27.0613 -107.1628,27.0613 z m 21.6491,-96.33824 c 46.9063,0 81.9055,-14.07188 104.9978,-42.21564 23.814,-28.86539 36.8034,-65.30795 38.9683,-109.32766 h -125.5644 c -41.1332,0 -70.3594,6.85553 -87.6786,20.56659 -16.5976,12.98942 -24.8964,31.39111 -24.8964,55.20505 0,23.81395 8.2988,42.57645 24.8964,56.28751 17.3192,12.98943 40.4115,19.48415 69.2769,19.48415 z m 614.0608,96.33824 c -51.236,0 -97.0598,-11.54618 -137.4714,-34.63848 -40.4115,-23.09231 -72.1635,-55.56587 -95.2558,-97.42069 -23.0923,-42.57645 -34.6384,-92.36925 -34.6384,-149.37839 0,-57.00915 11.5461,-106.44113 34.6384,-148.29594 23.0923,-42.57645 54.8443,-75.41083 95.2558,-98.50315 40.4116,-23.09231 86.5962,-34.63846 138.5539,-34.63846 51.9577,0 97.7815,11.54615 137.4714,34.63846 40.4115,23.09232 71.8027,55.9267 94.1733,98.50315 23.0924,41.85481 34.6385,91.28679 34.6385,148.29594 0,57.00914 -11.5461,106.80194 -34.6385,149.37839 -23.0923,41.85482 -54.8442,74.32838 -95.2558,97.42069 -39.6899,23.0923 -85.5137,34.63848 -137.4714,34.63848 z m 0,-109.32768 c 27.4221,0 52.6794,-6.13389 75.7717,-18.40168 23.0922,-12.26779 41.494,-31.03029 55.2051,-56.28751 14.4327,-25.97885 21.649,-58.45241 21.649,-97.42069 0,-39.68991 -7.2163,-72.16347 -21.649,-97.42069 -13.7111,-25.25722 -32.1129,-44.01972 -55.2051,-56.28751 -22.3707,-12.26779 -47.2671,-18.40169 -74.6892,-18.40169 -27.4221,0 -52.6794,6.1339 -75.7716,18.40169 -23.0923,12.26779 -41.8548,31.03029 -56.2875,56.28751 -13.7111,25.25722 -20.5667,57.73078 -20.5667,97.42069 0,59.17405 14.7936,102.83295 44.3806,130.9767 30.3087,27.42213 66.0295,41.13318 107.1627,41.13318 z"
     id="path8"
     aria-label="OpenBao" /><path
     d="m 332.54306,1673.2848 q -47.67216,0 -82.96195,-17.3354 -35.28978,-17.3353 -54.48247,-48.2912 -19.19269,-30.956 -19.19269,-71.8178 h 54.48247 q 0,25.3838 11.76326,47.053 11.76327,21.05 34.05155,34.0515 22.9074,12.3824 56.33983,12.3824 29.09859,0 49.52952,-9.2868 21.05005,-9.9059 31.57507,-26.6221 11.14414,-16.7162 11.14414,-37.7662 0,-25.3839 -11.14414,-40.8619 -10.52502,-16.0971 -29.09859,-26.003 -18.57357,-9.9059 -43.33833,-17.3353 -24.14564,-8.0486 -50.76776,-16.7162 -51.38688,-17.3354 -75.53252,-43.3384 -24.14564,-26.003 -24.14564,-67.4839 0,-35.2898 16.09709,-61.9119 16.71621,-26.6222 47.05305,-41.481 30.95595,-15.478 73.05604,-15.478 41.48097,0 71.81781,15.478 30.95595,15.478 48.29128,42.7192 17.33533,26.6221 17.33533,61.9119 h -54.48247 q 0,-17.9545 -9.28679,-35.2898 -9.28678,-17.3353 -28.47947,-28.4795 -18.57357,-11.7632 -47.05305,-11.7632 -23.52652,-0.6191 -42.10009,8.0485 -17.95445,8.0486 -28.47948,23.5265 -9.9059,15.478 -9.9059,37.7663 0,21.0501 8.66767,34.0516 9.28678,13.0015 26.003,22.2882 17.33533,8.6677 40.24273,16.0971 22.90741,7.4295 50.76776,16.7162 31.57507,10.5251 55.72071,26.003 24.76476,14.8589 38.38538,38.3854 14.23974,23.5265 14.23974,60.0546 0,30.9559 -16.71621,58.8163 -16.0971,27.2412 -48.29129,44.5765 -32.19419,17.3354 -81.10459,17.3354 z m 339.64127,0 q -43.95745,0 -78.009,-20.431 -33.43243,-20.4309 -52.62512,-56.9589 -19.19269,-37.1471 -19.19269,-86.0575 0,-49.5296 18.57357,-86.0576 19.19269,-36.528 53.24424,-56.9589 34.67066,-20.431 79.24723,-20.431 45.81481,0 77.38988,20.431 32.19419,20.4309 48.9104,53.8633 17.33534,32.8133 17.33534,72.4369 0,6.1912 0,13.0015 0,6.8103 -0.61912,15.478 H 561.36202 v -40.2427 h 204.9284 q -1.85736,-42.7192 -28.47948,-66.8649 -26.003,-24.1456 -65.62661,-24.1456 -26.62212,0 -49.52953,12.3824 -22.28828,11.7632 -35.9089,35.2897 -13.62062,22.9075 -13.62062,57.5781 v 17.3353 q 0,38.3854 13.62062,64.3884 14.23974,26.003 36.52802,39.0045 22.90741,13.0015 48.91041,13.0015 32.8133,0 53.86335,-14.2397 21.66917,-14.8589 30.95595,-39.6236 h 51.38688 q -7.42943,27.8603 -26.003,50.1486 -18.57357,22.2883 -46.43393,35.2898 -27.24123,12.3824 -63.76925,12.3824 z m 340.26087,0 q -43.95741,0 -79.24719,-20.431 -34.67067,-20.4309 -54.48247,-56.9589 -19.81181,-37.1471 -19.81181,-85.4384 0,-49.5295 19.81181,-86.0576 19.8118,-36.528 54.48247,-56.9589 35.28978,-21.0501 79.24719,-21.0501 55.7208,0 92.8679,29.0986 37.1471,28.4795 47.053,76.7708 h -53.2442 q -6.1912,-29.0986 -30.3368,-45.1957 -24.1457,-16.0971 -56.959,-16.0971 -26.62209,0 -49.5295,13.6206 -22.9074,13.0015 -36.52802,39.6236 -13.62062,26.6222 -13.62062,65.6267 0,29.0985 8.04855,52.006 8.04855,22.2882 21.66916,37.1471 13.62062,14.8588 31.57507,22.9074 18.57358,7.4294 38.38536,7.4294 22.2883,0 40.2428,-6.8103 17.9544,-7.4294 30.3368,-21.6692 12.3824,-14.2397 16.7162,-33.4324 h 53.2442 q -9.9059,47.0531 -47.6721,76.7708 -37.1472,29.0986 -92.2488,29.0986 z m 198.4825,-7.4295 v -312.0359 h 47.053 l 3.7147,59.4354 v 0 q 10.5251,-21.0501 26.6222,-35.9089 16.7162,-14.8589 39.6236,-22.9074 23.5265,-8.0486 53.2442,-8.0486 v 54.4825 h -19.1927 q -19.8118,0 -37.7662,5.5721 -17.9545,4.9529 -32.1942,16.7162 -13.6206,11.7633 -21.6692,32.1942 -7.4294,19.8118 -7.4294,49.5295 v 160.9709 z m 339.0232,7.4295 q -43.9574,0 -78.009,-20.431 -33.4324,-20.4309 -52.6251,-56.9589 -19.1927,-37.1471 -19.1927,-86.0575 0,-49.5296 18.5736,-86.0576 19.1927,-36.528 53.2442,-56.9589 34.6707,-20.431 79.2473,-20.431 45.8148,0 77.3898,20.431 32.1942,20.4309 48.9104,53.8633 17.3354,32.8133 17.3354,72.4369 0,6.1912 0,13.0015 0,6.8103 -0.6191,15.478 h -255.0771 v -40.2427 h 204.9284 q -1.8573,-42.7192 -28.4795,-66.8649 -26.003,-24.1456 -65.6266,-24.1456 -26.6221,0 -49.5295,12.3824 -22.2883,11.7632 -35.9089,35.2897 -13.6206,22.9075 -13.6206,57.5781 v 17.3353 q 0,38.3854 13.6206,64.3884 14.2397,26.003 36.528,39.0045 22.9074,13.0015 48.9104,13.0015 32.8133,0 53.8634,-14.2397 21.6691,-14.8589 30.9559,-39.6236 h 51.3869 q -7.4294,27.8603 -26.003,50.1486 -18.5736,22.2883 -46.4339,35.2898 -27.2413,12.3824 -63.7693,12.3824 z m 311.7814,-7.4295 q -27.8603,0 -48.2913,-8.6676 -20.4309,-8.6677 -31.575,-29.0986 -10.5251,-21.0501 -10.5251,-56.3398 v -173.9725 h -54.4824 v -43.9574 h 54.4824 l 6.8103,-75.5326 h 45.1957 v 75.5326 h 90.3914 v 43.9574 h -90.3914 v 173.9725 q 0,29.0985 11.7633,39.6236 11.7633,9.9059 41.481,9.9059 h 33.4324 v 44.5765 z m 222.6279,7.4295 q -39.0045,0 -68.1031,-13.0015 -28.4795,-13.0015 -45.8148,-35.9089 -16.7162,-23.5266 -20.431,-55.1016 h 53.2443 q 3.0956,16.0971 13.0015,29.7177 9.9059,13.6206 26.6221,22.2883 17.3353,8.0485 42.1001,8.0485 21.6692,0 35.9089,-6.1912 14.2397,-6.8103 21.05,-17.9544 7.4295,-11.1442 7.4295,-24.1457 0,-19.1926 -9.2868,-29.0986 -8.6677,-9.9059 -26.003,-15.4779 -17.3354,-6.1912 -42.1001,-10.5251 -20.4309,-3.7147 -40.2428,-9.9059 -19.8118,-6.1911 -35.2897,-16.0971 -15.478,-10.525 -24.7648,-25.3838 -8.6677,-14.8589 -8.6677,-36.5281 0,-26.6221 13.6207,-47.053 13.6206,-21.05 39.0045,-32.8133 26.003,-11.7633 60.0545,-11.7633 50.1486,0 81.1046,24.1457 30.9559,24.1456 36.528,69.9604 h -51.3869 q -3.0956,-23.5265 -20.4309,-36.528 -16.7162,-13.6206 -46.4339,-13.6206 -29.0986,0 -44.5766,11.7632 -14.8588,11.7633 -14.8588,30.956 0,12.3824 8.0485,22.2883 8.6677,9.2868 24.7648,16.0971 16.7162,6.8103 40.8618,11.1441 30.956,5.5721 56.3398,14.8589 25.3839,9.2868 40.8619,27.8603 16.0971,17.9545 16.0971,51.3869 0,29.0986 -14.8589,50.7678 -14.2397,21.6691 -40.8618,34.0515 -26.6221,11.7633 -62.531,11.7633 z m 315.6056,-7.4295 V 1232.472 h 60.6737 l 152.9224,302.7492 v 0 l 153.5415,-302.7492 h 61.2928 v 433.3833 h -52.006 v -340.5154 0 l -143.0165,279.8418 h -39.0045 l -142.3974,-278.6036 v 0 339.2772 z m 604.0049,7.4295 q -37.7662,0 -63.1501,-13.0015 -25.3839,-13.6206 -37.7663,-35.2898 -12.3824,-22.2883 -12.3824,-48.2913 0,-31.5751 16.0971,-53.2442 16.7162,-22.2883 46.434,-33.4325 30.3368,-11.7632 71.1986,-11.7632 h 82.3429 q 0,-29.0986 -9.2868,-48.2913 -8.6677,-19.8118 -26.003,-29.7177 -16.7162,-9.9059 -42.1001,-9.9059 -29.7177,0 -51.3869,14.8588 -21.6692,14.8589 -26.6221,43.9575 h -53.2442 q 3.7147,-33.4324 22.2882,-55.7207 19.1927,-22.9074 48.2913,-34.6707 29.0986,-12.3824 60.6737,-12.3824 43.3383,0 71.8178,16.0971 29.0986,15.478 43.3383,43.9575 14.2398,27.8603 14.2398,66.2457 v 193.1651 h -46.434 l -3.0956,-55.1015 v 0 q -6.1911,13.0015 -16.097,24.7647 -9.2868,11.1442 -22.2883,19.8118 -13.0015,8.0486 -29.7177,13.0015 -16.0971,4.953 -37.1472,4.953 z m 8.0486,-43.9575 q 21.6691,0 39.0045,-8.6676 17.9544,-9.2868 30.3368,-24.7648 12.3824,-16.0971 18.5736,-35.2898 6.8103,-19.1927 6.8103,-40.2427 v -1.8574 h -78.009 q -30.3369,0 -48.9104,7.4294 -18.5736,6.8104 -26.6221,19.8119 -8.0486,12.3823 -8.0486,28.4794 0,16.7162 7.4294,29.0986 8.0486,12.3824 22.9074,19.1927 15.478,6.8103 36.5281,6.8103 z m 212.1031,36.528 v -312.0359 h 47.0531 l 2.4765,54.4824 v 0 q 14.8588,-29.0986 42.1001,-45.1957 27.8603,-16.7162 63.1501,-16.7162 36.528,0 63.1501,14.8589 26.6222,14.2397 41.481,43.9574 14.8589,29.0986 14.8589,74.2943 v 186.3548 h -52.006 v -180.7827 q 0,-47.0531 -21.0501,-70.5796 -20.4309,-23.5265 -58.1972,-23.5265 -26.003,0 -46.4339,13.0015 -20.4309,12.3824 -32.8133,36.528 -11.7633,23.5265 -11.7633,58.8163 v 166.543 z m 441.7956,7.4295 q -37.7663,0 -63.1502,-13.0015 -25.3838,-13.6206 -37.7662,-35.2898 -12.3824,-22.2883 -12.3824,-48.2913 0,-31.5751 16.0971,-53.2442 16.7162,-22.2883 46.4339,-33.4325 30.3369,-11.7632 71.1987,-11.7632 h 82.3428 q 0,-29.0986 -9.2867,-48.2913 -8.6677,-19.8118 -26.003,-29.7177 -16.7163,-9.9059 -42.1001,-9.9059 -29.7178,0 -51.3869,14.8588 -21.6692,14.8589 -26.6221,43.9575 h -53.2443 q 3.7147,-33.4324 22.2883,-55.7207 19.1927,-22.9074 48.2913,-34.6707 29.0986,-12.3824 60.6737,-12.3824 43.3383,0 71.8178,16.0971 29.0986,15.478 43.3383,43.9575 14.2397,27.8603 14.2397,66.2457 v 193.1651 h -46.4339 l -3.0956,-55.1015 v 0 q -6.1912,13.0015 -16.0971,24.7647 -9.2868,11.1442 -22.2883,19.8118 -13.0015,8.0486 -29.7177,13.0015 -16.0971,4.953 -37.1471,4.953 z m 8.0485,-43.9575 q 21.6692,0 39.0045,-8.6676 17.9545,-9.2868 30.3369,-24.7648 12.3823,-16.0971 18.5735,-35.2898 6.8103,-19.1927 6.8103,-40.2427 v -1.8574 h -78.009 q -30.3368,0 -48.9104,7.4294 -18.5735,6.8104 -26.6221,19.8119 -8.0485,12.3823 -8.0485,28.4794 0,16.7162 7.4294,29.0986 8.0485,12.3824 22.9074,19.1927 15.478,6.8103 36.528,6.8103 z m 335.3079,180.1637 q -42.1001,0 -74.9134,-11.1442 -32.1942,-10.525 -50.1486,-32.8133 -17.9545,-22.2883 -17.9545,-55.1016 0,-14.2397 5.5721,-30.3368 6.1912,-16.0971 20.4309,-31.5751 14.8589,-15.478 41.481,-27.8603 l 35.9089,21.05 q -32.8133,13.6206 -42.7192,30.956 -9.9059,17.9544 -9.9059,32.8133 0,20.4309 11.7632,34.0515 11.7633,13.6206 32.8133,20.4309 21.0501,6.8103 47.6722,6.8103 26.6221,0 45.8148,-7.4294 19.1927,-7.4294 29.7177,-21.05 10.525,-13.6206 10.525,-32.1942 0,-21.6692 -16.0971,-36.528 -16.097,-14.2398 -61.2927,-16.7163 -36.5281,-2.4764 -61.2928,-6.8103 -24.7648,-4.3338 -40.8619,-9.9059 -16.0971,-6.1912 -27.2412,-13.6206 -10.525,-7.4294 -19.1927,-15.478 v -14.2397 l 60.0545,-59.4354 45.1957,16.0971 -61.9119,55.7207 8.0486,-21.6692 q 6.8103,4.953 13.0015,9.2868 6.1912,4.3338 16.7162,7.4294 10.525,3.0956 29.0986,5.5721 19.1927,2.4765 50.1486,4.953 42.7192,3.0955 68.1031,14.8588 26.003,11.7633 37.1472,31.5751 11.7632,19.8118 11.7632,47.053 0,26.6221 -14.8588,50.1487 -14.2398,24.1456 -44.5766,39.6236 -30.3368,15.478 -78.009,15.478 z m -0.6191,-241.4565 q -39.0045,0 -66.8649,-14.8588 -27.2412,-14.8589 -41.4809,-39.6236 -14.2398,-25.3839 -14.2398,-56.3399 0,-30.9559 14.2398,-55.7207 14.8588,-24.7647 42.1,-39.6236 27.2413,-15.478 66.2458,-15.478 39.0045,0 66.2457,15.478 27.2413,14.8589 41.481,39.6236 14.2397,24.7648 14.2397,55.7207 0,30.956 -14.2397,56.3399 -14.2397,24.7647 -41.481,39.6236 -27.2412,14.8588 -66.2457,14.8588 z m 0,-42.7192 q 33.4324,0 52.6251,-17.3353 19.1927,-17.3353 19.1927,-50.7678 0,-32.8133 -19.1927,-50.1486 -19.1927,-17.3353 -52.6251,-17.3353 -32.8133,0 -53.2443,17.3353 -19.8118,17.3353 -19.8118,50.1486 0,33.4325 19.8118,50.7678 19.8119,17.3353 53.2443,17.3353 z m 50.7677,-127.5385 -15.4779,-43.9574 h 127.5385 v 39.0045 z m 281.4442,275.508 q -43.9575,0 -78.009,-20.431 -33.4324,-20.4309 -52.6251,-56.9589 -19.1927,-37.1471 -19.1927,-86.0575 0,-49.5296 18.5736,-86.0576 19.1926,-36.528 53.2442,-56.9589 34.6707,-20.431 79.2472,-20.431 45.8148,0 77.3899,20.431 32.1942,20.4309 48.9104,53.8633 17.3353,32.8133 17.3353,72.4369 0,6.1912 0,13.0015 0,6.8103 -0.6191,15.478 h -255.077 v -40.2427 h 204.9284 q -1.8574,-42.7192 -28.4795,-66.8649 -26.003,-24.1456 -65.6266,-24.1456 -26.6221,0 -49.5295,12.3824 -22.2883,11.7632 -35.9089,35.2897 -13.6207,22.9075 -13.6207,57.5781 v 17.3353 q 0,38.3854 13.6207,64.3884 14.2397,26.003 36.528,39.0045 22.9074,13.0015 48.9104,13.0015 32.8133,0 53.8633,-14.2397 21.6692,-14.8589 30.956,-39.6236 h 51.3869 q -7.4295,27.8603 -26.003,50.1486 -18.5736,22.2883 -46.434,35.2898 -27.2412,12.3824 -63.7692,12.3824 z m 199.7208,-7.4295 v -312.0359 h 47.0531 l 3.0956,44.5765 v 0 q 14.8588,-24.1456 39.6236,-37.7662 25.3839,-14.2398 55.1016,-14.2398 24.1456,0 43.3383,6.8103 19.8118,6.1912 34.6707,19.8119 14.8588,13.0015 24.1456,33.4324 v 0 q 16.0971,-28.4795 43.9575,-43.9575 28.4794,-16.0971 60.6736,-16.0971 35.9089,0 62.531,14.8589 27.2413,14.2397 41.481,43.9574 14.8589,29.0986 14.8589,74.2943 v 186.3548 h -51.3869 v -180.7827 q 0,-47.0531 -19.1927,-70.5796 -19.1927,-23.5265 -53.8633,-23.5265 -24.1457,0 -43.3384,13.0015 -19.1927,12.3824 -30.3368,36.528 -11.1441,24.1457 -11.1441,59.4354 v 165.9239 h -52.006 v -180.7827 q 0,-47.0531 -19.1927,-70.5796 -19.1927,-23.5265 -54.4825,-23.5265 -23.5265,0 -42.7192,13.0015 -18.5736,12.3824 -29.7177,36.528 -11.1442,24.1457 -11.1442,59.4354 v 165.9239 z m 673.3468,7.4295 q -43.9574,0 -78.009,-20.431 -33.4324,-20.4309 -52.6251,-56.9589 -19.1927,-37.1471 -19.1927,-86.0575 0,-49.5296 18.5736,-86.0576 19.1927,-36.528 53.2442,-56.9589 34.6707,-20.431 79.2473,-20.431 45.8148,0 77.3898,20.431 32.1942,20.4309 48.9104,53.8633 17.3354,32.8133 17.3354,72.4369 0,6.1912 0,13.0015 0,6.8103 -0.6192,15.478 h -255.077 v -40.2427 h 204.9284 q -1.8574,-42.7192 -28.4795,-66.8649 -26.003,-24.1456 -65.6266,-24.1456 -26.6221,0 -49.5295,12.3824 -22.2883,11.7632 -35.9089,35.2897 -13.6206,22.9075 -13.6206,57.5781 v 17.3353 q 0,38.3854 13.6206,64.3884 14.2397,26.003 36.528,39.0045 22.9074,13.0015 48.9104,13.0015 32.8133,0 53.8634,-14.2397 21.6691,-14.8589 30.9559,-39.6236 h 51.3869 q -7.4294,27.8603 -26.003,50.1486 -18.5736,22.2883 -46.4339,35.2898 -27.2413,12.3824 -63.7693,12.3824 z m 199.7211,-7.4295 v -312.0359 h 47.053 l 2.4765,54.4824 v 0 q 14.8589,-29.0986 42.1001,-45.1957 27.8604,-16.7162 63.1502,-16.7162 36.528,0 63.1501,14.8589 26.6221,14.2397 41.481,43.9574 14.8588,29.0986 14.8588,74.2943 v 186.3548 h -52.006 v -180.7827 q 0,-47.0531 -21.05,-70.5796 -20.4309,-23.5265 -58.1972,-23.5265 -26.003,0 -46.4339,13.0015 -20.431,12.3824 -32.8133,36.528 -11.7633,23.5265 -11.7633,58.8163 v 166.543 z m 462.8458,0 q -27.8603,0 -48.2913,-8.6676 -20.4309,-8.6677 -31.575,-29.0986 -10.5251,-21.0501 -10.5251,-56.3398 v -173.9725 h -54.4824 v -43.9574 h 54.4824 l 6.8103,-75.5326 h 45.1957 v 75.5326 h 90.3914 v 43.9574 h -90.3914 v 173.9725 q 0,29.0985 11.7633,39.6236 11.7633,9.9059 41.481,9.9059 h 33.4324 v 44.5765 z"
     id="path9"
     style="font-size:619.119px;line-height:66.6734px;font-family:'DM Sans';-inkscape-font-specification:'DM Sans, Normal';letter-spacing:-15.1139px;word-spacing:-15.1139px;stroke-width:41.6198;stroke-linecap:round;stroke-linejoin:round;stroke-miterlimit:0"
     aria-label="Secrets Management" /></svg>
