<?xml version="1.0" encoding="UTF-8" standalone="no"?>
<!-- Created with Inkscape (http://www.inkscape.org/) -->

<svg
   version="1.1"
   id="svg1"
   width="6100"
   height="1200"
   viewBox="0 0 6100 1200"
   xml:space="preserve"
   xmlns="http://www.w3.org/2000/svg"
   xmlns:svg="http://www.w3.org/2000/svg"><defs
     id="defs1"><rect
       x="1899.4994"
       y="-1249.2203"
       width="2139.0759"
       height="1249.2203"
       id="rect3" /><clipPath
       clipPathUnits="userSpaceOnUse"
       id="clipPath15"><g
         id="use15" /></clipPath><clipPath
       clipPathUnits="userSpaceOnUse"
       id="clipPath20"><g
         id="use20"
         style="display:inline" /></clipPath><clipPath
       clipPathUnits="userSpaceOnUse"
       id="clipPath23"><g
         id="use23"
         style="stroke-width:1.52068"><path
           style="display:inline;opacity:1;fill:#87d6be;fill-opacity:1;stroke:none;stroke-width:144.464;stroke-linecap:round;stroke-linejoin:round;stroke-miterlimit:0;stroke-opacity:1"
           id="path37"
           d="M 2479.5983,735.4187 A 1207.5515,346.58099 0 0 1 1272.0468,1081.9997 1207.5515,346.58099 0 0 1 64.495239,735.4187 1207.5515,346.58099 0 0 1 1272.0468,388.83771 1207.5515,346.58099 0 0 1 2479.5983,735.4187 Z" /></g></clipPath><filter
       style="color-interpolation-filters:sRGB"
       id="filter31"
       x="0"
       y="-0.041911889"
       width="1"
       height="1.0419118"><feColorMatrix
         values="0 0 0 0 0 0 0 0 0 0 0 0 0 0 0 -1 -1 -1 1 0 "
         id="feColorMatrix31" /></filter></defs><path
     style="display:inline;opacity:1;fill:#87d6be;fill-opacity:1;stroke:none;stroke-width:144.464;stroke-opacity:1;stroke-linecap:round;stroke-linejoin:round;stroke-miterlimit:0"
     id="path1"
     d="M 2479.5983,735.4187 A 1207.5515,346.58099 0 0 1 1272.0468,1081.9997 1207.5515,346.58099 0 0 1 64.495239,735.4187 1207.5515,346.58099 0 0 1 1272.0468,388.83771 1207.5515,346.58099 0 0 1 2479.5983,735.4187 Z"
     transform="matrix(0.65760184,0,0,0.65760184,131.10889,207.54846)" /><path
     id="path2"
     style="baseline-shift:baseline;display:inline;overflow:visible;opacity:1;vector-effect:none;fill:#79c0ab;fill-opacity:1;stroke:none;stroke-width:1.52068;stroke-linecap:round;stroke-linejoin:round;stroke-miterlimit:0;stroke-opacity:1;enable-background:accumulate;stop-color:#000000;stop-opacity:1"
     d="m 2182.3475,713.29312 c -28.0601,23.38102 -65.0139,37.89517 -104.3624,37.80902 h -232.7022 -47.3162 -0.7396 c 19.3073,65.00874 24.9234,130.26305 15.7236,188.76294 -4.035,25.65748 -10.8743,50.31161 -21.3697,72.90632 l 386.9707,-296.29139 c 1.3122,-1.00507 2.5788,-2.06843 3.7958,-3.18689 z m -1880.43297,1.13754 c 1.13807,1.05814 2.32022,2.06787 3.54329,3.0265 l 189.86781,148.6046 183.44058,143.57624 c -9.69336,-21.73383 -16.09467,-45.2958 -19.94404,-69.77292 -9.22295,-58.64614 -4.17687,-124.09518 15.13252,-189.26785 h -269.6885 c -38.41707,0.0841 -74.549,-13.7519 -102.35166,-36.16657 z"
     transform="matrix(0.65760184,0,0,0.65760184,131.10889,207.54846)" /><path
     style="display:inline;opacity:1;fill:#fdd0a4;fill-opacity:1;stroke:none;stroke-width:1.52068;stroke-opacity:1;baseline-shift:baseline;overflow:visible;vector-effect:none;stroke-linejoin:round;enable-background:accumulate;stop-color:#000000;stop-opacity:1"
     d="m 1235.8863,408.10695 c -191.2958,0 -374.79716,92.98459 -469.8872,265.28004 -95.09005,172.29545 -67.13547,386.61611 66.50535,386.32371 h 403.38185 403.3818 c 133.6409,0.2924 161.5955,-214.02826 66.5054,-386.32371 -95.09,-172.29545 -278.5914,-265.28004 -469.8872,-265.28004 z"
     id="path3"
     transform="matrix(0.65760184,0,0,0.65760184,-150.58018,-32.107218)" /><path
     style="display:inline;opacity:1;fill:#dab991;fill-opacity:1;stroke:none;stroke-width:1.52068;stroke-opacity:1;baseline-shift:baseline;overflow:visible;vector-effect:none;stroke-linejoin:round;enable-background:accumulate;stop-color:#000000;stop-opacity:1"
     d="m 1235.8863,408.10695 c -191.2958,0 -374.79716,92.98459 -469.8872,265.28004 -95.09005,172.29545 -67.13547,386.61611 66.50535,386.32371 h 403.38185 403.3818 c 133.6409,0.2924 161.5955,-214.02826 66.5054,-386.32371 -95.09,-172.29545 -278.5914,-265.28004 -469.8872,-265.28004 z"
     id="path4"
     transform="matrix(0.65760184,0,0,0.65760184,419.69098,-31.775662)" /><path
     style="display:inline;opacity:1;fill:#fdfccf;fill-opacity:1;stroke:none;stroke-width:1.52068;stroke-opacity:1;baseline-shift:baseline;overflow:visible;vector-effect:none;stroke-linejoin:round;enable-background:accumulate;stop-color:#000000;stop-opacity:1"
     d="m 1235.8863,408.10695 c -191.2958,0 -374.79716,92.98459 -469.8872,265.28004 -95.09005,172.29545 -67.13547,386.61611 66.50535,386.32371 h 403.38185 403.3818 c 133.6409,0.2924 161.5955,-214.02826 66.5054,-386.32371 -95.09,-172.29545 -278.5914,-265.28004 -469.8872,-265.28004 z"
     id="path5"
     transform="matrix(0.65760184,0,0,0.65760184,131.10884,207.54846)" /><path
     id="path6"
     style="display:inline;opacity:1;fill:#091a28;fill-opacity:1;stroke:none;stroke-width:144.464;stroke-linecap:round;stroke-linejoin:round;stroke-miterlimit:0;stroke-opacity:1"
     d="m 807.52478,-11.659944 c -6.57389,1.22e-4 -12.9519,0.483348 -19.24013,1.179119 C 585.93599,-4.3626247 391.51559,96.825676 289.19965,282.21386 252.78521,348.19387 232.1033,418.6839 227.15781,485.48264 v 0 C 82.19489,559.04621 4.6014576,646.18492 4.6013795,735.41719 4.6010826,852.53185 138.13552,964.85128 375.82774,1047.6639 c 237.69222,82.8126 560.07165,129.3347 896.21936,129.3347 336.1476,0 658.5271,-46.5221 896.2193,-129.3347 237.6922,-82.81263 371.2266,-195.13206 371.2263,-312.24671 -2e-4,-102.1719 -101.6936,-201.18231 -287.7495,-280.15801 -8.2547,-57.42343 -27.8194,-116.60266 -58.6916,-172.54041 C 2090.7362,97.330755 1896.318,-3.8575299 1693.9696,-9.975913 c -6.2885,-0.695695 -12.6689,-1.179103 -19.2431,-1.179119 h -0 c -6.5742,1.22e-4 -12.9548,0.483303 -19.2431,1.179119 -155.3428,4.697645 -305.8707,65.582231 -413.7489,177.458853 h -0.3623 C 1133.4111,55.196328 982.43726,-5.773965 826.77085,-10.480825 c -6.28841,-0.695695 -12.66897,-1.179119 -19.2431,-1.179119 z M 752.20124,117.38673 v 125.93106 c -3e-4,11.68332 3.69786,23.06689 10.56455,32.51932 3.41312,4.69807 7.54457,8.82953 12.24264,12.24264 9.45244,6.86669 20.83602,10.56485 32.51932,10.56455 30.55577,-5.5e-4 55.32596,-24.77074 55.32651,-55.32651 V 117.38673 c 0.77416,0.41537 1.54644,0.83818 2.31368,1.26525 21.8835,12.18074 42.43036,30.05789 45.51636,33.74596 19.6022,23.42667 45.73614,67.29562 45.73614,90.91985 5.5e-4,30.55693 24.77256,55.3276 55.32946,55.32651 30.5558,-5.5e-4 55.326,-24.77075 55.3265,-55.32651 0,-32.61264 -8.3685,-61.31471 -19.9084,-85.82915 46.9303,25.04174 89.4132,57.89665 125.2094,98.13119 0.016,-0.0252 0.032,-0.049 0.047,-0.0743 v 0.5554 c -5.5998,8.62699 -10.9771,17.46861 -16.0265,26.61779 -14.6904,26.61787 -26.8201,53.97215 -36.3893,81.51957 -34.1176,6.28531 -67.3299,16.04339 -99.7351,27.83552 7.1111,-2.58789 13.9964,-5.73299 21.2063,-8.0578 -1.573,-2.81738 -3.4725,-5.53116 -5.652,-8.08751 -18.9252,-22.19802 -44.51235,-36.5621 -71.99455,-37.02195 -27.48211,-0.45982 -54.46527,14.40785 -70.26597,37.65754 -12.94731,19.05112 -17.14491,34.71007 9.33493,51.05258 7.94171,4.90137 16.48458,6.71538 24.53874,6.6886 2.51681,-1.44365 5.22887,-2.51481 7.76674,-3.9205 -86.90005,48.1348 -161.78735,118.22217 -213.88382,209.55939 h -0.003 -4.66301 -312.51398 c -0.0395,-4e-5 -0.0793,-4e-5 -0.1188,0 -18.61792,0.0411 -27.61991,-4.83294 -38.40897,-17.14622 -10.78906,-12.31327 -21.12993,-34.59691 -25.8426,-64.56343 -9.42534,-59.93305 4.55907,-146.91068 46.30639,-222.55346 43.14421,-78.17381 106.79537,-138.16606 181.80704,-178.19246 -11.53957,24.51412 -19.9084,53.21714 -19.9084,85.82915 5.5e-4,30.55691 24.77257,55.3276 55.32948,55.32651 30.55577,-5.5e-4 55.32596,-24.77074 55.32651,-55.32651 0,-23.62423 26.13393,-67.49317 45.73614,-90.91985 3.086,-3.68808 23.63286,-21.56522 45.51636,-33.74596 0.76724,-0.42707 1.53951,-0.84988 2.31368,-1.26525 z M 1619.4,117.89164 v 125.92809 c -9e-4,11.68434 3.6973,23.06904 10.5645,32.5223 3.4124,4.69677 7.5429,8.8272 12.2397,12.23966 9.4528,6.86834 20.8376,10.5676 32.5223,10.56752 30.5569,-5.6e-4 55.3276,-24.77257 55.3265,-55.32948 V 117.89164 c 0.7742,0.41537 1.5465,0.83521 2.3137,1.26228 21.8834,12.18073 42.4304,30.06085 45.5163,33.74893 19.6023,23.42664 45.7362,67.29265 45.7362,90.91688 -0,30.5581 24.7713,55.33061 55.3295,55.32948 30.5569,-5.6e-4 55.3275,-24.77257 55.3265,-55.32948 0,-32.61263 -8.3685,-61.31174 -19.9084,-85.82617 75.0128,40.02639 138.6624,100.01773 181.807,178.19245 41.7473,75.64278 55.7317,162.62041 46.3064,222.55346 -4.7127,29.96652 -15.0535,52.25014 -25.8426,64.56343 -10.789,12.31329 -19.791,17.18692 -38.409,17.14623 -0.041,-5e-5 -0.081,-5e-5 -0.1217,0 h -327.3733 c -54.6661,-96.11083 -134.3381,-169.08936 -226.9254,-217.37365 4.1511,0.0273 6.9606,1.90328 11.3368,4.03335 11.7668,5.72695 31.8462,9.64163 49.0953,-1.00388 26.4798,-16.34252 22.2823,-32.00444 9.3349,-51.05554 -15.8006,-23.24969 -42.7838,-38.11442 -70.266,-37.65458 -27.4821,0.45984 -53.0692,14.82395 -71.9945,37.02195 -3.6312,4.25936 -6.4882,8.96104 -8.3489,13.84054 -60.0094,-20.80393 -123.522,-32.35374 -187.8363,-34.2984 -3.5029,-0.38752 -7.0345,-0.70881 -10.612,-0.91775 2.7711,-5.66926 5.692,-11.29319 8.7617,-16.85516 43.1442,-78.17385 106.7954,-138.16606 181.807,-178.19245 -11.5395,24.51413 -19.9084,53.21413 -19.9084,85.82617 -0,30.5581 24.7713,55.33061 55.3295,55.32948 30.5569,-5.6e-4 55.3276,-24.77257 55.3265,-55.32948 0,-23.62423 26.134,-67.49024 45.7361,-90.91688 3.0861,-3.68808 23.6329,-21.5682 45.5164,-33.74893 0.7673,-0.42707 1.5395,-0.84691 2.3137,-1.26228 z M 575.44333,335.88009 c -27.48214,0.45984 -53.07228,14.8269 -71.99752,37.02493 -13.15011,15.42418 -16.11976,36.62784 1.44346,51.20404 15.59712,12.94451 31.4357,13.58303 58.51339,1.05141 13.39945,-6.20129 16.26965,-3.2643 23.87344,0.4366 11.7668,5.72694 31.84629,9.64164 49.0953,-1.00389 26.47979,-16.3425 22.28224,-32.00444 9.33493,-51.05554 -15.8007,-23.24969 -42.7809,-38.11738 -70.263,-37.65755 z m 1349.36617,1.51474 c -27.4821,-0.45984 -54.4622,14.40489 -70.263,37.65458 -12.9473,19.0511 -17.1477,34.71302 9.332,51.05554 17.249,10.64551 37.3314,6.73083 49.0983,1.00388 7.6038,-3.70082 10.4738,-6.63789 23.8734,-0.4366 27.0776,12.53163 42.9133,11.89312 58.5104,-1.0514 17.5633,-14.57621 14.5937,-35.77987 1.4435,-51.20405 -18.9251,-22.19799 -44.5123,-36.56211 -71.9946,-37.02195 z m -744.2496,144.43165 v 125.92809 c -9e-4,11.68434 3.6973,23.06903 10.5646,32.52229 3.4124,4.69678 7.5428,8.8272 12.2396,12.23967 9.4529,6.86834 20.8376,10.56759 32.5223,10.56752 30.5569,-5.8e-4 55.3276,-24.77258 55.3265,-55.32948 V 481.82648 c 0.7742,0.41537 1.5464,0.83521 2.3137,1.26228 21.8835,12.18073 42.4303,30.06083 45.5164,33.74893 19.6021,23.42662 45.7361,67.29268 45.7361,90.91688 -0,30.55808 24.7714,55.33055 55.3295,55.32948 30.5557,-0.002 55.3246,-24.77375 55.3235,-55.32948 0,-32.61262 -8.3684,-61.31175 -19.9084,-85.82618 75.0129,40.0264 138.6654,100.01775 181.81,178.19246 41.7473,75.64276 55.7288,162.62043 46.3035,222.55346 -4.7128,29.9665 -15.0505,52.25014 -25.8397,64.56343 -10.7889,12.31328 -19.7911,17.18696 -38.4089,17.14626 -0.041,0 -0.081,0 -0.1218,0 H 1235.8864 832.50309 c -0.0406,0 -0.0812,0 -0.12177,0 -18.61791,0.041 -27.61696,-4.83298 -38.40601,-17.14626 -10.78903,-12.31327 -21.13,-34.59693 -25.8426,-64.56343 -9.42535,-59.93303 4.55909,-146.9107 46.3064,-222.55346 43.14421,-78.17379 106.79537,-138.16606 181.80703,-178.19246 -11.53956,24.51412 -19.90839,53.21418 -19.90839,85.82618 -0.001,30.55806 24.77135,55.33053 55.32945,55.32948 30.5569,-5.8e-4 55.3276,-24.77258 55.3265,-55.32948 0,-23.6242 26.134,-67.49024 45.7362,-90.91688 3.086,-3.6881 23.6328,-21.5682 45.5163,-33.74893 0.7673,-0.42707 1.5395,-0.84691 2.3137,-1.26228 z m 1075.3295,52.63562 c 145.5166,58.68626 223.7104,128.92762 223.7089,200.95806 -8e-4,136.30708 -278.3796,259.95736 -711.3502,315.96814 24.4966,-31.6668 38.2194,-70.29877 44.7026,-111.52322 9.1998,-58.49989 3.5837,-123.7542 -15.7236,-188.76294 h 0.7396 47.3162 232.7022 c 48.2026,0.10554 92.8124,-21.70126 121.8799,-54.87506 29.0673,-33.17381 44.8309,-75.1828 51.9257,-120.29683 2.1217,-13.4913 3.4873,-27.343 4.0987,-41.46815 z M 230.4635,575.42533 c 7.09481,45.11404 22.85842,87.12305 51.92577,120.29684 29.06733,33.1738 73.67442,54.98056 121.87692,54.87506 h 269.6885 c -19.30939,65.17267 -24.35547,130.62171 -15.13252,189.26785 5.86799,37.31298 17.8032,72.41592 38.15355,102.23882 -0.51494,-0.7546 -1.1622,-1.4246 -1.66621,-2.186 C 306.53189,979.25886 64.494233,862.42574 64.495857,735.42016 64.49418,674.15012 121.08441,613.97503 228.50028,561.02642 c -0.75327,-6.5096 0.21006,3.25108 1.96322,14.39891 z m 1192.986,123.88766 c -27.4822,-0.45984 -54.4623,14.40488 -70.263,37.65458 -12.9472,19.0511 -17.145,34.71302 9.3349,51.05554 17.249,10.64551 37.3284,6.73083 49.0953,1.00388 7.6037,-3.70082 10.474,-6.63789 23.8734,-0.4366 27.0778,12.53163 42.9163,11.89312 58.5134,-1.0514 17.5632,-14.57621 14.5937,-35.77987 1.4435,-51.20405 -18.9251,-22.19802 -44.5154,-36.56211 -71.9975,-37.02195 z m -419.6475,1.00685 c -27.48214,0.45986 -53.07228,14.8269 -71.99751,37.02493 -13.15012,15.42418 -16.11976,36.62487 1.44345,51.20107 15.59713,12.94451 31.4357,13.58602 58.5134,1.05438 13.39946,-6.20129 16.26966,-3.26421 23.87346,0.4366 11.7668,5.72694 31.8463,9.63867 49.0953,-1.00686 26.4798,-16.3425 22.2822,-32.00145 9.3349,-51.05257 -15.8007,-23.24969 -42.7809,-38.11737 -70.263,-37.65755 z"
     transform="matrix(0.65760184,0,0,0.65760184,131.10889,207.54846)" /><path
     style="display:inline;opacity:1;fill:#000000;fill-opacity:1;stroke:none;stroke-width:144.464;stroke-opacity:1;font-weight:500;font-size:1646.06px;line-height:1693.08px;font-family:'DM Mono';-inkscape-font-specification:'DM Mono, Medium';letter-spacing:-95px;word-spacing:0px;stroke-linecap:round;stroke-linejoin:round;stroke-miterlimit:0"
     d="m 3112.8439,1042.5269 c -93.2767,0 -173.9337,-24.1422 -241.9708,-72.42665 -68.0372,-48.28443 -120.1624,-116.87026 -156.3757,-205.75751 -36.2133,-88.88724 -54.32,-194.78377 -54.32,-317.68959 0,-122.90582 18.1067,-228.80235 54.32,-317.68959 36.2133,-88.887244 88.3385,-157.473081 156.3757,-205.757509 68.0371,-48.284431 148.6941,-72.426641 241.9708,-72.426641 94.3741,0 175.0311,24.14221 241.9708,72.426641 68.0371,48.284428 120.1624,116.870265 156.3757,205.757509 36.2133,88.88724 54.32,194.78377 54.32,317.68959 0,122.90582 -18.1067,228.80235 -54.32,317.68959 -36.2133,88.88725 -88.3386,157.47308 -156.3757,205.75751 -66.9397,48.28445 -147.5967,72.42665 -241.9708,72.42665 z m 0,-164.60602 c 82.303,0 148.6941,-36.76201 199.1733,-110.28602 50.4791,-74.62139 75.7187,-181.61529 75.7187,-320.98171 0,-139.36642 -25.2396,-245.81164 -75.7187,-319.33565 C 3261.538,52.696109 3195.1469,15.385414 3112.8439,15.385414 c -83.4004,0 -150.3402,37.310695 -200.8193,111.932086 -49.3818,73.52401 -74.0727,179.96923 -74.0727,319.33565 0,139.36642 24.6909,246.36032 74.0727,320.98171 50.4791,73.52401 117.4189,110.28602 200.8193,110.28602 z m 512.3968,506.98652 V 206.32838 l 164.6061,0 -10e-5,125.10057 h 9.8763 c 21.9475,-40.60282 54.8687,-74.6214 98.7637,-102.05573 44.9923,-28.53171 98.2149,-42.79756 159.6678,-42.79756 63.6477,0 121.8084,16.4606 174.4823,49.3818 52.6739,31.82383 94.3741,79.55957 125.1006,143.20723 31.8238,62.55028 47.7357,141.01248 47.7357,235.38659 0,93.27673 -16.4606,171.73893 -49.3818,235.38658 -31.8238,63.64766 -75.17,111.93209 -130.0387,144.85329 -54.8687,31.82385 -116.3216,47.73575 -184.3587,47.73575 -60.3555,0 -110.8347,-12.0711 -151.4375,-36.2133 -40.6029,-24.14223 -70.7807,-51.57658 -90.5334,-82.30303 v 460.89683 z m 386.8241,-508.63258 c 61.4529,0 112.4808,-21.94747 153.0836,-65.8424 41.7002,-43.89493 62.5503,-109.73733 62.5503,-197.5272 0,-87.78987 -20.8501,-153.08359 -62.5503,-195.88115 -40.6028,-42.79756 -91.6307,-64.19634 -153.0836,-64.19634 -62.5503,0 -114.6755,21.94747 -156.3757,65.8424 -40.6028,42.79756 -60.9042,108.09128 -60.9042,195.88115 0,86.69249 20.3014,151.98621 60.9042,195.88114 41.7002,43.89493 93.8254,65.8424 156.3757,65.8424 z m 895.9288,166.25208 c -79.0109,0 -148.6942,-17.558 -209.0497,-52.67393 -60.3555,-36.21332 -107.5426,-86.14381 -141.5611,-149.79147 -34.0186,-63.64765 -51.0279,-137.72035 -51.0279,-222.2181 0,-85.59513 16.4606,-160.7652 49.3818,-225.51023 34.0186,-64.74503 81.2057,-115.22421 141.5612,-151.43753 61.4529,-36.21332 132.2334,-54.31998 212.3417,-54.31998 79.0109,0 147.0481,18.10666 204.1115,54.31998 57.0634,35.11595 100.9583,82.303 131.6848,141.56117 31.8238,59.25816 47.7357,124.55187 47.7357,195.88114 v 36.21333 c 0,12.07111 -0.5487,25.78827 -1.646,41.1515 h -613.9804 c 5.4869,75.71876 30.1778,133.33086 74.0727,172.8363 43.8949,38.40807 95.4715,57.61211 154.7296,57.61211 51.5765,0 92.1794,-10.42505 121.8085,-31.27515 30.7264,-21.94747 53.2225,-51.57655 67.4884,-88.88724 h 176.1284 c -19.7527,77.91351 -60.9042,143.75591 -123.4545,197.52721 -62.5503,52.67389 -142.6585,79.01089 -240.3247,79.01089 z m 0,-704.51371 c -53.7713,0 -101.5071,16.4606 -143.2073,49.3818 -41.7001,31.82383 -68.5858,76.81613 -80.6569,134.97692 h 434.5599 c -4.3895,-54.86867 -25.7883,-99.31229 -64.1964,-133.33086 -38.4081,-34.01857 -87.2412,-51.02786 -146.4993,-51.02786 z m 517.3349,684.76101 V 206.32838 l 166.252,0 0,121.80845 h 8.2303 c 21.9475,-39.50545 55.9661,-72.97534 102.0558,-100.40967 46.0897,-27.43433 99.3123,-41.1515 159.6678,-41.1515 99.861,0 175.0311,30.17777 225.5102,90.5333 50.4792,60.35554 75.7188,149.24278 75.7188,266.66173 V 1022.7742 H 5988.281 V 565.16947 c 0,-68.03715 -14.2658,-120.71107 -42.7975,-158.02176 -28.5317,-37.31069 -73.5241,-55.96604 -134.977,-55.96604 -60.3555,0 -110.8347,20.30141 -151.4375,60.90422 -39.5055,40.60281 -59.2582,99.31229 -59.2582,176.12842 v 434.55989 z m 856.4234,0 V -129.46787 h 411.515 c 119.6137,0 210.147,27.43433 271.5999,82.303002 61.4529,54.8686687 92.1794,125.649251 92.1794,212.341748 0,66.93977 -17.558,121.25976 -52.674,162.95995 -35.1159,41.70019 -75.7187,71.87795 -121.8084,90.5333 v 11.52242 c 54.8687,19.75272 102.0557,52.12523 141.5612,97.11754 39.5054,43.89493 59.2581,102.05572 59.2581,174.48237 0,59.25816 -14.8145,113.57814 -44.4436,162.95994 -28.5317,48.28443 -70.7806,86.6925 -126.7466,115.22421 -55.9661,28.53169 -124.5519,42.79759 -205.7575,42.79759 z m 174.4823,-671.59253 h 215.6339 c 66.9398,0 117.9677,-13.16848 153.0836,-39.50545 35.1159,-27.43433 52.6739,-68.58583 52.6739,-123.4545 0,-108.639964 -69.6832,-162.959946 -209.0496,-162.959946 h -212.3418 z m 0,510.27861 h 227.1563 c 71.3293,0 126.1979,-15.36323 164.606,-46.08968 38.4081,-30.72645 57.6121,-75.71876 57.6121,-134.97692 0,-58.16079 -20.3014,-102.60442 -60.9042,-133.33087 -40.6028,-31.82383 -95.4715,-47.73574 -164.606,-47.73574 h -223.8642 z m 1045.7201,181.06662 c -64.745,0 -119.065,-10.9737 -162.9599,-32.9212 -43.8949,-23.04485 -76.8162,-53.22262 -98.7637,-90.53331 -21.9475,-38.40807 -32.9212,-80.10826 -32.9212,-125.10057 0,-80.10825 29.0804,-142.65853 87.2412,-187.65084 59.2582,-44.99231 142.6586,-67.48847 250.2012,-67.48847 h 210.6956 v -18.10666 c 0,-122.90581 -57.0634,-184.35872 -171.1902,-184.35872 -47.1871,0 -87.2412,10.42505 -120.1624,31.27514 -31.8238,19.75272 -53.2226,52.12523 -64.1963,97.11754 h -174.4824 c 8.779,-85.59512 45.541,-153.08358 110.286,-202.46539 65.8424,-50.47917 148.6941,-75.71876 248.5551,-75.71876 120.7111,0 208.5009,29.62908 263.3696,88.88724 54.8687,59.25817 82.303,141.01248 82.303,245.26295 v 502.04835 l -162.9598,0 -10e-5,-120.16241 h -11.5225 c -24.1422,38.40807 -54.32,71.32927 -90.5333,98.76361 -36.2133,27.4343 -90.5332,41.1515 -162.9599,41.1515 z m 32.9212,-146.49935 c 71.3293,0 124.5519,-21.39878 159.6678,-64.19635 36.2133,-43.89493 55.9661,-99.31229 59.2582,-166.25206 h -190.943 c -62.5503,0 -106.9939,10.42505 -133.3308,31.27514 -25.2396,19.75272 -37.8594,47.73574 -37.8594,83.94906 0,36.21332 12.6198,64.74503 37.8594,85.59512 26.3369,19.75273 61.4529,29.62909 105.3478,29.62909 z m 933.7882,146.49935 c -77.9135,0 -147.5967,-17.558 -209.0496,-52.67393 -61.4529,-35.11595 -109.7374,-84.49775 -144.8533,-148.14541 -35.1159,-64.74503 -52.6739,-140.46379 -52.6739,-227.15628 0,-86.6925 17.558,-161.86258 52.6739,-225.51023 35.1159,-64.74503 83.4004,-114.67552 144.8533,-149.79147 61.4529,-35.11595 131.6848,-52.67392 210.6957,-52.67392 79.0109,0 148.6941,17.55797 209.0496,52.67392 61.4529,35.11595 109.1887,85.04644 143.2072,149.79147 35.116,63.64765 52.674,138.81773 52.674,225.51023 0,86.69249 -17.558,162.41125 -52.674,227.15628 -35.1159,63.64766 -83.4004,113.02946 -144.8533,148.14541 -60.3555,35.11593 -130.0387,52.67393 -209.0496,52.67393 z m 0,-166.25208 c 41.7002,0 80.1083,-9.32767 115.2242,-27.98302 35.1159,-18.65535 63.099,-47.18705 83.9491,-85.59512 21.9475,-39.50544 32.9212,-88.88724 32.9212,-148.1454 0,-60.35554 -10.9737,-109.73734 -32.9212,-148.14541 -20.8501,-38.40807 -48.8332,-66.93977 -83.9491,-85.59512 -34.0185,-18.65535 -71.8779,-27.98302 -113.5781,-27.98302 -41.7002,0 -80.1083,9.32767 -115.2242,27.98302 -35.1159,18.65535 -63.6476,47.18705 -85.5951,85.59512 -20.8501,38.40807 -31.2752,87.78987 -31.2752,148.14541 0,89.98461 22.4962,156.3757 67.4885,199.17326 46.0897,41.70019 100.4096,62.55028 162.9599,62.55028 z"
     id="path8"
     aria-label="OpenBao"
     transform="matrix(0.65760184,0,0,0.65760184,131.10889,207.54846)" /></svg>
