<?xml version="1.0" encoding="UTF-8" standalone="no"?>
<!-- Created with Inkscape (http://www.inkscape.org/) -->

<svg
   version="1.1"
   id="svg1"
   width="1100"
   height="720"
   viewBox="0 0 1100 720"
   xml:space="preserve"
   xmlns="http://www.w3.org/2000/svg"
   xmlns:svg="http://www.w3.org/2000/svg"><defs
     id="defs1"><clipPath
       clipPathUnits="userSpaceOnUse"
       id="clipPath23"><g
         id="use23"
         style="stroke-width:1.52068"><path
           style="display:inline;opacity:1;fill:#87d6be;fill-opacity:1;stroke:none;stroke-width:144.464;stroke-linecap:round;stroke-linejoin:round;stroke-miterlimit:0;stroke-opacity:1"
           id="path6"
           d="M 2479.5983,735.4187 A 1207.5515,346.58099 0 0 1 1272.0468,1081.9997 1207.5515,346.58099 0 0 1 64.495239,735.4187 1207.5515,346.58099 0 0 1 1272.0468,388.83771 1207.5515,346.58099 0 0 1 2479.5983,735.4187 Z" /></g></clipPath></defs><path
     id="path1"
     style="display:inline;opacity:1;fill:#87d6be;fill-opacity:1;stroke:none;stroke-width:144.464;stroke-linecap:round;stroke-linejoin:round;stroke-miterlimit:0;stroke-opacity:1"
     d="m 655.37963,909.73634 c -10.02392,4.98389 -19.22009,10.09387 -27.5593,15.3137 -2.46413,1.52195 -4.69222,3.06826 -7.0064,4.60658 -5.88824,3.91432 -11.29495,7.88367 -16.21065,11.90108 -1.9394,1.58508 -3.95937,3.16253 -5.74412,4.76102 -6.17853,5.43504 -11.45894,10.94637 -15.82455,16.51658 -4.87244,6.37507 -8.54157,12.81712 -10.99224,19.29953 -0.003,0.008 -0.006,0.0158 -0.009,0.0238 -2.44766,6.48106 -3.674,12.99349 -3.67397,19.51041 -7e-5,2.7635 0.21872,5.5196 0.65638,8.2687 0.93835,5.6699 2.80551,11.3249 5.59562,16.9472 0.18615,0.3799 0.35497,0.7611 0.54946,1.1405 2.82206,5.5075 6.52747,10.9769 11.1051,16.3918 0.29477,0.3486 0.61585,0.6946 0.91775,1.0425 4.76073,5.5285 10.42664,10.9932 16.97991,16.377 5.73209,4.683 12.13095,9.2987 19.17775,13.8376 l 0.003,0 c 7.04593,4.5381 14.74126,8.9993 23.06855,13.3712 11.07697,5.8141 23.25157,11.4602 36.47249,16.9146 13.2004,5.4468 27.46319,10.7118 42.7631,15.7711 11.79184,3.8992 24.24289,7.668 37.24174,11.31 12.16038,3.4142 24.79069,6.6957 37.86248,9.8369 60.2826,14.4565 128.96822,25.6939 202.58271,33.3272 l 0.2346,0.027 c 73.652,7.6281 152.2407,11.6486 232.3161,11.6486 86.6026,0 171.1591,-4.986 249.9197,-13.8702 2.8104,-0.2759 5.6142,-0.5571 8.4112,-0.8435 76.5076,-8.9706 146.4952,-22.1176 206.9725,-38.5783 4.7776,-1.2292 9.4906,-2.4777 14.1375,-3.7453 25.7573,-7.4418 49.8005,-15.2714 70.5541,-23.6922 15.2033,-6.2542 29.0279,-12.7608 41.3969,-19.4837 3.0875,-1.6524 6.0508,-3.3191 8.9577,-4.9957 11.8582,-6.7215 22.2515,-13.6365 31.1234,-20.7073 0.1636,-0.1333 0.3899,-0.2586 0.5524,-0.3921 9.8661,-8.0954 17.7218,-16.3708 23.5111,-24.7674 5.8011,-8.4219 9.5096,-16.9454 11.0992,-25.5099 0.5946,-3.207 0.8917,-6.4177 0.891,-9.629 -10e-4,-6.57472 -1.2501,-13.14482 -3.7423,-19.68268 -0,-0.005 -0,-0.0101 -0,-0.0149 l -0.01,-0.009 c -2.4937,-6.53916 -6.2274,-13.03688 -11.1853,-19.46585 -4.372,-5.53113 -9.6464,-11.00373 -15.8067,-16.40074 -1.7965,-1.6019 -3.8279,-3.18156 -5.7798,-4.76994 -4.8826,-3.97293 -10.2456,-7.89863 -16.0799,-11.77039 -2.3207,-1.54007 -4.5562,-3.08889 -7.0272,-4.61253 -8.2945,-5.18272 -17.434,-10.25694 -27.39,-15.20677 0.08,0.31028 -1.2507,16.19215 -3.4423,30.12842 -7.0949,45.11403 -22.8585,87.12304 -51.9258,120.29684 -29.0674,33.1738 -73.6744,54.9806 -121.8769,54.8751 H 1235.8862 832.62464 c -48.2025,0.1055 -92.80958,-21.7013 -121.87692,-54.8751 -29.06734,-33.1738 -44.83095,-75.18281 -51.92577,-120.29684 -1.55086,-9.86147 -2.6983,-19.91589 -3.44232,-30.12842 z"
     transform="matrix(0.65760184,0,0,0.65760184,-262.72104,-165.59195)" /><path
     style="display:inline;opacity:1;fill:#fdfccf;fill-opacity:1;stroke:none;stroke-width:1.52068;stroke-opacity:1;baseline-shift:baseline;overflow:visible;vector-effect:none;stroke-linejoin:round;enable-background:accumulate;stop-color:#000000;stop-opacity:1"
     d="m 1235.8863,408.10695 c -191.2958,0 -374.79716,92.98459 -469.8872,265.28004 -95.09005,172.29545 -67.13547,386.61611 66.50535,386.32371 h 403.38185 403.3818 c 133.6409,0.2924 161.5955,-214.02826 66.5054,-386.32371 -95.09,-172.29545 -278.5914,-265.28004 -469.8872,-265.28004 z"
     id="path2"
     transform="matrix(0.65760184,0,0,0.65760184,-262.72109,-165.59195)" /><path
     id="path3"
     style="display:inline;opacity:1;fill:#091a28;fill-opacity:1;stroke:none;stroke-width:144.464;stroke-opacity:1;stroke-linecap:round;stroke-linejoin:round;stroke-miterlimit:0"
     d="m 1235.7021,352.77948 c -6.5088,0.009 -12.8296,0.48991 -19.059,1.17912 -202.3484,6.11838 -396.76916,107.30668 -499.085,292.69468 -34.44542,62.41232 -54.81246,128.85957 -61.10033,192.40128 -104.50197,46.20648 -161.40665,103.53679 -161.40561,162.61444 -8.4e-4,69.2131 78.05112,135.5924 216.98457,184.5336 138.93345,48.9411 327.36757,76.4349 523.84947,76.4348 196.4819,10e-5 384.9161,-27.4937 523.8495,-76.4348 138.9335,-48.9412 216.9853,-115.3205 216.9845,-184.5336 10e-4,-59.07766 -56.9035,-116.40796 -161.4056,-162.61444 v 0 c -6.2878,-63.5417 -26.6549,-129.98896 -61.1003,-192.40128 -102.3158,-185.38802 -296.7367,-286.5763 -499.085,-292.69468 -6.2302,-0.68926 -12.5493,-1.17026 -19.059,-1.17912 -0.061,-10e-5 -0.1227,-10e-5 -0.1841,0 -0.061,-10e-5 -0.1227,-10e-5 -0.1841,0 z m 55.5106,129.0437 c 0.7745,0.41557 1.5461,0.83798 2.3137,1.26525 21.8835,12.18074 42.4304,30.06085 45.5164,33.74893 19.6022,23.42665 45.7361,67.29561 45.7361,90.91985 5e-4,30.55693 24.7726,55.32762 55.3295,55.32651 30.5558,-5.5e-4 55.326,-24.77075 55.3265,-55.32651 0,-32.61263 -8.3685,-61.31471 -19.9084,-85.82914 75.0128,40.02639 138.6623,100.01773 181.807,178.19245 41.7473,75.64278 55.7317,162.62042 46.3064,222.55346 -4.7127,29.96652 -15.0535,52.25014 -25.8426,64.56343 -10.789,12.31329 -19.7911,17.18689 -38.409,17.14619 -0.041,0 -0.081,0 -0.1217,0 H 1235.8862 832.50286 c -0.0396,0 -0.0792,0 -0.1188,0 -18.61791,0.041 -27.61991,-4.8329 -38.40897,-17.14619 -10.78906,-12.31328 -21.12993,-34.59691 -25.8426,-64.56343 -9.42533,-59.93305 4.55906,-146.91068 46.30639,-222.55346 43.14422,-78.17383 106.79534,-138.16607 181.80704,-178.19245 -11.53958,24.51413 -19.9084,53.21712 -19.9084,85.82914 5.5e-4,30.55692 24.77258,55.3276 55.32948,55.32651 30.5558,-5.5e-4 55.326,-24.77075 55.3265,-55.32651 0,-23.62424 26.134,-67.4932 45.7362,-90.91985 3.086,-3.68808 23.6328,-21.56819 45.5163,-33.74893 0.7672,-0.42706 1.5395,-0.8469 2.3137,-1.26228 v 125.93106 c -3e-4,11.68332 3.6978,23.06688 10.5645,32.51933 3.4125,4.69678 7.5429,8.8272 12.2397,12.23966 9.4529,6.86834 20.8376,10.5676 32.5223,10.56752 30.5558,-5.5e-4 55.326,-24.77075 55.3265,-55.32651 z m 132.2365,217.48948 c -27.4821,-0.45983 -54.4623,14.40489 -70.263,37.65458 -12.9473,19.05111 -17.1448,34.71303 9.335,51.05554 17.249,10.64552 37.3285,6.73083 49.0953,1.00389 7.6038,-3.70083 10.4739,-6.63789 23.8734,-0.4366 27.0777,12.53163 42.9163,11.8931 58.5134,-1.05141 17.5632,-14.57621 14.5937,-35.77987 1.4435,-51.20405 -18.9252,-22.19802 -44.5154,-36.56211 -71.9976,-37.02195 z m -419.6474,1.00686 c -27.48225,0.45984 -53.0723,14.8269 -71.99754,37.02492 -13.15011,15.42418 -16.11976,36.62783 1.44346,51.20404 15.59713,12.94451 31.4357,13.58304 58.51339,1.05141 13.39939,-6.20129 16.26969,-3.26423 23.87349,0.4366 11.7668,5.72694 31.8462,9.64164 49.0952,-1.00388 26.4798,-16.34251 22.2823,-32.00444 9.335,-51.05555 -15.8007,-23.24969 -42.7809,-38.11737 -70.263,-37.65754 z m 812.591,209.41682 c 57.0366,28.0272 87.0208,59.70408 87.0201,91.93266 0,49.387 -70.3253,96.7502 -195.5109,131.6722 -125.1857,34.9221 -294.9759,54.5423 -472.0158,54.5424 -177.0399,-10e-5 -346.82716,-19.6203 -472.0128,-54.5424 -125.18565,-34.922 -195.51507,-82.2852 -195.51391,-131.6722 -6.4e-4,-32.22858 29.98356,-63.90546 87.02014,-91.93266 0.74402,10.21273 1.89143,20.26676 3.44232,30.12842 7.09482,45.11403 22.85843,87.12304 51.92577,120.29684 29.06734,33.1738 73.67442,54.9806 121.87692,54.8751 h 403.26156 403.2616 c 48.2025,0.1055 92.8095,-21.7013 121.8769,-54.8751 29.0673,-33.1738 44.8309,-75.18281 51.9258,-120.29684 2.1934,-13.94747 3.5248,-29.84295 3.4423,-30.12842 z"
     transform="matrix(0.65760184,0,0,0.65760184,-262.72104,-165.59195)" /></svg>
