<?xml version="1.0" encoding="UTF-8" standalone="no"?>
<!-- Created with Inkscape (http://www.inkscape.org/) -->

<svg
   version="1.1"
   id="svg1"
   width="1100"
   height="1100"
   viewBox="0 0 1100 1100"
   xml:space="preserve"
   xmlns="http://www.w3.org/2000/svg"
   xmlns:svg="http://www.w3.org/2000/svg"><path
     id="path1"
     style="display:inline;opacity:1;fill:#87d6be;fill-opacity:1;stroke:none;stroke-width:94.9998;stroke-linecap:round;stroke-linejoin:round;stroke-miterlimit:0;stroke-opacity:1"
     d="m 168.25781,622.65234 c -6.49016,3.22703 -12.45266,6.53446 -17.86914,9.91211 -1.62346,0.99891 -3.09399,2.01377 -4.61914,3.02344 -3.80985,2.52121 -7.31573,5.07733 -10.51172,7.66406 -1.27846,1.03536 -2.60715,2.06719 -3.78515,3.11133 -4.0399,3.51826 -7.50699,7.08571 -10.39063,10.69141 -3.33647,4.27514 -5.84919,8.59709 -7.52734,12.94726 l -0.004,0.0117 c -1.67689,4.34891 -2.51728,8.71976 -2.51758,13.09375 -4e-5,1.81964 0.14506,3.63524 0.4336,5.44531 0.61749,3.72921 1.84599,7.44859 3.68164,11.14649 0.11926,0.24327 0.2271,0.48749 0.35156,0.73047 1.8547,3.62105 4.29009,7.21711 7.29883,10.77734 0.19761,0.23375 0.41274,0.46585 0.61523,0.69922 3.12633,3.63083 6.84636,7.21987 11.14844,10.75586 3.76996,3.08107 7.97797,6.11731 12.61328,9.10351 l 0.002,0.002 c 4.63474,2.98574 9.69764,5.92056 15.17579,8.79687 7.28845,3.82612 15.29972,7.54163 24,11.13086 8.69468,3.58734 18.09231,7.05509 28.17187,10.38672 7.72492,2.55335 15.88231,5.02069 24.39453,7.40625 7.9716,2.23946 16.25057,4.39211 24.81836,6.45313 39.63831,9.51253 84.812,16.90529 133.22461,21.92968 l 0.21875,0.0274 c 48.44784,5.01954 100.14289,7.66403 152.81836,7.66406 56.94934,-3e-5 112.5531,-3.27892 164.3457,-9.12109 1.85012,-0.18144 3.69587,-0.36635 5.53711,-0.55469 50.3128,-5.8994 96.33897,-14.54594 136.10938,-25.3711 3.13774,-0.80702 6.23312,-1.62677 9.28515,-2.45898 16.94962,-4.89695 32.77101,-10.05022 46.42578,-15.5918 9.99233,-4.11099 19.07878,-8.38778 27.20899,-12.80664 2.03566,-1.0896 3.99001,-2.1893 5.90625,-3.29492 7.80376,-4.42446 14.64239,-8.97636 20.47852,-13.63086 0.10035,-0.0819 0.23815,-0.16028 0.33789,-0.24219 13.00443,-10.67736 20.65946,-21.80465 22.74804,-33.0664 0.38939,-2.10372 0.58411,-4.20989 0.58399,-6.31641 -3.8e-4,-4.31044 -0.81662,-8.61787 -2.44532,-12.9043 -0.002,-0.005 -0.004,-0.0104 -0.006,-0.0156 -1.63006,-4.28816 -4.07096,-8.5493 -7.3125,-12.76562 -2.87365,-3.64585 -6.34342,-7.25313 -10.39843,-10.81055 -1.17976,-1.05356 -2.51493,-2.09204 -3.79688,-3.13672 -3.21612,-2.62057 -6.75005,-5.20995 -10.5957,-7.76367 -1.52781,-1.01454 -2.99995,-2.03341 -4.62695,-3.03711 -5.46255,-3.41561 -11.48318,-6.75961 -18.04297,-10.02149 0.0527,0.20395 -0.82244,10.64794 -2.26367,19.8125 -4.66562,29.66706 -15.03178,57.29228 -34.14649,79.10743 -19.11478,21.81515 -48.44843,36.15533 -80.14648,36.08593 H 550 284.81445 c -31.69805,0.0694 -61.03175,-14.27078 -80.14648,-36.08593 -19.11474,-21.81515 -29.48092,-49.44037 -34.14649,-79.10743 -1.01984,-6.48492 -1.7744,-13.09672 -2.26367,-19.8125 z" /><defs
     id="defs1"><clipPath
       clipPathUnits="userSpaceOnUse"
       id="clipPath23"><g
         id="use23"
         style="stroke-width:1.52068"><path
           style="display:inline;opacity:1;fill:#87d6be;fill-opacity:1;stroke:none;stroke-width:144.464;stroke-linecap:round;stroke-linejoin:round;stroke-miterlimit:0;stroke-opacity:1"
           id="path6"
           d="M 2479.5983,735.4187 A 1207.5515,346.58099 0 0 1 1272.0468,1081.9997 1207.5515,346.58099 0 0 1 64.495239,735.4187 1207.5515,346.58099 0 0 1 1272.0468,388.83771 1207.5515,346.58099 0 0 1 2479.5983,735.4187 Z" /></g></clipPath></defs><path
     style="baseline-shift:baseline;display:inline;overflow:visible;opacity:1;vector-effect:none;fill:#fdfccf;fill-opacity:1;stroke:none;stroke-width:1;stroke-linejoin:round;stroke-opacity:1;enable-background:accumulate;stop-color:#000000;stop-opacity:1"
     d="m 550.00001,292.77993 c -125.79647,0 -246.4673,61.14684 -308.99869,174.44864 -62.53139,113.30181 -44.1484,254.23947 43.73405,254.04719 H 550.00001 815.26463 C 903.14713,721.46804 921.53012,580.53038 858.9987,467.22857 796.46734,353.92677 675.79648,292.77993 550.00001,292.77993 Z"
     id="path2" /><path
     id="path3"
     style="display:inline;opacity:1;fill:#091a28;fill-opacity:1;stroke:none;stroke-width:94.9998;stroke-linecap:round;stroke-linejoin:round;stroke-miterlimit:0;stroke-opacity:1"
     d="m 549.87893,256.39649 c -4.2802,0.006 -8.43677,0.32216 -12.53323,0.77539 -133.06468,4.02345 -260.91613,70.56507 -328.19922,192.47656 -22.65137,41.04245 -36.04477,84.73829 -40.17969,126.52343 -68.72068,30.38547 -106.141305,68.08599 -106.140622,106.93556 -5.52e-4,45.51466 51.326562,89.16581 142.689452,121.34963 91.36289,32.18376 215.27752,50.26373 344.48438,50.26367 129.20686,6e-5 253.12153,-18.07991 344.48439,-50.26367 91.36293,-32.18382 142.68991,-75.83497 142.68941,-121.34963 7e-4,-38.84958 -37.41985,-76.55009 -106.14062,-106.93556 v 0 C 926.89831,534.38673 913.50487,490.69089 890.85351,449.64844 823.57045,327.73693 695.71891,261.19533 562.65429,257.17188 c -4.09699,-0.45326 -8.25244,-0.76957 -12.53323,-0.77539 -0.0401,-7e-5 -0.0807,-7e-5 -0.12106,0 -0.0401,-7e-5 -0.0807,-7e-5 -0.12107,0 z m 36.50387,84.85937 c 0.50932,0.27328 1.01672,0.55106 1.5215,0.83203 14.39063,8.01008 27.90231,19.76807 29.93167,22.19336 12.89044,15.40541 30.07614,44.25372 30.07614,59.78906 3.3e-4,20.09429 16.29051,36.38354 36.38478,36.38281 20.09355,-3.6e-4 36.38248,-16.28929 36.38281,-36.38281 0,-21.44613 -5.50314,-40.32067 -13.0918,-56.4414 49.32855,26.32143 91.18458,65.77184 119.55662,117.17968 27.4531,49.74283 36.64926,106.93949 30.45117,146.35157 -3.09908,19.70604 -9.89921,34.35979 -16.99414,42.45703 -7.09487,8.09724 -13.01467,11.30213 -25.25783,11.27536 -0.027,0 -0.0533,0 -0.08,0 H 550 284.73437 c -0.026,0 -0.0521,0 -0.0781,0 -12.24318,0.027 -18.16291,-3.17812 -25.25781,-11.27536 -7.09491,-8.09724 -13.89508,-22.75099 -16.99414,-42.45703 -6.19812,-39.41209 2.99804,-96.60874 30.45116,-146.35157 28.37172,-51.40725 70.22882,-90.85826 119.55665,-117.17968 -7.58845,16.12054 -13.0918,34.99568 -13.0918,56.4414 3.6e-4,20.09429 16.29049,36.38353 36.38476,36.38281 20.09355,-3.6e-4 36.38248,-16.28929 36.38281,-36.38281 0,-15.53534 17.18577,-44.38365 30.07621,-59.78906 2.02936,-2.42529 15.54097,-14.18328 29.9316,-22.19336 0.50452,-0.28083 1.01238,-0.55692 1.5215,-0.83008 v 82.8125 c -2e-4,7.68297 2.43168,15.16882 6.94723,21.38477 2.24407,3.08861 4.96023,5.80478 8.04885,8.04882 6.21625,4.51664 13.70285,6.94928 21.38673,6.94922 20.09355,-3.6e-4 36.38248,-16.28929 36.3828,-36.38281 z m 86.95897,143.02148 c -18.07228,-0.30238 -35.81451,9.47268 -46.20508,24.76172 -8.51417,12.52805 -11.27445,22.82736 6.13872,33.57422 11.34297,7.00051 24.54729,4.42621 32.28515,0.66016 5.00028,-2.43367 6.88766,-4.36509 15.6992,-0.28711 17.80634,8.24082 28.22183,7.82093 38.47852,-0.69141 11.54959,-9.58534 9.59684,-23.52891 0.94924,-33.67188 -12.44524,-14.59745 -29.2734,-24.04331 -47.34575,-24.3457 z m -275.9609,0.66211 c -18.07238,0.3024 -34.90044,9.7502 -47.34572,24.34766 -8.64753,10.14297 -10.60038,24.08653 0.94922,33.67187 10.25671,8.51233 20.67218,8.93223 38.47852,0.69141 8.81146,-4.07798 10.69898,-2.14656 15.69925,0.28711 7.73787,3.76605 20.94212,6.34036 32.28509,-0.66015 17.41317,-10.74687 14.65288,-21.04618 6.13872,-33.57423 -10.39057,-15.28904 -28.1328,-25.06605 -46.20508,-24.76367 z M 931.7422,622.65234 c 37.50738,18.43074 57.22504,39.26151 57.22458,60.45509 0,32.47698 -46.24604,63.62311 -128.56833,86.58788 C 778.07611,792.66015 666.42176,805.56243 550,805.56249 433.57823,805.56243 321.92582,792.66015 239.60351,769.69531 157.2812,746.73054 111.03244,715.58441 111.0332,683.10743 c -4.2e-4,-21.19358 19.71725,-42.02435 57.22461,-60.45509 0.48927,6.71591 1.24381,13.32746 2.26367,19.81251 4.66557,29.66706 15.03175,57.29227 34.14649,79.10742 19.11473,21.81515 48.44843,36.15534 80.14648,36.08597 H 550 815.18557 c 31.69805,0.0694 61.03169,-14.27082 80.14647,-36.08597 19.11471,-21.81515 29.48088,-49.44036 34.1465,-79.10742 1.44239,-9.17189 2.31792,-19.62478 2.26366,-19.81251 z" /></svg>
